<?xml version="1.0" encoding="UTF-8" standalone="no"?>
<svg
   xmlns:dc="http://purl.org/dc/elements/1.1/"
   xmlns:cc="http://creativecommons.org/ns#"
   xmlns:rdf="http://www.w3.org/1999/02/22-rdf-syntax-ns#"
   xmlns:svg="http://www.w3.org/2000/svg"
   xmlns="http://www.w3.org/2000/svg"
   xmlns:xlink="http://www.w3.org/1999/xlink"
   xmlns:sodipodi="http://sodipodi.sourceforge.net/DTD/sodipodi-0.dtd"
   xmlns:inkscape="http://www.inkscape.org/namespaces/inkscape"
   viewBox="0 0 959 593"
   version="1.1"
   id="lte_svg"
   sodipodi:docname="lte.svg"
   inkscape:version="0.92.1 r15371"
   inkscape:export-filename="/home/jacob/Programming/270/usa.png"
   inkscape:export-xdpi="96"
   inkscape:export-ydpi="96"
   width="959"
   height="593"
   style="enable-background:new">
  <metadata
     id="metadata3850">
    <rdf:RDF>
      <cc:Work
         rdf:about="">
        <dc:format>image/svg+xml</dc:format>
        <dc:type
           rdf:resource="http://purl.org/dc/dcmitype/StillImage" />
        <dc:title>Blank US states map</dc:title>
      </cc:Work>
    </rdf:RDF>
  </metadata>
  <sodipodi:namedview
     pagecolor="#ffffff"
     bordercolor="#666666"
     borderopacity="1"
     objecttolerance="30"
     gridtolerance="10"
     guidetolerance="10"
     inkscape:pageopacity="0"
     inkscape:pageshadow="2"
     inkscape:window-width="1600"
     inkscape:window-height="838"
     id="namedview3848"
     showgrid="true"
     inkscape:pagecheckerboard="true"
     inkscape:zoom="1.3245003"
     inkscape:cx="620.49054"
     inkscape:cy="221.97218"
     inkscape:window-x="0"
     inkscape:window-y="0"
     inkscape:window-maximized="1"
     inkscape:current-layer="outlines"
     inkscape:snap-center="true"
     inkscape:snap-grids="false"
     inkscape:snap-object-midpoints="true"
     inkscape:snap-midpoints="true"
     inkscape:snap-bbox="true"
     inkscape:snap-others="true"
     inkscape:snap-perpendicular="false"
     inkscape:snap-tangential="false"
     inkscape:snap-path-clip="false"
     inkscape:snap-path-mask="false"
     inkscape:snap-to-guides="false"
     inkscape:snap-text-baseline="true"
     inkscape:snap-nodes="false"
     inkscape:snap-global="true"
     showguides="false">
    <inkscape:grid
       type="xygrid"
       id="grid4836"
       dotted="false"
       visible="true"
       enabled="true" />
  </sodipodi:namedview>
  <title
     id="title3785" />
  <defs
     id="defs3789">
    <inkscape:tag
       id="Set 3"
       inkscape:expanded="true">
      <inkscape:tagref
         xlink:href="#WA-text"
         id="tagref4251" />
      <inkscape:tagref
         xlink:href="#OR-text"
         id="tagref4253" />
      <inkscape:tagref
         xlink:href="#ID-text"
         id="tagref4255" />
      <inkscape:tagref
         xlink:href="#MT-text"
         id="tagref4257" />
      <inkscape:tagref
         xlink:href="#WY-text"
         id="tagref4259" />
      <inkscape:tagref
         xlink:href="#ND-text"
         id="tagref4261" />
      <inkscape:tagref
         xlink:href="#SD-text"
         id="tagref4263" />
      <inkscape:tagref
         xlink:href="#MN-text"
         id="tagref4265" />
      <inkscape:tagref
         xlink:href="#NE-text"
         id="tagref4267" />
      <inkscape:tagref
         xlink:href="#IA-text"
         id="tagref4269" />
      <inkscape:tagref
         xlink:href="#WI-text"
         id="tagref4271" />
      <inkscape:tagref
         xlink:href="#MI-text"
         id="tagref4273" />
      <inkscape:tagref
         xlink:href="#NED4-button-text"
         id="tagref4275" />
      <inkscape:tagref
         xlink:href="#NED3-button-text"
         id="tagref4277" />
      <inkscape:tagref
         xlink:href="#NED2-button-text"
         id="tagref4279" />
      <inkscape:tagref
         xlink:href="#NED1-button-text"
         id="tagref4281" />
      <inkscape:tagref
         xlink:href="#MED1-button-text"
         id="tagref4283" />
      <inkscape:tagref
         xlink:href="#MED2-button-text"
         id="tagref4285" />
      <inkscape:tagref
         xlink:href="#MED3-button-text"
         id="tagref4287" />
      <inkscape:tagref
         xlink:href="#ME-text"
         id="tagref4289" />
      <inkscape:tagref
         xlink:href="#NY-text"
         id="tagref4291" />
      <inkscape:tagref
         xlink:href="#PA-text"
         id="tagref4293" />
      <inkscape:tagref
         xlink:href="#IL-text"
         id="tagref4295" />
      <inkscape:tagref
         xlink:href="#IN-text"
         id="tagref4297" />
      <inkscape:tagref
         xlink:href="#OH-text"
         id="tagref4299" />
      <inkscape:tagref
         xlink:href="#WV-text"
         id="tagref4301" />
      <inkscape:tagref
         xlink:href="#VA-text"
         id="tagref4303" />
      <inkscape:tagref
         xlink:href="#KY-text"
         id="tagref4305" />
      <inkscape:tagref
         xlink:href="#TN-text"
         id="tagref4307" />
      <inkscape:tagref
         xlink:href="#AR-text"
         id="tagref4309" />
      <inkscape:tagref
         xlink:href="#MO-text"
         id="tagref4311" />
      <inkscape:tagref
         xlink:href="#OK-text"
         id="tagref4313" />
      <inkscape:tagref
         xlink:href="#KS-text"
         id="tagref4315" />
      <inkscape:tagref
         xlink:href="#CO-text"
         id="tagref4317" />
      <inkscape:tagref
         xlink:href="#UT-text"
         id="tagref4319" />
      <inkscape:tagref
         xlink:href="#NV-text"
         id="tagref4321" />
      <inkscape:tagref
         xlink:href="#CA-text"
         id="tagref4323" />
      <inkscape:tagref
         xlink:href="#AZ-text"
         id="tagref4325" />
      <inkscape:tagref
         xlink:href="#AK-text"
         id="tagref4327" />
      <inkscape:tagref
         xlink:href="#HI-button-text"
         id="tagref4329" />
      <inkscape:tagref
         xlink:href="#NM-text"
         id="tagref4331" />
      <inkscape:tagref
         xlink:href="#TX-text"
         id="tagref4333" />
      <inkscape:tagref
         xlink:href="#LA-text"
         id="tagref4335" />
      <inkscape:tagref
         xlink:href="#MS-text"
         id="tagref4337" />
      <inkscape:tagref
         xlink:href="#AL-text"
         id="tagref4339" />
      <inkscape:tagref
         xlink:href="#NC-text"
         id="tagref4341" />
      <inkscape:tagref
         xlink:href="#SC-text"
         id="tagref4343" />
      <inkscape:tagref
         xlink:href="#GA-text"
         id="tagref4345" />
      <inkscape:tagref
         xlink:href="#FL-text"
         id="tagref4347" />
      <inkscape:tagref
         xlink:href="#DC-button-text"
         id="tagref4349" />
      <inkscape:tagref
         xlink:href="#MD-button-text"
         id="tagref4351" />
      <inkscape:tagref
         xlink:href="#DE-button-text"
         id="tagref4353" />
      <inkscape:tagref
         xlink:href="#NJ-button-text"
         id="tagref4355" />
      <inkscape:tagref
         xlink:href="#CT-button-text"
         id="tagref4357" />
      <inkscape:tagref
         xlink:href="#RI-button-text"
         id="tagref4359" />
      <inkscape:tagref
         xlink:href="#MA-button-text"
         id="tagref4361" />
      <inkscape:tagref
         xlink:href="#VT-button-text"
         id="tagref4363" />
      <inkscape:tagref
         xlink:href="#NH-button-text"
         id="tagref4365" />
    </inkscape:tag>
    <style
       type="text/css"
       id="style3787">
    .state {fill:#D3D3D3;}
  </style>
  </defs>
  <g
     id="outlines"
     class="state"
     style="fill:#d3d3d3">
    <path
       style="fill:#ffffff;fill-opacity:1"
       d="M 93.599609,6.4003906 92.199219,7.1992188 91.900391,8 l 2.40039,4.800781 1.09961,2.59961 L 93.599609,19 v 2.599609 l 0.59961,1.5 -0.798828,1.800782 0.5,3.199218 1,1.300782 -0.201172,1.298828 -1.5,0.201172 L 92.599609,29 91.5,26.599609 l -1.800781,-1.5 L 90,23 92.300781,22.5 92,20.699219 91.699219,19.599609 89.599609,20.900391 88.300781,22 v 2.400391 L 86,24.599609 l -3.400391,-1 -2.90039,-1.5 -3.09961,-0.599609 -4.5,-2.099609 L 68.900391,17.5 66.199219,14.900391 63.800781,12 l -2.101562,-0.5 -2.298828,9.400391 1.798828,3.199218 V 32 l -0.59961,2.900391 1.5,7.099609 2.701172,2.699219 -4.40039,0.601562 L 60.199219,49 l 2.601562,1.099609 -1.601562,4 -2.699219,0.300782 -0.300781,2.90039 2.255859,2.841797 c -0.0021,0.05274 0.01263,0.166143 0,0.191406 -0.01617,0.03235 -0.06,0.04382 -0.07617,0.07617 -0.01144,0.02287 0.01144,0.05526 0,0.07813 -0.159645,0.31929 0.0044,-0.08257 -0.154297,0.07617 -0.01808,0.01808 0.01808,0.05809 0,0.07617 -0.01808,0.01808 -0.05809,-0.01808 -0.07617,0 -0.01808,0.01808 0.01808,0.05809 0,0.07617 -0.01808,0.01808 -0.05809,-0.01808 -0.07617,0 -0.03617,0.03617 0.03617,0.118131 0,0.154297 -0.01808,0.01808 -0.06005,-0.01808 -0.07813,0 -0.03617,0.03617 0.02287,0.108551 0,0.154297 -0.01617,0.03235 -0.06,0.04382 -0.07617,0.07617 -0.01144,0.02287 0.01808,0.05809 0,0.07617 -0.01808,0.01808 -0.0506,0 -0.07617,0 0,0.02557 0.01808,0.05809 0,0.07617 -0.01808,0.01808 -0.05809,-0.01808 -0.07617,0 -0.03617,0.03617 0.03617,0.118131 0,0.154297 -0.01808,0.01808 -0.06005,-0.01808 -0.07813,0 -0.03617,0.03617 0.03617,0.118131 0,0.154297 -0.01808,0.01808 -0.05809,-0.01808 -0.07617,0 -0.01808,0.01808 0.01144,0.0533 0,0.07617 -0.01617,0.03235 -0.05999,0.04382 -0.07617,0.07617 -0.01144,0.02287 0.01808,0.05809 0,0.07617 -0.01808,0.01808 -0.06005,-0.01808 -0.07813,0 -0.01808,0.01808 0.01808,0.06005 0,0.07813 -0.01808,0.01808 -0.05809,-0.01808 -0.07617,0 -0.03617,0.03617 0.03617,0.116176 0,0.152343 -0.01808,0.01808 -0.05809,-0.01808 -0.07617,0 -0.03836,0.03836 0.03836,0.192109 0,0.230469 -0.04044,0.04044 -0.113862,0.03573 -0.154297,0.07617 -0.0081,0.0081 -0.0039,0.0722 0,0.134766 L 58.5,62.699219 l -2.300781,6.5 -3.199219,10 -3.199219,6.5 -5,14.101562 -6.5,13.599609 L 30.199219,126 28.300781,128.90039 27.5,137.5 l -1.300781,6 2.394531,3.08984 c -0.01961,0.0167 -0.04337,0.0321 -0.05469,0.0547 -0.02287,0.0457 0.03617,0.11616 0,0.15235 -0.01808,0.0181 -0.05809,-0.0181 -0.07617,0 -0.01808,0.0181 0.01144,0.0533 0,0.0762 -0.01617,0.0324 -0.06,0.0458 -0.07617,0.0781 -0.0265,0.053 0.02693,0.35588 0,0.38281 -0.01808,0.0181 -0.05809,-0.0181 -0.07617,0 0,0.20458 0.02416,-0.0261 -0.07813,0.0762 -0.03836,0.0384 0.03836,0.19212 0,0.23046 -0.01808,0.0181 -0.05809,-0.0181 -0.07617,0 -0.01808,0.0181 0.01808,0.0581 0,0.0762 -0.01808,0.0181 -0.05809,-0.0181 -0.07617,0 -0.03836,0.0384 0.03836,0.19211 0,0.23047 -0.01808,0.0181 -0.06001,-0.0181 -0.07813,0 -0.02376,0.0237 0.02376,0.36101 0,0.38476 -0.01808,0.0181 -0.05809,-0.0181 -0.07617,0 -0.0035,0.003 0,0.34664 0,0.38281 v 0.69141 0.0762 c 0,0.0256 -0.01808,0.0581 0,0.0762 0.03,0.03 0.08319,0.002 0.126953,0.002 l -1.152343,3.33984 -0.201172,7.40039 -5.199219,11.79883 -3.099609,2.59961 -0.300782,1.10156 -1.798828,0.79883 -1.5,4.20117 L 14,184 l 2.699219,4.19922 1.601562,4.20117 1.09961,3.59961 -0.300782,6.5 -1.798828,3.09961 -0.601562,5.80078 -1,3.69922 L 17.5,219 l 2.699219,4.5 2.300781,4.80078 1.300781,4 L 23.5,235.5 23.199219,236 v 2.09961 l 5.701172,6.30078 -0.5,2.40039 -0.59961,2.29883 -0.601562,1.90039 0.201172,8.19922 2.099609,3.70117 1.900391,2.59961 2.699218,0.5 1,2.69922 L 34,272.30078 l -2.099609,1.59961 h -1.09961 L 30,277.80078 l 0.5,2.89844 3.199219,4.40039 1.601562,5.30078 1.5,4.69922 1.298828,3.09961 L 41.5,304 l 1.5,2.59961 0.5,2.90039 1.599609,1 v 2.40039 l -0.798828,1.90039 -1.800781,7.09961 -0.5,1.90039 2.400391,2.69922 4.199218,0.5 4.5,1.80078 L 57,330.90039 h 2.900391 l 2.90039,3.09961 2.59961,4.80078 1.099609,2.29883 3.900391,2.09961 4.798828,0.80078 1.5,2.09961 0.601562,3.20117 -1.5,0.59961 0.298828,1 3.201172,0.79883 2.699219,0.20117 2.900391,4.69922 3.90039,4.20117 0.798828,2.29883 2.59961,4.20117 L 92.5,370.5 v 9.40039 l 0.5,1.79883 10,1.5 19.69922,2.70117 14.20117,0.90039 3.90039,-0.60156 1.39844,-2 0.40039,-1.59961 -3,-0.29883 -1,-1.70117 0.59961,-1.90039 0.10156,-6.19922 2.29883,-1.09961 2.59961,-2.5 0.5,-4.70117 1.70117,-3.89844 1.90039,-2.10156 3.39844,-1.59961 1.40039,-1 0.20117,-1.40039 -0.70117,-0.59961 -1,-1.5 -1.09961,-5.40039 -2.80078,-5.19922 0.40039,-3.09961 v -0.002 l 0.3457,-1.28321 0.0547,0.084 1.09961,-1.79883 0.0859,-2.14453 c 0.014,-5.3e-4 0.0329,0.01 0.043,0 0.0512,-0.0512 0,-0.14447 0,-0.2168 v -0.21875 -0.43359 c -0.003,0 -0.005,-0.005 -0.008,-0.006 l 0.002,-0.0254 c 0.002,0.01 0.006,0.0229 0.006,0.0312 0.0715,0 0.0718,-0.2103 0.002,-0.21484 L 150.09961,323 l 0.30078,-1.5 0.29883,-7.30078 1.80078,-1.29883 0.90039,-0.80078 1.79883,-0.0996 1.30078,1.09961 2.80078,0.5 1.19922,2.59961 1.59961,0.10156 1.70117,-3.10156 2.59961,-16.39844 2.09961,-11.10156 3.30078,-15.5 5.39844,-29.79883 10.60156,-53.09961 -0.37109,-0.0742 c -0.0154,-0.004 -0.0241,0 0.0703,0 0.0238,-0.0238 -0.0238,-0.35901 0,-0.38281 0.0404,-0.0404 0.1139,-0.0358 0.1543,-0.0762 0.0362,-0.0362 -0.0362,-0.1181 0,-0.1543 0.0181,-0.0181 0.0581,0.0181 0.0762,0 0.0384,-0.0384 -0.0384,-0.19207 0,-0.23047 0.0181,-0.0181 0.06,0.0181 0.0781,0 0.0241,-0.0241 0.008,-0.0641 0,-0.10156 l 13.5918,2.71875 33.98438,5.95703 0.0566,0.0723 1.71093,0.26562 -1.95312,11.60547 -2,12 27.90039,3 83.30078,9.09961 2.69922,0.30078 4.40039,-44 1.5,-25.40039 1.5,-17.90039 -0.0566,-0.006 0.0371,-0.89648 0.0195,0.002 1.30078,-15.19922 5.29883,-57.130859 L 362,56.570312 331.19922,53.5 302,50 272.69922,46 240.40039,40.699219 222,37.300781 l -32.69922,-6.890625 -0.004,0.01953 -1.00391,-0.189454 0.008,-0.04102 -12.86523,-2.541016 -0.0156,-0.04492 -1.1289,-0.185547 0.01,-0.03711 -15,-3.490234 -23,-5.701172 -20,-5.699219 -8.60156,-1.900391 L 98,7.9003906 Z m -5.5,5.5000004 -1.5,1.599609 -0.5,-1.400391 -2,0.201172 0.5,2.398438 1.5,2.300781 0.701172,-0.599609 0.298828,-1.5 L 88.800781,15.5 c 0,0 -1.5,2.299609 -1.5,2.599609 0,0.3 0.898438,0.201172 0.898438,0.201172 l 1.40039,-0.40039 0.701172,-2 -0.601562,-0.800782 1.5,-1.699218 -0.798828,-1.5 z m -25.798828,47.298828 0.378907,0.06445 c -0.01215,0.01923 0.01715,0.0551 0,0.07227 -0.03617,0.03617 -0.116178,-0.03617 -0.152344,0 -0.01808,0.01808 0.01808,0.06005 0,0.07812 -0.03836,0.03836 -0.192109,-0.03836 -0.230469,0 -0.01808,0.01808 0.01808,0.05809 0,0.07617 -0.03617,0.03617 -0.118131,-0.03617 -0.154297,0 -0.01808,0.01808 0.01808,0.05809 0,0.07617 -0.02376,0.02376 -0.359055,-0.02376 -0.382812,0 -0.01808,0.01808 0.01808,0.05809 0,0.07617 -0.01808,0.01808 -0.0506,0 -0.07617,0 -0.02475,0 -0.100596,0.0014 -0.181641,0 z M 51.900391,336.40039 50.699219,337 l 0.90039,1.5 1.59961,1.59961 4.5,0.20117 0.90039,-0.60156 L 55.5,338.5 Z M 45.5,337 l 0.599609,1.5 0.59961,1.19922 3.201172,0.10156 L 50.099609,338.5 48.800781,337 Z m 26.900391,18.40039 -1.09961,0.19922 v 1.20117 h 0.09961 l 1.798828,2.29883 0.800781,1 1.5,0.59961 0.599609,-1.5 -1,-1.79883 z M 69.5,365.5 v 2.19922 c 0,0.4 0.699219,1.90039 0.699219,1.90039 L 71.5,370.80078 73,370.59961 71.800781,368.69922 70,365.5 Z m 43.80078,68 -2.70117,3.09961 -4.5,0.20117 -1,-0.80078 -1.09961,0.19922 -3.69922,2.10156 -2.701171,0.59961 -1.599609,-1 -3.699219,2.40039 -1.101562,3.09961 L 87.5,447 83.300781,447.19922 81.5,446.59961 h -3.199219 l -2.90039,1.90039 2.40039,4.19922 2.898438,4.70117 L 81.5,461.30078 81,462.90039 81.5,464 l 3.400391,1.90039 -1,0.79883 1,3.20117 2.298828,4.40039 -1.798828,1 -5,-1.80078 -2.701172,-1.59961 0.5,-1.5 1.5,-2.09961 -1.5,-1.10156 -2.59961,-0.29883 -3.90039,0.59961 0.201172,1.59961 h -0.59961 l -1,-1 h -2.101562 l -6.798828,0.5 -0.5,0.80078 1.90039,3.69922 2.09961,1.80078 -0.59961,2.40039 -0.5,3.89844 3.59961,3.70117 5,0.19922 3.599609,1.80078 1.900391,0.5 3.199218,-0.80078 2.59961,-0.79883 1.101562,1.89844 c 0,0 -0.4,0.5 -1,1 -0.7,0.5 -1,3.40039 -1,3.40039 L 82,496.5 l -2.300781,1.30078 h -1.59961 l -1,-0.60156 L 75.5,496.59961 72.300781,499 69.900391,499.30078 69.599609,496.90039 67,495.80078 l -2.699219,1.29883 -1.90039,3.70117 -2.59961,1.59961 -4.5,3.19922 -1,5 1.09961,2.70117 1.298828,-0.5 0.800781,0.5 -1.099609,1.09961 -0.201172,2.09961 -2.09961,0.80078 v 1 l 2.09961,3.59961 0.601562,3.90039 1.5,1.29883 h 6.09961 l 0.798828,-1.5 1,1 V 531 l 0.601562,1.80078 L 65.5,533 l -1.5,1 0.599609,1.90039 -0.5,2.59961 -1.5,1.5 2.59961,0.30078 2.101562,-1.10156 4,-0.19922 0.298828,1.90039 1.09961,0.5 L 74,540.09961 l 1.5,5.80078 1.5,0.19922 0.199219,-2.90039 1,-1 L 79.5,542.5 80.099609,544.90039 83.5,544.30078 85.099609,543 l -0.298828,2.59961 -1.601562,1.5 -2.298828,4.5 L 79,555.30078 l -4,1.5 L 73.699219,560.5 H 72.900391 L 72.300781,560 71,560.30078 l -3.400391,0.59961 -3.099609,1 -2.300781,2.69922 -1,0.30078 -1.59961,-1.30078 -2.699218,-0.19922 -1.800782,0.79883 -2.90039,0.60156 -2.09961,2.09961 -4.40039,1.59961 -6.298828,-0.59961 -3.09961,1.29883 v 1.90039 l 1.59961,1.09961 1,-1 2.298828,-0.59961 2.601562,1.09961 L 45.900391,572 47.5,571.19922 l 2.099609,-1.29883 h 3.201172 L 55.699219,568 l 3.40039,1.30078 2.900391,-1 3.599609,-1.30078 -0.298828,2.40039 h 1 l 0.798828,-2.30078 3.201172,-0.19922 2.699219,1 0.5,-1.09961 1.5,-1.5 L 73.199219,564 78.5,561.69922 l 5.300781,-1.09961 2.09961,-1.09961 7.798828,-4.19922 6.500001,-4.20117 2.70117,-3.19922 -0.80078,-2.09961 -2.298829,-1 0.298829,-1.60156 3.09961,-2.59961 4.20117,-1.5 1.09961,-2.29883 1.80078,-2.60156 2.39844,-3.39844 5,-2.70117 3.70117,0.30078 L 122.69922,531 H 120 l -1,-1.30078 -4.40039,2.30078 -0.19922,0.80078 v 1.79883 l -2.30078,3.90039 -1,2.40039 2.30078,0.59961 v 1.30078 l -3.70117,0.59961 0.5,2.09961 4.70117,0.19922 3.40039,-2.09961 1.79883,-2.09961 3.09961,-2.09961 2.70117,1.79883 1.29883,-1.09961 1.30078,0.80078 0.5,1.90039 1.30078,0.29883 3.89844,-4.40039 -0.59961,-1.59961 -3.19922,2.70117 1.5,-4.40039 -1,-0.30078 -1.09961,2.90039 -0.5,-4.5 3.59961,-1.5 3.59961,-0.30078 2.69922,5.80078 2.10156,0.30078 6.5,3.89844 0.59961,-0.5 h 5.5 l 5.69922,2.40039 3.70117,1.09961 2.89844,-1.09961 L 168,542 v 1.59961 l -1.30078,3.20117 4,2.59961 L 175.5,552 l 2.59961,2.90039 3.40039,2.40039 2.59961,-0.60156 0.5,0.30078 -2.09961,1.30078 v 2.29883 l 1.59961,1.09961 1.59961,2.90039 0.60156,3.70117 2.09961,0.5 3.59961,6 1.5,1.29883 V 575 l -0.30078,-5.69922 0.80078,0.5 0.59961,3.69922 1,3.69922 1.09961,-0.5 0.80078,-3.39844 h 0.80078 v 5 l 1.5,1.5 L 198,581.69922 c 0,0 0.70078,1.2 1.30078,1.5 0.7,0.3 1,-1 1,-1 l 1,2.30078 c 0,0 1.59961,2.80039 2.09961,3.40039 0.5,0.7 1.29883,1 1.29883,1 l 0.80078,-0.80078 -1.30078,-1.79883 -0.5,-1.60156 2.10156,1.30078 1.89844,1.90039 1.10156,-0.5 -0.20117,-3.70117 -1.5,-2.69922 0.80078,-0.80078 1.79883,1.10156 2.70117,1.5 1.5,3.09961 1.59961,0.79883 1.80078,-2.29883 1,-3.40039 -0.5,-3.09961 -1,-4.40039 -5.20117,-2.09961 -5,-1.80078 -1.5,-3.69922 -2.29883,-2.70117 -2.70117,-3.89844 -3.40039,-6 L 192.80078,551.5 191.69922,549.09961 189.80078,548 189.19922,545.09961 186.09961,543 l -1.90039,1.5 -1.09961,0.19922 -1.5,1.60156 -0.29883,3.09961 -0.60156,0.19922 -3.39844,1.90039 -0.5,-2.59961 -7,-6.80078 -0.20117,-2.90039 H 167 l -1.5,1.10156 -3.09961,-0.20117 -1.59961,-1 0.29883,-85.40039 -4.5,-2.69922 -4.79883,-1.90039 -1.90039,0.80078 -2.09961,0.59961 -5.20117,-2.59961 -1.5,1 -6.29883,-4.20117 -7.10156,-0.59961 -1.89844,-1.5 L 125.5,438.90039 121.59961,438.59961 120,440.19922 119.40039,439.09961 119.90039,438 118,435.90039 114.40039,433.5 Z M 40.599609,478.09961 38.800781,480.5 39,483.09961 h 2.400391 l 1.798828,1.5 1.800781,4 2.900391,0.30078 0.199218,-1 L 46,482.59961 43.199219,482 l -1.5,-1.5 z M 21.699219,502 v 1.90039 L 23.800781,507 l 1.09961,-0.80078 -1.09961,-1.59961 L 22.699219,502 Z m 226.601561,8.09961 -4,1.80078 -1,3.69922 6.09961,2.59961 L 251.5,517.90039 253.09961,514 252.5,510.59961 Z m -11,5.30078 -2.30078,0.29883 -1.90039,3.60156 H 235.5 l 2.09961,-3.10156 z m -193.900389,0.69922 0.09961,2.70117 3.400391,3.59961 3.099609,0.19922 1.599609,-3.69922 -0.798828,-1 -3.701172,-1 z M 280.5,520.80078 l -5.80078,2.89844 -0.69922,1.90039 3.69922,5.5 2.40039,-0.29883 1.09961,-0.5 1.5,1.29883 3.70117,-0.19922 1,-1.5 -2.90039,-1.80078 -1.90039,-3.69922 z m 15,11.79883 -1.30078,1.90039 5.40039,1.69922 L 304,536.5 l 2.59961,-1.5 0.30078,-1.30078 -6.09961,-0.59961 -0.60156,0.5 z m 13.30078,3 L 306.5,538.5 l 5,6.5 2.40039,1.5 4.79883,-1 3.60156,-1.80078 v -1.89844 L 317.90039,539.09961 313.5,538 Z m -171.90039,0.5 -1.80078,1 0.40039,2.30078 2.40039,-1.5 z M 299.5,538.5 v 1.19922 l 1.90039,3.90039 L 304.5,542.5 l 0.30078,-1.59961 -1.60156,-2.09961 z m -192.69922,11.19922 -2.70117,1.90039 -4.699219,3.59961 -4.800782,2.90039 -1.40039,1.09961 1.101562,5.80078 2.898438,0.80078 5.000001,-2.90039 4.40039,-2.59961 L 105,557.90039 105.5,555.5 103.40039,556.80078 100.5,556 l 1.59961,-1.09961 1.90039,0.79883 3.90039,-1.79883 0.5,-1.5 L 106,551.59961 Z m 217.89844,3.10156 -1.59961,1.29883 0.0996,2 1.60156,1.80078 -0.5,1 -2.10156,3.09961 -2.29883,1 0.19922,2.59961 2.09961,1.80078 1.60156,5.69922 -0.60156,2.40039 0.30078,4.5 3.59961,2.59961 1.80078,0.20117 2.29883,-2.90039 2.40039,-3.20117 3.09961,-1.79883 1.5,0.59961 4.20117,-1.5 3.90039,-3.19922 0.29883,-1.30078 -4,-2.59961 L 340.69921,562.5 339.0996,560.09961 335.69921,558 328.0996,554.40039 Z m -264.599611,16.79883 -2.199218,1 L 59.5,572.5 l 2.099609,-1.59961 z m -35,0.5 -2.699218,0.59961 0.298828,1.60156 -1.898438,1.89844 -1.90039,-0.5 -0.5,-1.59961 -2.59961,-0.29883 -3.40039,1 L 9,575.09961 l 1.099609,0.70117 1.59961,-0.30078 4.40039,-1.5 3.701172,1.09961 2.699219,0.5 L 26.900391,574.5 28,572.69922 Z m 61,0.40039 -1.699218,1.19922 1.5,1.80078 1,-1.09961 z M 61.900391,571.30078 60.847656,573.5 h 2.351563 L 64,571.59961 Z M 60.847656,573.5 h -0.04687 v 0.0996 z"
       id="WE"
       inkscape:connector-curvature="0" />
    <path
       style="fill:#ffffff;fill-opacity:1"
       d="m 891.5,36.900391 -1.80078,1.798828 -4,2.90039 v 1 l -0.79883,0.800782 -2.70117,-0.59961 L 880.90039,40.5 v -1.099609 l -1.30078,-0.201172 h -1.29883 l -2.10156,4.201172 -2.89844,8.90039 -1.80078,4.798828 0.19922,4.800782 0.20117,1.5 -0.80078,2.699218 -0.79883,1 v 6 l 1.89844,2.400391 -1.5,4 -2.59961,4.699219 -0.73438,5.05664 -0.0644,-0.02344 v 2.626953 l -1.5,-0.404297 -1.30078,0.171875 0.15039,0.486328 -1.08984,0.304688 -0.0606,-0.197266 -0.69922,0.08008 -0.25781,0.685547 -0.56641,0.728516 -0.37695,-0.314453 -1,-1 -1.5,1.90039 -0.19922,2.289063 0.16016,2.691406 -1.69727,0.519531 -22.2168,5.78125 -4.14453,1.03516 -0.002,-0.0176 -0.40234,0.11914 -1.93555,0.48437 -0.27734,0.17383 -4.78516,1.42383 -4.5,1.5 -3.19922,-0.20117 -5.5,1.30078 -3.09961,1.19922 -2.40039,1.80078 -2.09961,2.40039 -2.70117,3.69922 -2.90039,4.5 -1.5,2.90039 -0.59961,0.79883 -5.79883,5.5 0.19922,2.60156 0.80078,1.09961 1.79883,0.79883 h 1.80078 v 1.5 l -1.09961,2.10156 0.29883,1.5 1.5,2.09961 -0.19922,2.29883 -1.90039,1.10156 h -2.09961 l -1.59961,1.89844 -1.80078,3.20117 -2.09961,1.79883 -5.20117,0.5 -2.59961,1.10156 -2.09961,1.29883 -1.59961,-0.19922 -1.90039,-1.30078 -6.30078,0.20117 -3.19922,0.5 -4,1.29883 -4.40039,1.5 -2.90039,1.80078 1.90039,6.09961 1.80078,0.19922 1.29883,3.10156 0.20117,1 -1.09961,1 -2.10156,2.69922 -0.5,1.59961 -1.89844,1.80078 L 748.5,181.5 l -1,1.59961 -0.98242,0.83008 h -0.01 l -0.76367,0.61133 -1.14453,0.85937 0.004,0.0527 -0.99805,0.79883 -0.006,-0.0527 -0.35156,0.33789 -0.98633,0.79101 -0.11328,0.27149 -4.24805,4.09961 -1.30078,0.5 -4.19922,2.60156 4.29883,25.89844 5.10156,22.40039 3.89844,-0.69922 L 757,241 l 0.46289,-0.0937 0.0996,0.98242 -0.0625,0.0117 0.13086,0.68359 0.0606,0.59961 0.0586,0.0137 1.75,9.10351 4.80078,-4.90039 2.5,-0.70117 1.39844,-1.5 L 770,242.5 l 1.59961,0.69922 2.59961,-0.19922 2.60156,-2.09961 2,-1.5 2.09961,-0.59961 1.5,1.09961 2.69922,1.40039 1.90039,1.79883 1.30078,1.40039 4.79883,1.59961 L 792.5,249 l 5.80078,2.09961 0.0449,-0.0547 4.16797,2.44727 -0.51367,0.80859 -0.69922,3.29883 -1.80078,2.59961 v 2.10156 l 0.30078,0.79883 2,1.30078 3.39844,1.09961 4.30078,-0.0996 3.09961,1 2.09961,0.29883 1,-2.09961 -1.5,-2.09961 v -1.80078 l -2.39844,-2.09961 -2.10156,-5.5 1.3008,-5.29883 -0.19922,-2.10156 -1.30078,-1.29883 c 0,0 1.5,-1.60078 1.5,-2.30078 0,-0.6 0.5,-2.09961 0.5,-2.09961 l 1.90039,-1.30078 1.90039,-1.59961 0.5,1 -1.5,1.59961 -1.30078,3.70117 0.30078,1.09961 1.79883,0.30078 0.5,5.5 -2.09961,1 0.30078,3.59961 0.5,-0.20117 1.09961,-1.89844 1.59961,1.79883 -1.59961,1.30078 -0.30078,3.40039 2.59961,3.39844 3.90039,0.5 1.59961,-0.79883 3.20117,4.19922 1,0.40039 7.40039,-2.90039 1.69922,-3.79883 0.44336,-4.24805 0.0937,-0.18945 -0.0547,-0.19922 L 837,255.5 l -0.0586,0.01 -0.27539,-1.00391 0.0332,-0.006 -0.25391,-0.80859 -0.20898,-0.76368 -0.0469,-0.0469 -1.78906,-5.68164 -1,0.5 -3.59961,-2.39844 L 828,240.59961 826.09961,237 l -2.29883,-1 -2.10156,-3.59961 0.5,-2 0.5,-2.30078 0.0859,-0.92188 1.0039,-0.18945 -0.0898,1.3125 -0.69922,2.59961 1,2 3.19922,2.90039 4.80078,2.29883 4,0.59961 0.19922,1.5 -0.79883,1 0.29883,2.70117 H 836.5 l 2.09961,-2.40039 0.80078,-4.80078 2.69922,-4 3.09961,-6.5 1.10156,-5.5 -0.60156,-1.09961 -0.19922,-9.40039 -1.59961,-3.39844 -1.09961,0.79883 -2.70117,0.30078 -0.5,-0.5 1.09961,-1 2.10156,-1.90039 -0.0488,-0.54688 0.94727,-0.16406 v 0.0117 l 1,0.39844 4,-1.09961 5.80078,-1.90039 2.59961,-1 7.09961,-5.29883 3.90039,-2.90039 3.40039,-3.59961 -4.19922,-1.59961 -1.30078,1.5 -2.90039,2.69922 -7.90039,3.90039 -2.29883,-0.20117 -1.59961,-0.59961 -1.10156,0.59961 -2.29883,2.60156 -1.5,1.29883 -1.30078,0.30078 -0.29883,-1.30078 1.89844,-1.79883 -0.39844,-0.7168 0.86328,-0.89453 4.83594,-3.28906 3.59961,-3.20117 1.90039,-2.09961 0.80078,0.59961 2.69922,-1.5 5.19922,-1.09961 7,-3.5 -0.002,-0.01 1.00976,-0.26953 0.0215,-0.0312 L 877,178.69922 879.40039,176.80078 880.5,175 l 1.30078,0.19922 0.39453,-0.19727 0.0195,0.0137 3.94727,-1.9414 0.0547,-0.0234 0.002,0.0957 0.11914,-0.14843 L 887.5,172.5 l -0.5,-2.30078 0.80078,-1.5 2.89844,-1.5 0.80078,3.10156 -0.5,1.79883 -2.40039,1.5 v 1 l 1.90039,-1.5 3.90039,-4.5 3.90039,-1.90039 4.19922,-1.5 -0.30078,-2.39844 -1,-2.90039 -1.89844,-2.40039 -1.80078,-0.80078 -2.09961,0.20117 -0.5,0.5 1,1.29883 1.5,-0.79883 L 899.5,159.5 900.30078,162.19922 898.5,164 l -2.30078,1 -3.59961,-0.5 -3.90039,-6 -2.29883,-2.59961 h -1.80078 l -1.09961,0.79883 -1.90039,-2.59961 0.30078,-1.5 2.40039,-5.19922 -2.75,-4.17187 -0.67578,-1.07032 0.125,-0.0586 0.69922,-0.79883 0.73437,-2.13476 0.082,-0.15235 0.0898,-0.3457 0.19531,-0.56836 -0.043,-0.0195 0.26172,-1.01367 0.0801,0.0332 1.09961,-6.36133 0.20117,-4.44336 1.5,-1.31445 -1,-3.23047 3.09961,-3.63477 1.59961,1.51563 1.30078,-0.50586 5.29883,-3.13086 0.30078,-2.92773 2.90039,-0.50586 L 901,109.93359 900.80078,108.31836 900.5,105.18945 901.30078,103.875 901,102.76367 l -1.10547,-1.28515 1.90625,-1.17774 1.79883,3.19922 1.5,-0.30078 0.30078,1.30078 v 1.59961 l 1.90039,0.20117 0.5,-2.70117 0.5,-0.59961 -1.60156,-1.5 1,-1.5 2.40039,-1.5 1,-1.5 1.80078,-0.199219 c 0,0 0.4,2.09961 1,2.09961 h 1.29883 l 4.80078,-5.5 3.40039,-3.09961 1.90039,-0.601562 L 927.40039,85 v -1.900391 l -2.30078,-3.699218 -1.90039,-2.09961 -2.79883,0.5 0.5,1.09961 -0.20117,0.5 h -0.79883 L 917,77.099609 916.80078,72.300781 916,70.400391 h -6 L 900.90039,40.5 899,39.5 893,37.099609 Z m 20.90039,61.798828 -2,0.701172 L 909,101.59961 910.80078,103.5 c 0,0 1.29883,0.10078 1.29883,-0.19922 0,-0.3 0.20117,-2 0.20117,-2 L 913.19922,100.5 Z m -8.59961,6.994141 -1.5,1.51562 1.79883,2.92774 1.70117,-0.9082 -0.60156,-2.42383 z m -1.10156,65.80664 -0.5,1.69922 -2.19922,0.70117 -0.5,0.59961 3.90039,-0.0996 1.29883,-0.5 -1,-2.30078 z m -9.79883,0.59961 -2.30078,2.59961 1.09961,0.90039 2.20117,-1 2.40039,-1 -1.80078,-1.5 z m -70.70117,91.80078 -1.89844,0.40039 1.09961,2.5 0.19922,1.79883 1.09961,1.90039 c 0,0 0.90039,-0.89922 0.90039,-1.19922 0,-0.3 -0.69922,-3.10156 -0.69922,-3.10156 z"
       id="NE"
       inkscape:connector-curvature="0" />
    <rect
       style="opacity:1;fill:#ffffff;fill-opacity:1;"
       id="OV"
       width="128"
       height="128"
       x="810.14423"
       y="373.95633"
       rx="64"
       ry="64" />
    <path
       style="fill:#ffffff;fill-opacity:1"
       d="m 736.69922,224.90039 -0.79883,0.69922 -0.90039,1.30078 1.09961,3 v 4.90039 l -0.5,4.79883 -0.19922,5.59961 -2.40039,4.10156 -3.09961,3.39844 -2.59961,1.80078 -2,-0.5 -1.20117,1.30078 L 721,259.90039 V 261.5 l 1,3.09961 -1.09961,1.30078 -1.70117,-0.5 -1,-1.09961 -0.39844,-0.30078 -1.10156,0.69922 -0.89844,3.60156 L 715.69922,273.5 714,275 v 2.19922 l -1.80078,1 -2.38086,0.19922 -1.83203,-0.79297 L 705.90039,276 704,274.90039 l -0.5,-2.30078 -1.30078,0.20117 -2,1.19922 -2.5,2.69922 -1.89844,-1.69922 -2.5,-0.5 -2.40039,1.40039 h -2.30078 l -1.79883,-2 -5.60156,-0.0996 -1.79883,-4.5 -2.90039,-1.5 -2.09961,0.79883 -4.20117,0.20117 -0.5,2.09961 1.20117,1.5 0.29883,2.09961 -2.79883,2 -3.80078,1.80078 -2.59961,0.39844 -0.5,4.5 -4.90039,3.60156 L 654,290.5 l 0.19922,2.19922 -0.89844,2.30078 -4.5,-0.0996 -1.30078,-1.30078 -3.90039,2.20117 0.20117,3.29883 -2.40039,0.59961 -0.80078,-1.39844 -1.69922,-1.20117 -2.70117,1.09961 -1.79883,3.5 -2.20117,-1 -1.39844,-1.59961 -3.70117,0.40039 -5.59961,1 -2.80078,1.30078 -1.19922,3.39844 -1,1 1.5,3.70117 -4.19922,1.40039 -1.90039,1.39844 -0.40039,2.20117 1.19922,2.40039 V 319.5 l -1.59961,0.40039 -6.09961,-2.5 -2.30078,0.90039 -2,1.39844 -0.79883,1.80078 1.69922,2.40039 -0.90039,1.79883 -0.0996,3.30078 -2.40039,1.30078 -2.09961,1.69922 0.33594,-0.006 -1.37305,1.00391 -0.16211,0.002 -0.30078,0.19922 -0.5,5.60156 -1.79492,5.6836 -3.11524,1.06835 -0.0664,0.0547 -1.82227,0.49219 -6.40039,-0.69922 0.90039,-3.09961 3.09961,-2.60156 0.59961,-2.29883 -1.80078,-2.90039 -31.89844,1.19922 -23.30078,0.70117 -23.59961,0.29883 1.5,6.90039 0.0996,8.5 1.40039,10.90039 0.29883,38.19922 2.10156,1.60156 3,-1.20117 2.89844,1.20117 0.40039,10.09961 h 0.0352 l 0.0117,0.90039 h -0.0469 L 517,423.5 l 0.69922,9.5 0.5,3.69922 2.60156,4.5 0.89844,4.40039 4.30078,6 0.30078,3.09961 0.59961,0.80078 -0.70117,8.30078 -2.79883,4.59961 1.19922,2.40039 -0.5,2.59961 -0.79883,7.29883 -1.30078,3 0.19922,3.70117 4.70117,-1.5 8.09961,-0.30078 10.30078,3.59961 6.5,1.10156 3.69922,-1.5 3.19922,1.09961 3.20117,1 0.79883,-2.09961 -3.19922,-1.10156 -2.59961,0.5 -2.70117,-1.59961 0.80078,-1.5 3.09961,-1 1.80078,1.5 1.79883,-1 3.20117,0.59961 1.5,2.40039 0.29883,2.30078 4.5,0.29883 L 573,492 l -0.80078,1.59961 -1.29883,0.80078 L 572.5,496 l 8.40039,3.59961 3.59961,-1.29883 1,-2.40039 2.59961,-0.59961 1.80078,-1.5 1.29883,1 0.80078,2.89844 -2.30078,0.80078 0.60156,0.59961 3.39844,-1.29883 2.30078,-3.40039 0.80078,-0.5 -2.10156,-0.30078 L 595.5,492 l -0.19922,-1.5 2.09961,-0.5 1.09961,-1.30078 0.59961,0.80078 0.59961,3.09961 4.20117,0.59961 4,1.90039 1,1.5 h 2.90039 l 1.09961,1 2.29883,-3.09961 V 493 h -1.29883 L 610.5,490.30078 604.69922,489.5 601.5,487.19922 602.59961,484.5 l 2.30078,0.30078 0.19922,-0.60156 -1.79883,-1 v -0.5 H 606.5 l 1.80078,-3.09961 L 607,477.69922 606.69922,475 l -1.5,0.19922 -1.89844,2.10156 -0.60156,2.59961 -3.09961,-0.59961 -1,-1.80078 1.80078,-1.90039 1.42969,-1.27734 1.34961,-1.07618 0.0195,0.0547 1.10156,-0.80078 0.17774,-0.28711 0.37304,-0.29687 0.0156,-0.33008 2.0332,-3.28516 1.79883,0.79883 6.80078,-1.90039 2.09961,0.30078 1.5,0.80078 h 5.20117 l 0.39844,-1.60156 -0.008,-0.0664 0.90429,-0.26562 0.004,0.0332 H 628.5 l 0.59961,0.19922 1.30078,-2.69922 1.5,-4.40039 2.29883,0.59961 3.10156,6 v 1 L 634.59961,469 l 2.70117,0.30078 4.45313,-2.14062 1.74609,-0.17188 V 467 l 0.14648,-0.0273 1.07813,-0.10547 0.0723,-0.10352 2.0039,-0.36328 6,-2.09961 6,-0.5 4.39844,-0.60156 7.60156,1.80078 8.09961,3.90039 1.59961,1.5 2.90039,1.09961 1.59961,1.90039 0.30078,2.69922 3.19922,-1.29883 h 3.90039 L 696,472.90039 l 3.69922,-3.59961 3.10156,0.19922 0.5,-1.09961 -0.80078,-1 0.19922,-1.90039 4,-0.80078 h 2.60156 l 2.89844,1.5 4.20117,1.5 2.40039,3.70117 2.69922,1 1.09961,3.40039 L 726,477.40039 727.59961,480 729.5,480.59961 734.69922,481.90039 736,485 l 3,3.69922 v 9.5 l -1.5,4.70117 0.30078,2.69922 1.29883,4.80078 1.80078,4 0.79883,-0.5 1.5,-4.5 -2.59961,-1 -0.29883,-0.59961 1.59961,-0.60156 4.5,1 0.19922,1.60156 -3.19922,5.5 -2.09961,2.39844 3.59961,3.70117 2.59961,3.09961 2.90039,5.30078 2.90039,3.89844 2.09961,5 1.79883,0.30078 1.60156,-2.09961 1.79883,1.09961 2.59961,4 0.60156,3.59961 3.09961,4.40039 0.79883,-1.30078 3.90039,0.30078 3.59961,2.30078 3.40039,5.19922 0.80078,3.40039 0.29883,2.90039 1.10156,1 1.29883,0.5 2.40039,-1 1.5,-1.60156 L 789.90039,561.5 793,560 l 2.69922,-3.19922 -0.5,-1.90039 -0.29883,-2.40039 0.59961,-1.90039 -0.30078,-1.90039 2.40039,-1.29883 0.30078,-3.40039 -0.59961,-1.80078 -0.5,-12 -1.30078,-7.59961 -4.5,-8.19922 -3.59961,-5.80078 -2.59961,-5.29883 -2.90039,-2.90039 L 779,493 l 0.69922,-1.40039 1.10156,-1.29883 -1.60156,-2.90039 -4,-3.70117 -4.79883,-5.5 -3.70117,-6.29883 -5.29883,-9.40039 -3.70117,-9.69922 -2.04492,-6.49414 -0.61328,-3.85352 -0.54102,-4.2539 2.30078,-10 1.5,-4.19922 -0.5,-2.59961 3.29883,-6.20117 -0.35352,-1.05664 1.23243,-1.98438 1.52148,-1.05859 5,-5.29883 -1,-3.20117 2.90039,-0.19922 L 774,399 l 1.59961,-0.80078 2.30078,-3.39844 2.69922,-2.70117 2.09961,-3.59961 2.40039,-0.59961 1.09961,-2.70117 1.60156,-0.79883 0.5,-6.30078 2.59961,-6.09961 5.05469,-5.15234 2.77734,-1.3418 0.0273,-0.0527 L 802,364.5 l 4.69922,-0.5 0.5,-2.40039 1.90039,-6.5 3.40039,-4.69922 6.5,-5.30078 5.19922,-2.40039 2.70117,-0.59961 1.09961,0.5 h 1.30078 l 3.09961,-4.79883 1.90039,-3.60156 -1.30078,0.5 -2.30078,2.30078 -0.59961,-1.59961 h -4.19922 l 1.90039,-6.30078 L 827,327.80078 h -1.90039 v -1 l -0.29883,-1.30078 1.59961,1.30078 1.5,0.19922 2.40039,0.30078 3.69922,-1.60156 1.30078,-2.89844 0.59961,-2.10156 2.59961,-1.29883 0.30078,-4.20117 -0.80078,-0.59961 2.40039,-0.19922 -0.59961,-2.30078 -2.40039,-2.40039 -3.59961,-6.5 -2,-4.79883 -0.15625,0.0332 -0.46875,-0.90625 0.125,-0.0273 -3.70117,-6.19922 -5.79883,1.69922 -1.60156,-1.5 2.60156,-1.40039 -0.5,-2.5 -1.80078,-1.79883 -0.0996,-1.40039 -2.30078,-1.5 -0.0996,-1.59961 2.69922,0.0996 0.20117,-1.40039 -1.20117,-0.80078 0.5,-1.89844 -1.39844,-1.10156 0.39844,-4.69922 -0.89844,-1.19922 -3.20117,-0.40039 -2.19922,-2.09961 -4.90039,-0.90039 -2.90039,-1 -3.90039,-1.40039 -2,-1.30078 -0.5,-2.39844 0.5,-1.70117 1.30078,-1.29883 0.80078,-3.30078 -1.40039,-1.80078 -8.59961,-3.09961 0.59961,-2.90039 -2.7793,-0.98047 L 787.5176,244.918 784.59961,242 782,240.80078 l -1.30078,-1 -1.5,0.5 -4.59961,3.59961 -3.09961,0.19922 -1.09961,-0.29883 -1.5,2.19922 -1.59961,1.5 -2.60156,0.80078 -5.79883,6 L 756.5,242.09961 745.30078,243.40039 741,244.19922 Z m 98,40.29883 -5.89844,2.30078 0.0996,1.69922 -0.70117,3.30078 -1.59961,4.19922 -0.40039,5.40039 1.5,4.59961 2.20117,-1.89844 1.79883,-5 -0.5,-3.40039 0.40039,-4.59961 L 834.5,268 Z m 6.80078,48.10156 -0.69922,0.19922 0.59961,1.90039 1.5,2.29883 0.59961,6.10156 -0.19922,2 -1.5,0.59961 L 838.59961,329 836,331.5 l 1.09961,0.19922 1.09961,-1.19922 2.80078,-2.40039 3.40039,-1.5 0.19922,-3.40039 -0.40039,-4.39844 z m -43.5,238.79883 -0.69922,0.5 -1,2.80078 -1.5,4.59961 -3.20117,5.30078 -4.40039,4.19922 -3.39844,1.90039 -2.40039,1.5 1.19922,1.09961 2.70117,-2.09961 5.29883,-4.20117 3.70117,-3.89844 2.5,-6.60156 1,-1.69922 z m -22.59961,21.09961 -2.30078,1.60156 -1.5,2.29883 -1.29883,0.20117 -2.40039,0.59961 0.90039,1.09961 2.29883,-1.19922 4.20117,-1.5 3.5,-1.20117 -0.40039,-1.09961 -1.70117,-0.30078 z"
       id="SE"
       inkscape:connector-curvature="0" />
    <path
       style="fill:#ffffff;fill-opacity:1"
       d="m 188.80078,187.5 -10.60156,52.90039 -5.39844,30 L 169.5,285.80078 167.80078,295 l 0.008,0.002 -0.36718,1.55274 0.0215,0.0976 -0.0625,0.34766 -2.59961,16.5 -2.10156,3.80078 -2.79883,-0.20117 L 158.69943,314.5 156.09982,314.09961 154.9006,313 l -1.09961,0.0996 -2.10156,1.70117 -0.29883,6.79883 -0.30078,1.5 -0.5,12.5 -1.5,2.40039 -0.40039,3.30078 2.80078,5 1.09961,5.5 0.70117,1.09961 1.09961,0.90039 -0.40039,2.39844 -1.69922,1.20117 -3.40039,1.59961 -1.59961,1.80078 -1.60156,3.59961 -0.5,4.90039 -3,2.89844 -1.89844,0.90039 -0.10156,5.80078 -0.59961,1.59961 0.5,0.80078 3.90039,0.39844 -0.90039,3 -1.69922,2.40039 -3.70117,0.40039 -2.59961,2.19922 -0.29883,1.5 0.5,1 18.89844,10.70117 12.10156,7.59961 14.69922,8.59961 16.80078,10 12.29883,2.40039 23.98633,2.54883 2.41601,0.34375 -0.002,0.008 0.50586,0.0644 1.66406,0.23633 0.01,-0.0254 13.62109,1.72461 1.19922,-9.59961 16.69922,2.59961 10.94336,1.3457 3.63672,0.66016 0.32031,0.0937 2.59961,2.90039 1.5,4.40039 4.70117,2.29883 1.29883,3.20117 7.10156,7.89844 1.29883,1.60156 5,2.09961 1.09961,2.09961 1.60156,1 0.5,2.69922 3.19922,6.5 v 8.10156 l 2.30078,4.69922 7.39844,7.80078 5.20117,2.09961 1.79883,1.90039 v 0.59961 l 3.90039,2.29883 1.90039,0.60156 1.80078,1.09961 2.59961,1 2.40039,-2.40039 4.39844,-6.09961 1,-3.70117 L 352,483 l 3.59961,-1.5 4.5,-1.80078 3.09961,2.30078 7.40039,0.59961 6.80078,1.09961 2.59961,2.10156 v 1.09961 l 2.59961,3.09961 6,5.30078 0.20117,1.5 1.79883,1.89844 0.80078,4.20117 5.29883,12.29883 -0.19922,1.90039 4.19922,2.59961 3.60156,6.60156 3.39844,4.39844 3.20117,1.30078 1.59961,2.30078 -1.30078,4.39844 0.60156,1 1.29883,0.60156 -0.29883,3.39844 -0.60156,0.60156 0.60156,2.29883 L 416,548.5 l 1.30078,6.5 2.09961,3.90039 7.59961,3.40039 5.19922,1.09961 4.20117,3.09961 3.19922,0.59961 1.30078,-0.5 5.5,1.09961 5.69922,3.90039 3.09961,-1.90039 1,-1.5 -1.79883,-2.69922 -1,-6.09961 -1.80078,-7 -0.79883,-2.40039 0.79883,-4.5 1.09961,-3.90039 1.30078,-4.5 1.5,-5.5 -2.30078,-1.90039 1,-1.89844 4,-0.30078 3.90039,-5.5 3.40039,-0.59961 5.80078,-3.59961 1.79883,-1.5 6.30078,-3.40039 5.69922,-2.40039 5.30078,-3.19922 2.69922,-2.10156 5.70117,-5.29883 1.29883,-0.80078 2.09961,-1.5 2.60156,-1.90039 1,-1.89844 9.89844,-4.5 5.60156,-1.60156 L 521,483.5 l 1.30078,-3 0.79883,-7.19922 0.5,-2.40039 -1.29883,-2.59961 2.89844,-4.80078 0.70117,-7.69922 L 525.30078,455 525,451.90039 520.80078,446 519.90039,441.5 517.30078,437.09961 516.69922,433 516,423.5 l -0.69922,-20 -2.10156,-0.80078 -3.09961,1.20117 -2.69922,-2 -0.12109,-0.0684 -0.0898,-2.40234 -0.28906,-36.33008 -1.40039,-10.90039 -0.0996,-8.59961 -1.5,-6.59961 -0.59961,-6.80078 0.0996,-4.29883 -12.59961,0.29883 -46.30078,-0.5 -44.69922,-2.09961 -25.29883,-1.0957 -0.0117,-1.00391 h 0.01 l 5.69922,-86 -36,-3.5 -79.09961,-8.59961 -0.006,0.0508 -0.90039,-0.0976 0.006,-0.0527 -32.19922,-3.5 2.19922,-13.10156 L 236,196.09961 201.30078,190 Z m 276,334.40039 -3.20117,3.59961 -3.5,5.40039 -3.29883,6.90039 -1.5,8.19922 0.59961,7 2.69922,7.19922 0.59961,7.10156 0.90039,-0.30078 -0.19922,-1.5 -0.5,-5.19922 -2.59961,-7.20117 -0.90039,-6.09961 0.29883,-5.19922 2,-6.60156 4.40039,-6.5 4.80078,-6.59961 z"
       id="SW"
       inkscape:connector-curvature="0" />
    <path
       style="fill:#ffffff;fill-opacity:1"
       d="m 493.80078,52.900391 -0.60156,0.199218 -0.29883,8.201172 -30.09961,-0.03125 0.0156,0.04687 -1.00586,0.0059 -0.01,-0.0332 -28.60156,-0.589843 -18.59961,-0.59961 -26.5,-1.298828 L 362.90039,56.640625 362,71.060547 357.30078,122 l 0.0508,0.004 -0.10351,1 -0.0488,-0.004 -0.39844,5 -2.80078,34 -1.46289,24.18945 -0.29688,3.44141 0.30274,0.0781 -4.44336,41.69141 33.19727,3.05859 v 0.24024 l -1.4961,21.10156 0.0664,0.004 -0.0274,0.99804 -0.0391,-0.002 -4.30078,64.79883 24.30078,1 44.69922,2.09961 46.30078,0.60156 L 503.40039,325 v -0.0137 l 0.99805,0.12109 -0.0977,4.89258 0.5,5.69922 L 528.5,335.5 l 23.30078,-0.69922 32.5,-1.30078 2.19922,3.69922 -0.80078,3.10156 -3.09961,2.5 -0.5,1.79883 5.20117,0.5 4.09961,-1.09961 1.69922,-5.30078 0.5,-5.89844 4.20117,-3.40039 1.89844,-1 V 325.5 l 0.70117,-1.59961 -1.05859,-1.53906 -0.28516,-1.4043 0.84375,-1.85742 2.40039,-1.69922 2.79883,-1 6.09961,2.5 0.5,-0.20117 v -1.09961 l -1.19922,-2.69922 0.40039,-2.80078 2.40039,-1.59961 3.39844,-1.19922 -0.5,-1.30078 -0.79883,-2 1.19922,-1.30078 1,-2.69922 v -0.33984 l 1,-0.90039 v 0.041 l 2.5,-1.30078 5.70117,-1 4.39844,-0.5 1.60156,1.80078 L 634,300.40039 635.40039,297.5 639,296 l 2.40039,1.69922 0.5,0.90039 0.90039,-0.19922 -0.20117,-3.09961 5.20117,-3 1.39844,1.69922 h 3.5 l 0.5,-1.40039 -0.19922,-2.40039 2.90039,-4 4.69922,-3.59961 0.5,-4.79883 3.20117,-0.40039 3.59961,-1.70117 2.29883,-1.59961 -0.19922,-1.29883 -1.30078,-1.60156 0.60156,-2.89844 -0.006,-0.043 1.20313,-0.46679 3.70117,-0.19141 2.30078,-0.79883 3.59961,1.79883 1.70117,4.20117 5.39844,0.0996 1.80078,2 h 1.69922 l 2.40039,-1.40039 3.09961,0.5 1.5,1.30078 1.80078,-2 2.30078,-1.40039 2.39844,-0.40039 0.60156,2.69922 1.59961,1 2.59961,2 0.80078,0.20117 2,-0.0996 L 713,276.69922 v -2.09961 l 1.69922,-1.5 0.10156,-4.79883 1.09961,-4.20117 1.90039,-1.29883 1,0.69922 1,1.09961 0.69922,0.20117 0.40039,-0.40039 L 720,261.69922 V 259.5 l 1.09961,-1.40039 2.5,-3.59961 1.30078,-1.5 2.19922,0.5 2.09961,-1.5 3,-3.30078 2.20117,-3.69922 0.19922,-5.40039 0.5,-5 V 230 L 733.90039,226.80078 735.09961,225 736.40039,223.80078 735.80078,221 731.5,195.40039 l -6.19922,3.69922 -3.90039,2.30078 L 718,205.09961 714,209 l -3.19922,0.80078 -2.90039,0.5 -5.5,2.59961 -2.09961,0.19922 -3.40039,-3.09961 -5.20117,0.59961 -2.59961,-1.5 -2.19922,-1.29883 -0.13867,0.0195 -0.87695,-2.05664 0.11523,-0.86328 2.09961,-3.70117 2,-1.69922 -0.19922,-5.09961 1.59961,-1.59961 1.09961,-0.30078 0.20117,-3.59961 1.5,-3 1.09961,0.59961 0.19922,0.59961 0.80078,0.20117 1.90039,-1 -0.40039,-9.10156 L 694.69922,169 692.40039,159.90039 690,156.69922 687.40039,154.90039 685.80078,156 l -3.90039,1.80078 -1.90039,5 -2.69922,3.69922 -1.10156,0.59961 -1.5,-0.59961 c 0,0 -2.59844,-1.49961 -2.39844,-2.09961 0.2,-0.6 0.5,-5 0.5,-5 l 3.39844,-1.30078 L 677,154.69922 677.59961,152.09961 680,150.5 l -0.30078,-10 -1.59961,-2.30078 -1.29883,-0.79883 L 676,135.30078 676.80078,134.5 l 1.59961,0.30078 0.19922,-1.60156 L 676,131 l -1.30078,-2.59961 h -2.59961 l -4.5,-1.5 -5.5,-3.40039 h -2.69922 l -0.59961,0.59961 -1,-0.5 -3.10156,-2.29883 -2.89844,1.79883 -2.90039,2.30078 0.29883,3.59961 1,0.30078 2.10156,0.5 0.5,0.79883 -2.60156,0.80078 -2.59961,0.29883 -1.5,1.80078 -0.29883,2.09961 0.29883,1.59961 0.30078,5.5 -3.59961,2.10156 -0.60156,-0.20117 v -4.19922 L 643.5,138 l 0.59961,-2.40039 -0.79883,-0.79883 -1.90039,0.79883 -1,4.20117 -2.70117,1.09961 -1.79883,1.90039 -0.20117,1 0.60156,0.79883 -0.60156,2.59961 -2.29883,0.5 v 1.10156 l 0.79883,2.39844 -1.09961,6.10156 -1.59961,4 0.59961,4.69922 0.5,1.09961 L 631.80078,169.5 631.5,170.30078 631.19922,173 l 3.60156,6 2.89844,6.5 1.5,4.80078 -0.79883,4.69922 -1,6 -2.40039,5.19922 -0.30078,2.70117 -2.63867,2.55664 -3.48243,2.73828 -0.97851,0.70508 -2.09961,1.90039 -1.09961,0.29883 -1.5,-1 -2.94922,-0.78516 -1.99805,-3.4414 -0.0527,-0.17383 L 616.59961,208 615,206.19922 l -1.5,-2.59961 -0.40039,-5.5 -0.0234,0.002 -0.0312,-0.89648 0.0547,-0.006 0.20117,-3 -1.60156,-4.5 -0.59961,-6.09961 -1.09961,-2.40039 1,-3.09961 0.80078,-2.90039 1.5,-2.59961 -0.60156,-3.40039 -0.59961,-3.59961 0.5,-1.79883 1.90039,-2.40039 0.19922,-2.70117 -0.79883,-1.29883 0.59961,-2.59961 0.5,-3.20117 2.69922,-5.69922 2.90039,-6.80078 0.20117,-2.29883 -0.30078,-1 -0.80078,0.5 -4.19922,6.29883 -2.69922,4 -1.90039,1.80078 -0.80078,2.29883 -1.5,0.80078 -1.09961,1.90039 -1.5,-0.30078 -0.19922,-1.79883 1.29883,-2.40039 2.09961,-4.70117 1.80078,-1.59961 1.09961,-2.29883 -0.0684,-0.041 0.40039,-0.90235 0.0684,0.043 3.19922,-6.90039 1,-4 1.90039,-4.40039 0.80078,-0.19922 L 620.5,125.5 h 0.59961 l 4.5,-2.40039 1.5,1.59961 0.5,0.20117 1.30078,-1.09961 1.09961,-3.10156 2.40039,-0.79883 7,-0.59961 1.90039,-2.60156 L 646.5,116.5 l 5.80078,1.30078 h 1.79883 l 3.20117,-1.5 2.29883,0.19922 2.09961,-0.59961 3.70117,0.5 0.79883,0.29883 1.30078,-0.29883 -1.30078,-1 -1.29883,-0.59961 -3.20117,-3.10156 v -7 l -1.5,-0.5 -1.09961,1.10156 -6.09961,1.59961 -1.90039,0.5 -2.90039,-0.80078 -0.5,-0.29883 v -5.70117 l -1.5,-0.19922 -2.59961,1.29883 -4.5,1.90039 -6.59961,0.30078 -3.40039,1.09961 -4,3.59961 -1.59961,1 h -1.09961 l -1.30078,0.80078 -1.59961,-0.5 -1.59961,-1.30078 -1.5,1 -3.90039,0.20117 -2.69922,-2.70117 -1.5,-3.09961 -1.5,-1.09961 -3.20117,-1 h -2.29883 L 600,100.59961 596.40039,103.5 l -1,1.09961 -0.80078,-0.5 0.30078,-2.59961 2.40039,-3.199219 0.5,-2.40039 2.29883,-0.800782 1.5,-3.099609 3.70117,-1 0.29883,-1 -1.09961,-1.099609 -4.69922,0.5 -4.40039,2.40039 -2.30078,2.298828 -1.29883,1.800782 -1.80078,0.798828 -1.90039,2.90039 -0.19922,1.300781 L 583.5,103 l -2.40039,1.90039 -6,1 L 574.5,106.5 v 1 l -3.59961,2.30078 -2.70117,0.79883 -0.38672,0.27539 -0.12305,-0.0215 -0.17383,0.23437 -0.0156,0.0117 0.004,0.006 -0.64649,0.87109 -0.0566,-0.0762 -0.32226,0.58984 -0.20899,0.28125 -0.0234,0.14258 -0.0469,0.0859 -1.09961,-0.19922 -0.59961,-1.10156 -2.69922,-0.79883 -1.10156,0.19922 -1.79883,1 -1,-0.59961 0.59961,-1.90039 1.90039,-3.09961 1.09961,-1.09961 -1.90039,-1.5 -2.09961,0.79883 -2.90039,1.90039 -7.40039,3.20117 -2.89844,0.59961 -2.90039,-0.5 -0.66601,-0.4668 -0.92969,-0.99023 3.5957,-2.74414 1.29883,-0.19922 4.5,-5 1.80078,-0.800781 2.30078,-3.898438 2.39844,-3.601562 3.10156,-2.59961 4.79883,-2 9.20117,-4.099609 3.89844,-1.800781 0.60156,-2.298828 -4.40039,0.40039 -0.70117,1.09961 h -0.59961 l -1.79883,-3.09961 -8.90039,0.298828 -1,0.800782 h -1 l -0.5,-1.300782 -0.80078,-1.798828 -2.59961,0.5 -3.19922,3.199219 -1.60156,0.800781 h -3.09961 l -2.59961,-1 V 77.199219 L 543.19922,77 l -0.5,0.5 -2.59961,-1.300781 -0.5,-2.898438 -1.5,0.5 -0.5,1 -2.40039,-0.5 -5.29883,-2.40039 L 526,69.300781 h -2.90039 l -1.29883,-1 L 519.5,68.900391 518.40039,70 l -0.30078,1.300781 h -4.79883 V 69.199219 L 507,68.900391 l -0.30078,-1.5 h -4.79883 l -1.59961,-1.59961 -1.5,-6.101562 -0.80078,-5.5 -1.90039,-0.798828 z m 99.5,21.798828 L 591,75.300781 585.59961,79.199219 583.40039,80 l -1.80078,2.099609 1.70117,1 2.09961,-0.90039 3.29883,-1.898438 5.10156,-5.101562 z m 77.59961,37.500001 -2.20117,0.20117 -1.59961,0.19922 -0.29883,1.09961 1,0.5 0.59961,2.5 3.19922,0.20117 1.30078,-1.20117 c 0,0 -0.10039,-1.49961 -0.40039,-1.59961 -0.3,-0.2 -1.59961,-1.90039 -1.59961,-1.90039 z"
       id="MW"
       inkscape:connector-curvature="0" />
    <text
       xml:space="preserve"
       style="font-style:normal;font-variant:normal;font-weight:bold;font-stretch:normal;font-size:36px;line-height:1.25;font-family:Roboto;-inkscape-font-specification:'Roboto, Bold';font-variant-ligatures:normal;font-variant-caps:normal;font-variant-numeric:normal;font-feature-settings:normal;text-align:start;letter-spacing:0px;word-spacing:0px;writing-mode:lr-tb;text-anchor:start;fill:#000000;fill-opacity:1;stroke:none"
       x="91.825081"
       y="160.56787"
       id="WE-text"
       inkscape:label="wetext"><tspan
         sodipodi:role="line"
         id="tspan5327"
         x="91.825081"
         y="160.56787">WE 4</tspan></text>
    <text
       xml:space="preserve"
       style="font-style:normal;font-variant:normal;font-weight:bold;font-stretch:normal;font-size:36px;line-height:1.25;font-family:Roboto;-inkscape-font-specification:'Roboto, Bold';font-variant-ligatures:normal;font-variant-caps:normal;font-variant-numeric:normal;font-feature-settings:normal;text-align:start;letter-spacing:0px;word-spacing:0px;writing-mode:lr-tb;text-anchor:start;fill:#000000;fill-opacity:1;stroke:none"
       x="310.71048"
       y="401.8757"
       id="SW-text"
       inkscape:label="swtext"><tspan
         sodipodi:role="line"
         x="310.71048"
         y="401.8757"
         id="tspan5369">SW 3 </tspan></text>
    <text
       xml:space="preserve"
       style="font-style:normal;font-variant:normal;font-weight:bold;font-stretch:normal;font-size:36px;line-height:1.25;font-family:Roboto;-inkscape-font-specification:'Roboto, Bold';font-variant-ligatures:normal;font-variant-caps:normal;font-variant-numeric:normal;font-feature-settings:normal;text-align:start;letter-spacing:0px;word-spacing:0px;writing-mode:lr-tb;text-anchor:start;fill:#000000;fill-opacity:1;stroke:none"
       x="658.79163"
       y="387.99512"
       id="SE-text"
       inkscape:label="setext"><tspan
         sodipodi:role="line"
         id="tspan5335"
         x="658.79163"
         y="387.99512">SE 6</tspan></text>
    <text
       xml:space="preserve"
       style="font-style:normal;font-variant:normal;font-weight:bold;font-stretch:normal;font-size:36px;line-height:1.25;font-family:Roboto;-inkscape-font-specification:'Roboto, Bold';font-variant-ligatures:normal;font-variant-caps:normal;font-variant-numeric:normal;font-feature-settings:normal;text-align:start;letter-spacing:0px;word-spacing:0px;writing-mode:lr-tb;text-anchor:start;fill:#000000;fill-opacity:1;stroke:none"
       x="464.46411"
       y="220.36096"
       id="MW-text"
       inkscape:label="mwtext"><tspan
         sodipodi:role="line"
         id="tspan5339"
         x="464.46411"
         y="220.36096">MW 6</tspan></text>
    <text
       xml:space="preserve"
       style="font-style:normal;font-variant:normal;font-weight:bold;font-stretch:normal;font-size:36px;line-height:1.25;font-family:Roboto;-inkscape-font-specification:'Roboto, Bold';font-variant-ligatures:normal;font-variant-caps:normal;font-variant-numeric:normal;font-feature-settings:normal;text-align:start;letter-spacing:0px;word-spacing:0px;writing-mode:lr-tb;text-anchor:start;fill:#000000;fill-opacity:1;stroke:none"
       x="798.62451"
       y="165.73676"
       id="NE-text"
       inkscape:label="netext"><tspan
         sodipodi:role="line"
         id="tspan5343"
         x="798.62451"
         y="165.73676">NE 7</tspan></text>
    <text
       xml:space="preserve"
       style="font-style:normal;font-variant:normal;font-weight:bold;font-stretch:normal;font-size:36px;line-height:1.25;font-family:Roboto;-inkscape-font-specification:'Roboto, Bold';font-variant-ligatures:normal;font-variant-caps:normal;font-variant-numeric:normal;font-feature-settings:normal;text-align:start;letter-spacing:0px;word-spacing:0px;writing-mode:lr-tb;text-anchor:start;fill:#000000;fill-opacity:1;stroke:none;enable-background:new"
       x="835.2702"
       y="450.7532"
       id="OV-text"
       inkscape:label="ovtext"><tspan
         sodipodi:role="line"
         id="tspan5335-8"
         x="835.2702"
         y="450.7532">OV 6</tspan></text>
  </g>
</svg>
