<?xml version="1.0" encoding="UTF-8" standalone="no"?>
<svg
   xmlns:dc="http://purl.org/dc/elements/1.1/"
   xmlns:cc="http://creativecommons.org/ns#"
   xmlns:rdf="http://www.w3.org/1999/02/22-rdf-syntax-ns#"
   xmlns:svg="http://www.w3.org/2000/svg"
   xmlns="http://www.w3.org/2000/svg"
   xmlns:sodipodi="http://sodipodi.sourceforge.net/DTD/sodipodi-0.dtd"
   xmlns:inkscape="http://www.inkscape.org/namespaces/inkscape"
   viewBox="0 0 959 593"
   version="1.1"
   id="svg3846"
   sodipodi:docname="usa.svg"
   inkscape:version="0.92.1 r15371"
   inkscape:export-filename="/home/jacob/Programming/270/usa.png"
   inkscape:export-xdpi="96"
   inkscape:export-ydpi="96"
   enable-background="new">
  <metadata
     id="metadata3850">
    <rdf:RDF>
      <cc:Work
         rdf:about="">
        <dc:format>image/svg+xml</dc:format>
        <dc:type
           rdf:resource="http://purl.org/dc/dcmitype/StillImage" />
        <dc:title>Blank US states map</dc:title>
      </cc:Work>
    </rdf:RDF>
  </metadata>
  <sodipodi:namedview
     pagecolor="#ffffff"
     bordercolor="#666666"
     borderopacity="1"
     objecttolerance="30"
     gridtolerance="10"
     guidetolerance="10"
     inkscape:pageopacity="0"
     inkscape:pageshadow="2"
     inkscape:window-width="1600"
     inkscape:window-height="838"
     id="namedview3848"
     showgrid="true"
     inkscape:pagecheckerboard="true"
     inkscape:zoom="0.5"
     inkscape:cx="345.23726"
     inkscape:cy="233.4714"
     inkscape:window-x="0"
     inkscape:window-y="0"
     inkscape:window-maximized="1"
     inkscape:current-layer="outlines"
     inkscape:snap-center="true"
     inkscape:snap-grids="false"
     inkscape:snap-object-midpoints="true"
     inkscape:snap-midpoints="true"
     inkscape:snap-bbox="true"
     inkscape:snap-others="true"
     inkscape:snap-perpendicular="false"
     inkscape:snap-tangential="false"
     inkscape:snap-path-clip="false"
     inkscape:snap-path-mask="false">
    <inkscape:grid
       type="xygrid"
       id="grid4836"
       dotted="false"
       visible="true" />
  </sodipodi:namedview>
  <title
     id="title3785" />
  <defs
     id="defs3789">
    <style
       type="text/css"
       id="style3787">
    .state {fill:#D3D3D3;}
  </style>
    <filter
       inkscape:collect="always"
       style="color-interpolation-filters:sRGB"
       id="filter4824">
      <feBlend
         inkscape:collect="always"
         mode="multiply"
         in2="BackgroundImage"
         id="feBlend4826" />
    </filter>
  </defs>
  <g
     id="outlines"
     class="state"
     style="fill:#d3d3d3">
    <text
       xml:space="preserve"
       style="font-style:normal;font-weight:normal;font-size:13.33333302px;line-height:1.25;font-family:sans-serif;letter-spacing:0px;word-spacing:0px;fill:#000000;fill-opacity:1;stroke:none;filter:url(#filter4824)"
       x="796.88983"
       y="159.5587"
       id="text4809"><tspan
         sodipodi:role="line"
         x="796.88983"
         y="159.5587"
         id="tspan4811">NY 29</tspan><tspan
         sodipodi:role="line"
         x="796.88983"
         y="176.22537"
         id="tspan4815" /></text>
    <path
       id="AK"
       d="m 161.1,453.7 -0.3,85.4 1.6,1 3.1,0.2 1.5,-1.1 h 2.6 l 0.2,2.9 7,6.8 0.5,2.6 3.4,-1.9 0.6,-0.2 0.3,-3.1 1.5,-1.6 1.1,-0.2 1.9,-1.5 3.1,2.1 0.6,2.9 1.9,1.1 1.1,2.4 3.9,1.8 3.4,6 2.7,3.9 2.3,2.7 1.5,3.7 5,1.8 5.2,2.1 1,4.4 0.5,3.1 -1,3.4 -1.8,2.3 -1.6,-0.8 -1.5,-3.1 -2.7,-1.5 -1.8,-1.1 -0.8,0.8 1.5,2.7 0.2,3.7 -1.1,0.5 -1.9,-1.9 -2.1,-1.3 0.5,1.6 1.3,1.8 -0.8,0.8 c 0,0 -0.8,-0.3 -1.3,-1 -0.5,-0.6 -2.1,-3.4 -2.1,-3.4 l -1,-2.3 c 0,0 -0.3,1.3 -1,1 -0.6,-0.3 -1.3,-1.5 -1.3,-1.5 l 1.8,-1.9 -1.5,-1.5 v -5 h -0.8 l -0.8,3.4 -1.1,0.5 -1,-3.7 -0.6,-3.7 -0.8,-0.5 0.3,5.7 v 1.1 l -1.5,-1.3 -3.6,-6 -2.1,-0.5 -0.6,-3.7 -1.6,-2.9 -1.6,-1.1 v -2.3 l 2.1,-1.3 -0.5,-0.3 -2.6,0.6 -3.4,-2.4 -2.6,-2.9 -4.8,-2.6 -4,-2.6 1.3,-3.2 V 542 l -1.8,1.6 -2.9,1.1 -3.7,-1.1 -5.7,-2.4 h -5.5 l -0.6,0.5 -6.5,-3.9 -2.1,-0.3 -2.7,-5.8 -3.6,0.3 -3.6,1.5 0.5,4.5 1.1,-2.9 1,0.3 -1.5,4.4 3.2,-2.7 0.6,1.6 -3.9,4.4 -1.3,-0.3 -0.5,-1.9 -1.3,-0.8 -1.3,1.1 -2.7,-1.8 -3.1,2.1 -1.8,2.1 -3.4,2.1 -4.7,-0.2 -0.5,-2.1 3.7,-0.6 v -1.3 l -2.3,-0.6 1,-2.4 2.3,-3.9 v -1.8 l 0.2,-0.8 4.4,-2.3 1,1.3 h 2.7 l -1.3,-2.6 -3.7,-0.3 -5,2.7 -2.4,3.4 -1.8,2.6 -1.1,2.3 -4.2,1.5 -3.1,2.6 -0.3,1.6 2.3,1 0.8,2.1 -2.7,3.2 -6.5,4.2 -7.8,4.2 -2.1,1.1 -5.3,1.1 -5.3,2.3 1.8,1.3 -1.5,1.5 -0.5,1.1 -2.7,-1 -3.2,0.2 -0.8,2.3 h -1 l 0.3,-2.4 -3.6,1.3 -2.9,1 -3.4,-1.3 -2.9,1.9 h -3.2 l -2.1,1.3 -1.6,0.8 -2.1,-0.3 -2.6,-1.1 -2.3,0.6 -1,1 -1.6,-1.1 v -1.9 l 3.1,-1.3 6.3,0.6 4.4,-1.6 2.1,-2.1 2.9,-0.6 1.8,-0.8 2.7,0.2 1.6,1.3 1,-0.3 2.3,-2.7 3.1,-1 3.4,-0.6 1.3,-0.3 0.6,0.5 h 0.8 l 1.3,-3.7 4,-1.5 1.9,-3.7 2.3,-4.5 1.6,-1.5 0.3,-2.6 -1.6,1.3 -3.4,0.6 -0.6,-2.4 -1.3,-0.3 -1,1 -0.2,2.9 -1.5,-0.2 -1.5,-5.8 -1.3,1.3 -1.1,-0.5 -0.3,-1.9 -4,0.2 -2.1,1.1 -2.6,-0.3 1.5,-1.5 0.5,-2.6 -0.6,-1.9 1.5,-1 1.3,-0.2 -0.6,-1.8 v -4.4 l -1,-1 -0.8,1.5 h -6.1 l -1.5,-1.3 -0.6,-3.9 -2.1,-3.6 v -1 l 2.1,-0.8 0.2,-2.1 1.1,-1.1 -0.8,-0.5 -1.3,0.5 -1.1,-2.7 1,-5 4.5,-3.2 2.6,-1.6 1.9,-3.7 2.7,-1.3 2.6,1.1 0.3,2.4 2.4,-0.3 3.2,-2.4 1.6,0.6 1,0.6 h 1.6 l 2.3,-1.3 0.8,-4.4 c 0,0 0.3,-2.9 1,-3.4 0.6,-0.5 1,-1 1,-1 l -1.1,-1.9 -2.6,0.8 -3.2,0.8 -1.9,-0.5 -3.6,-1.8 -5,-0.2 -3.6,-3.7 0.5,-3.9 0.6,-2.4 -2.1,-1.8 -1.9,-3.7 0.5,-0.8 6.8,-0.5 h 2.1 l 1,1 h 0.6 l -0.2,-1.6 3.9,-0.6 2.6,0.3 1.5,1.1 -1.5,2.1 -0.5,1.5 2.7,1.6 5,1.8 1.8,-1 -2.3,-4.4 -1,-3.2 1,-0.8 -3.4,-1.9 -0.5,-1.1 0.5,-1.6 -0.8,-3.9 -2.9,-4.7 -2.4,-4.2 2.9,-1.9 h 3.2 l 1.8,0.6 4.2,-0.2 3.7,-3.6 1.1,-3.1 3.7,-2.4 1.6,1 2.7,-0.6 3.7,-2.1 1.1,-0.2 1,0.8 4.5,-0.2 2.7,-3.1 h 1.1 l 3.6,2.4 1.9,2.1 -0.5,1.1 0.6,1.1 1.6,-1.6 3.9,0.3 0.3,3.7 1.9,1.5 7.1,0.6 6.3,4.2 1.5,-1 5.2,2.6 2.1,-0.6 1.9,-0.8 4.8,1.9 z M 46,482.6 l 2.1,5.3 -0.2,1 -2.9,-0.3 -1.8,-4 -1.8,-1.5 H 39 l -0.2,-2.6 1.8,-2.4 1.1,2.4 1.5,1.5 z m -2.6,33.5 3.7,0.8 3.7,1 0.8,1 -1.6,3.7 -3.1,-0.2 -3.4,-3.6 z M 22.7,502 l 1.1,2.6 1.1,1.6 -1.1,0.8 -2.1,-3.1 V 502 Z M 9,575.1 l 3.4,-2.3 3.4,-1 2.6,0.3 0.5,1.6 1.9,0.5 1.9,-1.9 -0.3,-1.6 2.7,-0.6 2.9,2.6 -1.1,1.8 -4.4,1.1 -2.7,-0.5 -3.7,-1.1 -4.4,1.5 -1.6,0.3 z m 48.9,-4.5 1.6,1.9 2.1,-1.6 -1.5,-1.3 z m 2.9,3 1.1,-2.3 2.1,0.3 -0.8,1.9 h -2.4 z m 23.6,-1.9 1.5,1.8 1,-1.1 -0.8,-1.9 z m 8.8,-12.5 1.1,5.8 2.9,0.8 5,-2.9 4.4,-2.6 -1.6,-2.4 0.5,-2.4 -2.1,1.3 -2.9,-0.8 1.6,-1.1 1.9,0.8 3.9,-1.8 0.5,-1.5 -2.4,-0.8 0.8,-1.9 -2.7,1.9 -4.7,3.6 -4.8,2.9 z m 42.3,-19.8 2.4,-1.5 -1,-1.8 -1.8,1 z"
       inkscape:connector-curvature="0"
       style="fill:#ffffff;fill-opacity:1" />
    <path
       id="HI"
       d="m 233.1,519.3 1.9,-3.6 2.3,-0.3 0.3,0.8 -2.1,3.1 z m 10.2,-3.7 6.1,2.6 2.1,-0.3 1.6,-3.9 -0.6,-3.4 -4.2,-0.5 -4,1.8 z m 30.7,10 3.7,5.5 2.4,-0.3 1.1,-0.5 1.5,1.3 3.7,-0.2 1,-1.5 -2.9,-1.8 -1.9,-3.7 -2.1,-3.6 -5.8,2.9 z m 20.2,8.9 1.3,-1.9 4.7,1 0.6,-0.5 6.1,0.6 -0.3,1.3 -2.6,1.5 -4.4,-0.3 z m 5.3,5.2 1.9,3.9 3.1,-1.1 0.3,-1.6 -1.6,-2.1 -3.7,-0.3 z m 7,-1.2 2.3,-2.9 4.7,2.4 4.4,1.1 4.4,2.7 v 1.9 l -3.6,1.8 -4.8,1 -2.4,-1.5 z m 16.6,15.6 1.6,-1.3 3.4,1.6 7.6,3.6 3.4,2.1 1.6,2.4 1.9,4.4 4,2.6 -0.3,1.3 -3.9,3.2 -4.2,1.5 -1.5,-0.6 -3.1,1.8 -2.4,3.2 -2.3,2.9 -1.8,-0.2 -3.6,-2.6 -0.3,-4.5 0.6,-2.4 -1.6,-5.7 -2.1,-1.8 -0.2,-2.6 2.3,-1 2.1,-3.1 0.5,-1 -1.6,-1.8 z"
       inkscape:connector-curvature="0"
       style="fill:#ffffff;fill-opacity:1" />
    <path
       id="AL"
       d="m 628.5,466.4 0.6,0.2 1.3,-2.7 1.5,-4.4 2.3,0.6 3.1,6 v 1 l -2.7,1.9 2.7,0.3 5.2,-2.5 -0.3,-7.6 -2.5,-1.8 -2,-2 0.4,-4 10.5,-1.5 25.7,-2.9 6.7,-0.6 5.6,0.1 -0.5,-2.2 -1.5,-0.8 -0.9,-1.1 1,-2.6 -0.4,-5.2 -1.6,-4.5 0.8,-5.1 1.7,-4.8 -0.2,-1.7 -1.8,-0.7 -0.5,-3.6 -2.7,-3.4 -2,-6.5 -1.4,-6.7 -1.8,-5 -3.8,-16 -3.5,-7.9 -0.8,-5.6 0.1,-2.2 -9,0.8 -23.4,2.2 -12.2,0.8 -0.2,6.4 0.2,16.7 -0.7,31 -0.3,14.1 2.8,18.8 1.6,14.7 z"
       inkscape:connector-curvature="0"
       style="fill:#ffffff;fill-opacity:1" />
    <path
       id="AR"
       d="m 587.3,346.1 -6.4,-0.7 0.9,-3.1 3.1,-2.6 0.6,-2.3 -1.8,-2.9 -31.9,1.2 -23.3,0.7 -23.6,0.3 1.5,6.9 0.1,8.5 1.4,10.9 0.3,38.2 2.1,1.6 3,-1.2 2.9,1.2 0.4,10.1 25.2,-0.2 26.8,-0.8 0.9,-1.9 -0.3,-3.8 -1.7,-3.1 1.5,-1.4 -1.4,-2.2 0.7,-2.4 1.1,-5.9 2.7,-2.3 -0.8,-2.2 4,-5.6 2.5,-1.1 -0.1,-1.7 -0.5,-1.7 2.9,-5.8 2.5,-1.1 0.2,-3.3 2.1,-1.4 0.9,-4.1 -1.4,-4 4.2,-2.4 0.3,-2.1 1.2,-4.2 0.9,-3.1 z"
       inkscape:connector-curvature="0"
       style="fill:#ffffff;fill-opacity:1" />
    <path
       id="AZ"
       d="m 135.1,389.7 -0.3,1.5 0.5,1 18.9,10.7 12.1,7.6 14.7,8.6 16.8,10 12.3,2.4 25.4,2.7 6,-39.6 7,-53.1 4.4,-31 -24.6,-3.6 -60.7,-11 -0.2,1.1 -2.6,16.5 -2.1,3.8 -2.8,-0.2 -1.2,-2.6 -2.6,-0.4 -1.2,-1.1 -1.1,0.1 -2.1,1.7 -0.3,6.8 -0.3,1.5 -0.5,12.5 -1.5,2.4 -0.4,3.3 2.8,5 1.1,5.5 0.7,1.1 1.1,0.9 -0.4,2.4 -1.7,1.2 -3.4,1.6 -1.6,1.8 -1.6,3.6 -0.5,4.9 -3,2.9 -1.9,0.9 -0.1,5.8 -0.6,1.6 0.5,0.8 3.9,0.4 -0.9,3 -1.7,2.4 -3.7,0.4 z"
       inkscape:connector-curvature="0"
       style="fill:#ffffff;fill-opacity:1" />
    <path
       id="CA"
       d="m 122.7,385.9 -19.7,-2.7 -10,-1.5 -0.5,-1.8 v -9.4 l -0.3,-3.2 -2.6,-4.2 -0.8,-2.3 -3.9,-4.2 -2.9,-4.7 -2.7,-0.2 -3.2,-0.8 -0.3,-1 1.5,-0.6 -0.6,-3.2 -1.5,-2.1 -4.8,-0.8 -3.9,-2.1 -1.1,-2.3 -2.6,-4.8 -2.9,-3.1 H 57 l -3.9,-2.1 -4.5,-1.8 -4.2,-0.5 -2.4,-2.7 0.5,-1.9 1.8,-7.1 0.8,-1.9 v -2.4 l -1.6,-1 -0.5,-2.9 -1.5,-2.6 -3.4,-5.8 -1.3,-3.1 -1.5,-4.7 -1.6,-5.3 -3.2,-4.4 -0.5,-2.9 0.8,-3.9 h 1.1 l 2.1,-1.6 1.1,-3.6 -1,-2.7 -2.7,-0.5 -1.9,-2.6 -2.1,-3.7 -0.2,-8.2 0.6,-1.9 0.6,-2.3 0.5,-2.4 -5.7,-6.3 V 236 l 0.3,-0.5 0.3,-3.2 -1.3,-4 -2.3,-4.8 -2.7,-4.5 -1.8,-3.9 1,-3.7 0.6,-5.8 1.8,-3.1 0.3,-6.5 -1.1,-3.6 -1.6,-4.2 -2.7,-4.2 0.8,-3.2 1.5,-4.2 1.8,-0.8 0.3,-1.1 3.1,-2.6 5.2,-11.8 0.2,-7.4 1.69,-4.9 38.69,11.8 25.6,6.6 -8,31.3 -8.67,33.1 12.63,19.2 42.16,62.3 17.1,26.1 -0.4,3.1 2.8,5.2 1.1,5.4 1,1.5 0.7,0.6 -0.2,1.4 -1.4,1 -3.4,1.6 -1.9,2.1 -1.7,3.9 -0.5,4.7 -2.6,2.5 -2.3,1.1 -0.1,6.2 -0.6,1.9 1,1.7 3,0.3 -0.4,1.6 -1.4,2 -3.9,0.6 z M 48.8,337 l 1.3,1.5 -0.2,1.3 -3.2,-0.1 -0.6,-1.2 -0.6,-1.5 z m 1.9,0 1.2,-0.6 3.6,2.1 3.1,1.2 -0.9,0.6 -4.5,-0.2 -1.6,-1.6 z m 20.7,19.8 1.8,2.3 0.8,1 1.5,0.6 0.6,-1.5 -1,-1.8 -2.7,-2 -1.1,0.2 v 1.2 z m -1.4,8.7 1.8,3.2 1.2,1.9 -1.5,0.2 -1.3,-1.2 c 0,0 -0.7,-1.5 -0.7,-1.9 v -2.2 z"
       inkscape:connector-curvature="0"
       style="fill:#ffffff;fill-opacity:1" />
    <path
       id="CO"
       d="m 380.2,235.5 -36,-3.5 -79.1,-8.6 -2.2,22.1 -7,50.4 -1.9,13.7 34,3.9 37.5,4.4 34.7,3 14.3,0.6 z"
       inkscape:connector-curvature="0"
       style="fill:#ffffff;fill-opacity:1" />
    <path
       id="CT"
       d="m 852,190.9 3.6,-3.2 1.9,-2.1 0.8,0.6 2.7,-1.5 5.2,-1.1 7,-3.5 -0.6,-4.2 -0.8,-4.4 -1.6,-6 -4.3,1.1 -21.8,4.7 0.6,3.1 1.5,7.3 v 8.3 l -0.9,2.1 1.7,2.2 z"
       inkscape:connector-curvature="0"
       style="fill:#ffffff;fill-opacity:1" />
    <path
       id="DE"
       d="m 834.4,247.2 -1,0.5 -3.6,-2.4 -1.8,-4.7 -1.9,-3.6 -2.3,-1 -2.1,-3.6 0.5,-2 0.5,-2.3 0.1,-1.1 -0.6,0.1 -1.7,1 -2,1.7 -0.2,0.3 1.4,4.1 2.3,5.6 3.7,16.1 5,-0.3 6,-1.1 z"
       inkscape:connector-curvature="0"
       style="fill:#ffffff;fill-opacity:1" />
    <path
       id="FL"
       d="m 750.2,445.2 -5.2,-0.7 -0.7,0.8 1.5,4.4 -0.4,5.2 -4.1,-1 -0.2,-2.8 H 737 l -5.3,0.7 -32.4,1.9 -8.2,-0.3 -1.7,-1.7 -2.5,-4.2 H 681 l -6.6,0.5 -35.4,4.2 -0.3,2.8 1.6,1.6 2.9,2 0.3,8.4 3.3,-0.6 6,-2.1 6,-0.5 4.4,-0.6 7.6,1.8 8.1,3.9 1.6,1.5 2.9,1.1 1.6,1.9 0.3,2.7 3.2,-1.3 h 3.9 l 3.6,-1.9 3.7,-3.6 3.1,0.2 0.5,-1.1 -0.8,-1 0.2,-1.9 4,-0.8 h 2.6 l 2.9,1.5 4.2,1.5 2.4,3.7 2.7,1 1.1,3.4 3.4,1.6 1.6,2.6 1.9,0.6 5.2,1.3 1.3,3.1 3,3.7 v 9.5 l -1.5,4.7 0.3,2.7 1.3,4.8 1.8,4 0.8,-0.5 1.5,-4.5 -2.6,-1 -0.3,-0.6 1.6,-0.6 4.5,1 0.2,1.6 -3.2,5.5 -2.1,2.4 3.6,3.7 2.6,3.1 2.9,5.3 2.9,3.9 2.1,5 1.8,0.3 1.6,-2.1 1.8,1.1 2.6,4 0.6,3.6 3.1,4.4 0.8,-1.3 3.9,0.3 3.6,2.3 3.4,5.2 0.8,3.4 0.3,2.9 1.1,1 1.3,0.5 2.4,-1 1.5,-1.6 3.9,-0.2 3.1,-1.5 2.7,-3.2 -0.5,-1.9 -0.3,-2.4 0.6,-1.9 -0.3,-1.9 2.4,-1.3 0.3,-3.4 -0.6,-1.8 -0.5,-12 -1.3,-7.6 -4.5,-8.2 -3.6,-5.8 -2.6,-5.3 -2.9,-2.9 -2.9,-7.4 0.7,-1.4 1.1,-1.3 -1.6,-2.9 -4,-3.7 -4.8,-5.5 -3.7,-6.3 -5.3,-9.4 -3.7,-9.7 -2.3,-7.3 z m 17.7,132.7 2.4,-0.6 1.3,-0.2 1.5,-2.3 2.3,-1.6 1.3,0.5 1.7,0.3 0.4,1.1 -3.5,1.2 -4.2,1.5 -2.3,1.2 z m 13.5,-5 1.2,1.1 2.7,-2.1 5.3,-4.2 3.7,-3.9 2.5,-6.6 1,-1.7 0.2,-3.4 -0.7,0.5 -1,2.8 -1.5,4.6 -3.2,5.3 -4.4,4.2 -3.4,1.9 z"
       inkscape:connector-curvature="0"
       style="fill:#ffffff;fill-opacity:1" />
    <path
       id="GA"
       d="m 750.2,444.2 -5.6,-0.7 -1.4,1.6 1.6,4.7 -0.3,3.9 -2.2,-0.6 -0.2,-3 h -5.2 l -5.3,0.7 -32.3,1.9 -7.7,-0.3 -1.4,-1.2 -2.5,-4.3 -0.8,-3.3 -1.6,-0.9 -0.5,-0.5 0.9,-2.2 -0.4,-5.5 -1.6,-4.5 0.8,-4.9 1.7,-4.8 -0.2,-2.5 -1.9,-0.7 -0.4,-3.2 -2.8,-3.5 -1.9,-6.2 -1.5,-7 -1.7,-4.8 -3.8,-16 -3.5,-8 -0.8,-5.3 0.1,-2.3 3.3,-0.3 13.6,-1.6 18.6,-2 6.3,-1.1 0.5,1.4 -2.2,0.9 -0.9,2.2 0.4,2 1.4,1.6 4.3,2.7 3.2,-0.1 3.2,4.7 0.6,1.6 2.3,2.8 0.5,1.7 4.7,1.8 3,2.2 2.3,3 2.3,1.3 2,1.8 1.4,2.7 2.1,1.9 4.1,1.8 2.7,6 1.7,5.1 2.8,0.7 2.1,1.9 2,5.7 2.9,1.6 1.7,-0.8 0.4,1.2 -3.3,6.2 0.5,2.6 -1.5,4.2 -2.3,10 0.8,6.3 z"
       inkscape:connector-curvature="0"
       style="fill:#ffffff;fill-opacity:1" />
    <path
       id="IA"
       d="m 556.8,183.6 2.1,2.1 0.3,0.7 -2,3 0.3,4 2.6,4.1 3.1,1.6 2.4,0.3 0.9,1.8 0.2,2.4 2.5,1 0.9,1.1 0.5,1.6 3.8,3.3 0.6,1.9 -0.7,3 -1.7,3.7 -0.6,2.4 -2.1,1.6 -1.6,0.5 -5.7,1.5 -1.6,4.8 0.8,1.8 1.7,1.5 -0.2,3.5 -1.9,1.4 -0.7,1.8 v 2.4 l -1.4,0.4 -1.7,1.4 -0.5,1.7 0.4,1.7 -1.3,1 -2.3,-2.7 -1.4,-2.8 -8.3,0.8 -10,0.6 -49.2,1.2 -1.6,-4.3 -0.4,-6.7 -1.4,-4.2 -0.7,-5.2 -2.2,-3.7 -1,-4.6 -2.7,-7.8 -1.1,-5.6 -1.4,-1.9 -1.3,-2.9 1.7,-3.8 1.2,-6.1 -2.7,-2.2 -0.3,-2.4 0.7,-2.4 1.8,-0.3 61.1,-0.6 21.2,-0.7 z"
       inkscape:connector-curvature="0"
       style="fill:#ffffff;fill-opacity:1" />
    <path
       id="ID"
       d="m 175.3,27.63 -4.8,17.41 -4.5,20.86 -3.4,16.22 -0.4,9.67 1.2,4.44 3.5,2.66 -0.2,3.91 -3.9,4.4 -4.5,6.6 -0.9,2.9 -1.2,1.1 -1.8,0.8 -4.3,5.3 -0.4,3.1 -0.4,1.1 0.6,1 2.6,-0.1 1.1,2.3 -2.4,5.8 -1.2,4.2 -8.8,35.3 20.7,4.5 39.5,7.9 34.8,6.1 4.9,-29.2 3.8,-24.1 -2.7,-2.4 -0.4,-2.6 -0.8,-1.1 -2.1,1 -0.7,2.6 -3.2,0.5 -3.9,-1.6 -3.8,0.1 -2.5,0.7 -3.4,-1.5 -2.4,0.2 -2.4,2 -2,-1.1 -0.7,-4 0.7,-2.9 -2.5,-2.9 -3.3,-2.6 -2.7,-13.1 -0.1,-4.7 -0.3,-0.1 -0.2,0.4 -5.1,3.5 -1.7,-0.2 -2.9,-3.4 -0.2,-3.1 7,-17.13 -0.4,-1.94 -3.4,-1.15 -0.6,-1.18 -2.6,-3.46 -4.6,-10.23 -3.2,-1.53 -2,-4.95 1.3,-4.63 -3.2,-7.58 4.4,-21.52 z"
       inkscape:connector-curvature="0"
       style="fill:#ffffff;fill-opacity:1" />
    <path
       id="IL"
       d="m 618.7,214.3 -0.8,-2.6 -1.3,-3.7 -1.6,-1.8 -1.5,-2.6 -0.4,-5.5 -15.9,1.8 -17.4,1 h -12.3 l 0.2,2.1 2.2,0.9 1.1,1.4 0.4,1.4 3.9,3.4 0.7,2.4 -0.7,3.3 -1.7,3.7 -0.8,2.7 -2.4,1.9 -1.9,0.6 -5.2,1.3 -1.3,4.1 0.6,1.1 1.9,1.8 -0.2,4.3 -2.1,1.6 -0.5,1.3 v 2.8 l -1.8,0.6 -1.4,1.2 -0.4,1.2 0.4,2 -1.6,1.3 -0.9,2.8 0.3,3.9 2.3,7 7,7.6 5.7,3.7 v 4.4 l 0.7,1.2 6.6,0.6 2.7,1.4 -0.7,3.5 -2.2,6.2 -0.8,3 2,3.7 6.4,5.3 4.8,0.8 2.2,5.1 2,3.4 -0.9,2.8 1.5,3.8 1.7,2.1 1.6,-0.3 1,-2.2 2.4,-1.7 2.8,-1 6.1,2.5 0.5,-0.2 v -1.1 l -1.2,-2.7 0.4,-2.8 2.4,-1.6 3.4,-1.2 -0.5,-1.3 -0.8,-2 1.2,-1.3 1,-2.7 v -4 l 0.4,-4.9 2.5,-3 1.8,-3.8 2.5,-4 -0.5,-5.3 -1.8,-3.2 -0.3,-3.3 0.8,-5.3 -0.7,-7.2 -1.1,-15.8 -1.4,-15.3 -0.9,-11.7 z"
       inkscape:connector-curvature="0"
       style="fill:#ffffff;fill-opacity:1" />
    <path
       id="IN"
       d="m 622.9,216.1 1.5,1 1.1,-0.3 2.1,-1.9 2.5,-1.8 14.3,-1.1 18.4,-1.8 1.6,15.5 4.9,42.6 -0.6,2.9 1.3,1.6 0.2,1.3 -2.3,1.6 -3.6,1.7 -3.2,0.4 -0.5,4.8 -4.7,3.6 -2.9,4 0.2,2.4 -0.5,1.4 h -3.5 l -1.4,-1.7 -5.2,3 0.2,3.1 -0.9,0.2 -0.5,-0.9 -2.4,-1.7 -3.6,1.5 -1.4,2.9 -1.2,-0.6 -1.6,-1.8 -4.4,0.5 -5.7,1 -2.5,1.3 v -2.6 l 0.4,-4.7 2.3,-2.9 1.8,-3.9 2.7,-4.2 -0.5,-5.8 -1.8,-3.1 -0.3,-3.2 0.8,-5.3 -0.7,-7.1 -0.9,-12.6 -2.5,-30.1 z"
       inkscape:connector-curvature="0"
       style="fill:#ffffff;fill-opacity:1" />
    <path
       id="KS"
       d="m 485.9,259.5 -43.8,-0.6 -40.6,-1.2 -21.7,-0.9 -4.3,64.8 24.3,1 44.7,2.1 46.3,0.6 12.6,-0.3 0.7,-35 -1.2,-11.1 -2.5,-2 -2.4,-3 -2.3,-3.6 0.6,-3 1.7,-1.4 v -2.1 l -0.8,-0.7 -2.6,-0.2 -3.5,-3.4 z"
       inkscape:connector-curvature="0"
       style="fill:#ffffff;fill-opacity:1" />
    <path
       id="KY"
       d="m 607.2,331.8 12.6,-0.7 0.1,-4.1 h 4.3 l 30.4,-3.2 45.1,-4.3 5.6,-3.6 3.9,-2.1 0.1,-1.9 6,-7.8 4.1,-3.6 2.1,-2.4 -3.3,-2 -2.5,-2.7 -3,-3.8 -0.5,-2.2 -2.6,-1.4 -0.9,-1.9 -0.2,-6.1 -2.6,-2 -1.9,-1.1 -0.5,-2.3 -1.3,0.2 -2,1.2 -2.5,2.7 -1.9,-1.7 -2.5,-0.5 -2.4,1.4 h -2.3 l -1.8,-2 -5.6,-0.1 -1.8,-4.5 -2.9,-1.5 -2.1,0.8 -4.2,0.2 -0.5,2.1 1.2,1.5 0.3,2.1 -2.8,2 -3.8,1.8 -2.6,0.4 -0.5,4.5 -4.9,3.6 -2.6,3.7 0.2,2.2 -0.9,2.3 -4.5,-0.1 -1.3,-1.3 -3.9,2.2 0.2,3.3 -2.4,0.6 -0.8,-1.4 -1.7,-1.2 -2.7,1.1 -1.8,3.5 -2.2,-1 -1.4,-1.6 -3.7,0.4 -5.6,1 -2.8,1.3 -1.2,3.4 -1,1 1.5,3.7 -4.2,1.4 -1.9,1.4 -0.4,2.2 1.2,2.4 v 2.2 l -1.6,0.4 -6.1,-2.5 -2.3,0.9 -2,1.4 -0.8,1.8 1.7,2.4 -0.9,1.8 -0.1,3.3 -2.4,1.3 -2.1,1.7 z"
       inkscape:connector-curvature="0"
       style="fill:#ffffff;fill-opacity:1" />
    <path
       id="LA"
       d="m 526.9,485.9 8.1,-0.3 10.3,3.6 6.5,1.1 3.7,-1.5 3.2,1.1 3.2,1 0.8,-2.1 -3.2,-1.1 -2.6,0.5 -2.7,-1.6 0.8,-1.5 3.1,-1 1.8,1.5 1.8,-1 3.2,0.6 1.5,2.4 0.3,2.3 4.5,0.3 1.8,1.8 -0.8,1.6 -1.3,0.8 1.6,1.6 8.4,3.6 3.6,-1.3 1,-2.4 2.6,-0.6 1.8,-1.5 1.3,1 0.8,2.9 -2.3,0.8 0.6,0.6 3.4,-1.3 2.3,-3.4 0.8,-0.5 -2.1,-0.3 0.8,-1.6 -0.2,-1.5 2.1,-0.5 1.1,-1.3 0.6,0.8 0.6,3.1 4.2,0.6 4,1.9 1,1.5 h 2.9 l 1.1,1 2.3,-3.1 V 493 h -1.3 l -3.4,-2.7 -5.8,-0.8 -3.2,-2.3 1.1,-2.7 2.3,0.3 0.2,-0.6 -1.8,-1 v -0.5 h 3.2 l 1.8,-3.1 -1.3,-1.9 -0.3,-2.7 -1.5,0.2 -1.9,2.1 -0.6,2.6 -3.1,-0.6 -1,-1.8 1.8,-1.9 1.9,-1.7 -2.2,-6.5 -3.4,-3.4 1,-7.3 -0.2,-0.5 -1.3,0.2 -33.1,1.4 -0.8,-2.4 0.8,-8.5 8.6,-14.8 -0.9,-2.6 1.4,-0.4 0.4,-2 -2.2,-2 0.1,-1.9 -2,-4.5 -0.4,-5.1 0.1,-0.7 -26.4,0.8 -25.2,0.1 0.4,9.7 0.7,9.5 0.5,3.7 2.6,4.5 0.9,4.4 4.3,6 0.3,3.1 0.6,0.8 -0.7,8.3 -2.8,4.6 1.2,2.4 -0.5,2.6 -0.8,7.3 -1.3,3 0.2,3.7 z"
       inkscape:connector-curvature="0"
       style="fill:#ffffff;fill-opacity:1" />
    <path
       id="MA"
       d="m 887.5,172.5 -0.5,-2.3 0.8,-1.5 2.9,-1.5 0.8,3.1 -0.5,1.8 -2.4,1.5 v 1 l 1.9,-1.5 3.9,-4.5 3.9,-1.9 4.2,-1.5 -0.3,-2.4 -1,-2.9 -1.9,-2.4 -1.8,-0.8 -2.1,0.2 -0.5,0.5 1,1.3 1.5,-0.8 2.1,1.6 0.8,2.7 -1.8,1.8 -2.3,1 -3.6,-0.5 -3.9,-6 -2.3,-2.6 h -1.8 l -1.1,0.8 -1.9,-2.6 0.3,-1.5 2.4,-5.2 -2.9,-4.4 -3.7,1.8 -1.8,2.9 -18.3,4.7 -13.8,2.5 -0.6,10.6 0.7,4.9 22,-4.8 11.2,-2.8 2,1.6 3.4,4.3 2.9,4.7 z m 12.5,1.4 2.2,-0.7 0.5,-1.7 1,0.1 1,2.3 -1.3,0.5 -3.9,0.1 z m -9.4,0.8 2.3,-2.6 h 1.6 l 1.8,1.5 -2.4,1 -2.2,1 z"
       inkscape:connector-curvature="0"
       style="fill:#ffffff;fill-opacity:1" />
    <path
       id="MD"
       d="m 834.8,264.1 1.7,-3.8 0.5,-4.8 -6.3,1.1 -5.8,0.3 -3.8,-16.8 -2.3,-5.5 -1.5,-4.6 -22.2,4.3 -37.6,7.6 2,10.4 4.8,-4.9 2.5,-0.7 1.4,-1.5 1.8,-2.7 1.6,0.7 2.6,-0.2 2.6,-2.1 2,-1.5 2.1,-0.6 1.5,1.1 2.7,1.4 1.9,1.8 1.3,1.4 4.8,1.6 -0.6,2.9 5.8,2.1 2.1,-2.6 3.7,2.5 -2.1,3.3 -0.7,3.3 -1.8,2.6 v 2.1 l 0.3,0.8 2,1.3 3.4,1.1 4.3,-0.1 3.1,1 2.1,0.3 1,-2.1 -1.5,-2.1 v -1.8 l -2.4,-2.1 -2.1,-5.5 1.3,-5.3 -0.2,-2.1 -1.3,-1.3 c 0,0 1.5,-1.6 1.5,-2.3 0,-0.6 0.5,-2.1 0.5,-2.1 l 1.9,-1.3 1.9,-1.6 0.5,1 -1.5,1.6 -1.3,3.7 0.3,1.1 1.8,0.3 0.5,5.5 -2.1,1 0.3,3.6 0.5,-0.2 1.1,-1.9 1.6,1.8 -1.6,1.3 -0.3,3.4 2.6,3.4 3.9,0.5 1.6,-0.8 3.2,4.2 1,0.4 z m -14.5,0.2 1.1,2.5 0.2,1.8 1.1,1.9 c 0,0 0.9,-0.9 0.9,-1.2 0,-0.3 -0.7,-3.1 -0.7,-3.1 l -0.7,-2.3 z"
       inkscape:connector-curvature="0"
       style="fill:#ffffff;fill-opacity:1" />
    <path
       style="fill:#ffffff;fill-opacity:1"
       d="m 870.3,67.1 0.8,-1 0.8,-2.7 -0.2,-1.5 -0.2,-4.8 1.8,-4.8 2.9,-8.9 2.1,-4.2 h 1.3 l 1.3,0.2 v 1.1 l 1.3,2.3 2.7,0.6 0.8,-0.8 v -1 l 4,-2.9 1.8,-1.8 1.5,0.2 6,2.4 1.9,1 9.1,29.9"
       id="ME-D1-land"
       inkscape:label="med1land"
       inkscape:connector-curvature="0" />
    <path
       style="fill:#ffffff;fill-opacity:1"
       d="m 870.30078,67.099609 v 6 l 1.89844,2.400391 -1.5,4 -2.59961,4.699219 -0.79883,5.5 32.39844,11.900391 2.10156,-1.29883 1.79883,3.19922 1.5,-0.30078 0.30078,1.30078 v 1.59961 l 1.90039,0.20117 0.5,-2.70117 0.5,-0.59961 -1.60156,-1.5 1,-1.5 2.40039,-1.5 1,-1.5 1.80078,-0.199219 c 0,0 0.4,2.09961 1,2.09961 h 1.29883 l 4.80078,-5.5 3.40039,-3.09961 1.90039,-0.601562 L 927.40039,85 v -1.900391 l -2.30078,-3.699218 -1.90039,-2.09961 -2.79883,0.5 0.5,1.09961 -0.20117,0.5 h -0.79883 L 917,77.099609 916.80078,72.300781 916,70.400391 h -6 z m 42.09961,31.59961 -2,0.701172 L 909,101.59961 910.80078,103.5 c 0,0 1.29883,0.10078 1.29883,-0.19922 0,-0.3 0.20117,-2 0.20117,-2 L 913.19922,100.5 Z"
       id="ME-D2-land"
       inkscape:connector-curvature="0" />
    <path
       style="fill:#ffffff;fill-opacity:1"
       d="m 867.30078,89.699219 v 2.601562 l -1.5,-0.40039 L 864.5,92.070312 876.19922,129.5 l 0.20117,2.5 4,1.09961 0.5,3.09961 2.19922,0.90039 1.09961,-6.29883 0.20117,-4.40039 1.5,-1.30078 -1,-3.19922 3.09961,-3.59961 1.59961,1.5 1.30078,-0.5 5.29883,-3.10156 0.30078,-2.89844 2.90039,-0.5 L 901,110.19922 900.80078,108.59961 900.5,105.5 901.30078,104.19922 901,103.09961 l -1.30078,-1.5 z m 36.5,16.300781 -1.5,1.5 1.79883,2.90039 1.70117,-0.90039 -0.60156,-2.40039 z"
       id="ME-D3-land"
       inkscape:connector-curvature="0" />
    <path
       id="MI"
       d="m 644.5,211 19.1,-1.9 0.2,1.1 9.9,-1.5 12,-1.7 0.1,-0.6 0.2,-1.5 2.1,-3.7 2,-1.7 -0.2,-5.1 1.6,-1.6 1.1,-0.3 0.2,-3.6 1.5,-3 1.1,0.6 0.2,0.6 0.8,0.2 1.9,-1 -0.4,-9.1 -3.2,-8.2 -2.3,-9.1 -2.4,-3.2 -2.6,-1.8 -1.6,1.1 -3.9,1.8 -1.9,5 -2.7,3.7 -1.1,0.6 -1.5,-0.6 c 0,0 -2.6,-1.5 -2.4,-2.1 0.2,-0.6 0.5,-5 0.5,-5 l 3.4,-1.3 0.8,-3.4 0.6,-2.6 2.4,-1.6 -0.3,-10 -1.6,-2.3 -1.3,-0.8 -0.8,-2.1 0.8,-0.8 1.6,0.3 0.2,-1.6 -2.6,-2.2 -1.3,-2.6 h -2.6 l -4.5,-1.5 -5.5,-3.4 h -2.7 l -0.6,0.6 -1,-0.5 -3.1,-2.3 -2.9,1.8 -2.9,2.3 0.3,3.6 1,0.3 2.1,0.5 0.5,0.8 -2.6,0.8 -2.6,0.3 -1.5,1.8 -0.3,2.1 0.3,1.6 0.3,5.5 -3.6,2.1 -0.6,-0.2 v -4.2 l 1.3,-2.4 0.6,-2.4 -0.8,-0.8 -1.9,0.8 -1,4.2 -2.7,1.1 -1.8,1.9 -0.2,1 0.6,0.8 -0.6,2.6 -2.3,0.5 v 1.1 l 0.8,2.4 -1.1,6.1 -1.6,4 0.6,4.7 0.5,1.1 -0.8,2.4 -0.3,0.8 -0.3,2.7 3.6,6 2.9,6.5 1.5,4.8 -0.8,4.7 -1,6 -2.4,5.2 -0.3,2.7 -3.2,3.1 z m -33.3,-72.4 -1.3,-1.1 -1.8,-10.4 -3.7,-1.3 -1.7,-2.3 -12.6,-2.8 -2.8,-1.1 -8.1,-2.2 -7.8,-1 -3.9,-5.3 0.7,-0.5 2.7,-0.8 3.6,-2.3 v -1 l 0.6,-0.6 6,-1 2.4,-1.9 4.4,-2.1 0.2,-1.3 1.9,-2.9 1.8,-0.8 1.3,-1.8 2.3,-2.3 4.4,-2.4 4.7,-0.5 1.1,1.1 -0.3,1 -3.7,1 -1.5,3.1 -2.3,0.8 -0.5,2.4 -2.4,3.2 -0.3,2.6 0.8,0.5 1,-1.1 3.6,-2.9 1.3,1.3 h 2.3 l 3.2,1 1.5,1.1 1.5,3.1 2.7,2.7 3.9,-0.2 1.5,-1 1.6,1.3 1.6,0.5 1.3,-0.8 h 1.1 l 1.6,-1 4,-3.6 3.4,-1.1 6.6,-0.3 4.5,-1.9 2.6,-1.3 1.5,0.2 v 5.7 l 0.5,0.3 2.9,0.8 1.9,-0.5 6.1,-1.6 1.1,-1.1 1.5,0.5 v 7 l 3.2,3.1 1.3,0.6 1.3,1 -1.3,0.3 -0.8,-0.3 -3.7,-0.5 -2.1,0.6 -2.3,-0.2 -3.2,1.5 h -1.8 l -5.8,-1.3 -5.2,0.2 -1.9,2.6 -7,0.6 -2.4,0.8 -1.1,3.1 -1.3,1.1 -0.5,-0.2 -1.5,-1.6 -4.5,2.4 h -0.6 l -1.1,-1.6 -0.8,0.2 -1.9,4.4 -1,4 -3.2,6.9 z m -29.6,-56.5 1.8,-2.1 2.2,-0.8 5.4,-3.9 2.3,-0.6 0.5,0.5 -5.1,5.1 -3.3,1.9 -2.1,0.9 z m 86.2,32.1 0.6,2.5 3.2,0.2 1.3,-1.2 c 0,0 -0.1,-1.5 -0.4,-1.6 -0.3,-0.2 -1.6,-1.9 -1.6,-1.9 l -2.2,0.2 -1.6,0.2 -0.3,1.1 z"
       inkscape:connector-curvature="0"
       style="fill:#ffffff;fill-opacity:1" />
    <path
       id="MN"
       d="M 464.6,66.79 464,70.7 v 10.27 l 1.6,5.03 1.9,3.32 0.5,9.93 1.8,13.45 1.8,7.3 0.4,6.4 v 5.3 l -1.6,1.8 -1.8,1.3 v 1.5 l 0.9,1.7 4.1,3.5 0.7,3.2 v 35.9 l 60.3,-0.6 21.2,-0.7 -0.5,-6 -1.8,-2.1 -7.2,-4.6 -3.6,-5.3 -3.4,-0.9 -2,-2.8 h -3.2 l -3.5,-3.8 -0.5,-7 0.1,-3.9 1.5,-3 -0.7,-2.7 -2.8,-3.1 2.2,-6.1 5.4,-4 1.2,-1.4 -0.2,-8 0.2,-3 2.6,-3 3.8,-2.9 1.3,-0.2 4.5,-5 1.8,-0.8 2.3,-3.9 2.4,-3.6 3.1,-2.6 4.8,-2 9.2,-4.1 3.9,-1.8 0.6,-2.3 -4.4,0.4 -0.7,1.1 h -0.6 l -1.8,-3.1 -8.9,0.3 -1,0.8 h -1 l -0.5,-1.3 -0.8,-1.8 -2.6,0.5 -3.2,3.2 -1.6,0.8 h -3.1 l -2.6,-1 v -2.1 l -1.3,-0.2 -0.5,0.5 -2.6,-1.3 -0.5,-2.9 -1.5,0.5 -0.5,1 -2.4,-0.5 -5.3,-2.4 -3.9,-2.6 h -2.9 l -1.3,-1 -2.3,0.6 -1.1,1.1 -0.3,1.3 h -4.8 v -2.1 l -6.3,-0.3 -0.3,-1.5 h -4.8 l -1.6,-1.6 -1.5,-6.1 -0.8,-5.5 -1.9,-0.8 -2.3,-0.5 -0.6,0.2 -0.3,8.2 -30.1,-0.03 z"
       inkscape:connector-curvature="0"
       style="fill:#ffffff;fill-opacity:1" />
    <path
       id="MO"
       d="m 593.1,338.7 0.5,-5.9 4.2,-3.4 1.9,-1 v -2.9 l 0.7,-1.6 -1.1,-1.6 -2.4,0.3 -2.1,-2.5 -1.7,-4.5 0.9,-2.6 -2,-3.2 -1.8,-4.6 -4.6,-0.7 -6.8,-5.6 -2.2,-4.2 0.8,-3.3 2.2,-6 0.6,-3 -1.9,-1 -6.9,-0.6 -1.1,-1.9 v -4.1 l -5.3,-3.5 -7.2,-7.8 -2.3,-7.3 -0.5,-4.2 0.7,-2.4 -2.6,-3.1 -1.2,-2.4 -7.7,0.8 -10,0.6 -48.8,1.2 1.3,2.6 -0.1,2.2 2.3,3.6 3,3.9 3.1,3 2.6,0.2 1.4,1.1 v 2.9 l -1.8,1.6 -0.5,2.3 2.1,3.2 2.4,3 2.6,2.1 1.3,11.6 -0.8,40 0.5,5.7 23.7,-0.2 23.3,-0.7 32.5,-1.3 2.2,3.7 -0.8,3.1 -3.1,2.5 -0.5,1.8 5.2,0.5 4.1,-1.1 z"
       inkscape:connector-curvature="0"
       style="fill:#ffffff;fill-opacity:1"
       inkscape:label="MO" />
    <path
       id="MS"
       d="m 604.3,472.5 2.6,-4.2 1.8,0.8 6.8,-1.9 2.1,0.3 1.5,0.8 h 5.2 l 0.4,-1.6 -1.7,-14.8 -2.8,-19 1,-45.1 -0.2,-16.7 0.2,-6.3 -4.8,0.3 -19.6,1.6 -13,0.4 -0.2,3.2 -2.8,1.3 -2.6,5.1 0.5,1.6 0.1,2.4 -2.9,1.1 -3.5,5.1 0.8,2.3 -3,2.5 -1,5.7 -0.6,1.9 1.6,2.5 -1.5,1.4 1.5,2.8 0.3,4.2 -1.2,2.5 -0.2,0.9 0.4,5 2,4.5 -0.1,1.7 2.3,2 -0.7,3.1 -0.9,0.3 0.6,1.9 -8.6,15 -0.8,8.2 0.5,1.5 24.2,-0.7 8.2,-0.7 1.9,-0.3 0.6,1.4 -1,7.1 3.3,3.3 2.2,6.4 z"
       inkscape:connector-curvature="0"
       style="fill:#ffffff;fill-opacity:1" />
    <path
       id="MT"
       d="m 361.1,70.77 -5.3,57.13 -1.3,15.2 -59.1,-6.6 -49,-7.1 -1.4,11.2 -1.9,-1.7 -0.4,-2.5 -1.3,-1.9 -3.3,1.5 -0.7,2.5 -2.3,0.3 -3.8,-1.6 -4.1,0.1 -2.4,0.7 -3.2,-1.5 -3,0.2 -2.1,1.9 -0.9,-0.6 -0.7,-3.4 0.7,-3.2 -2.7,-3.2 -3.3,-2.5 -2.5,-12.6 -0.1,-5.3 -1.6,-0.8 -0.6,1 -4.5,3.2 -1.2,-0.1 -2.3,-2.8 -0.2,-2.8 7,-17.15 -0.6,-2.67 -3.5,-1.12 -0.4,-0.91 -2.7,-3.5 -4.6,-10.41 -3.2,-1.58 -1.8,-4.26 1.3,-4.63 -3.2,-7.57 4.4,-21.29 32.7,6.89 18.4,3.4 32.3,5.3 29.3,4 29.2,3.5 30.8,3.07 z"
       inkscape:connector-curvature="0"
       style="fill:#ffffff;fill-opacity:1" />
    <path
       id="NC"
       d="M 786.7,357.7 774,350 l -3.1,-0.8 -16.6,2.1 -1.6,-3 -2.8,-2.2 -16.7,0.5 -7.4,0.9 -9.2,4.5 -6.8,2.7 -6.5,1.2 -13.4,1.4 0.1,-4.1 1.7,-1.3 2.7,-0.7 0.7,-3.8 3.9,-2.5 3.9,-1.5 4.5,-3.7 4.4,-2.3 0.7,-3.2 4.1,-3.8 0.7,1 2.5,0.2 2.4,-3.6 1.7,-0.4 2.6,0.3 1.8,-4 2.5,-2.4 0.5,-1.8 0.1,-3.5 4.4,0.1 38.5,-5.6 57.5,-12.3 2,4.8 3.6,6.5 2.4,2.4 0.6,2.3 -2.4,0.2 0.8,0.6 -0.3,4.2 -2.6,1.3 -0.6,2.1 -1.3,2.9 -3.7,1.6 -2.4,-0.3 -1.5,-0.2 -1.6,-1.3 0.3,1.3 v 1 h 1.9 l 0.8,1.3 -1.9,6.3 h 4.2 l 0.6,1.6 2.3,-2.3 1.3,-0.5 -1.9,3.6 -3.1,4.8 H 828 l -1.1,-0.5 -2.7,0.6 -5.2,2.4 -6.5,5.3 -3.4,4.7 -1.9,6.5 -0.5,2.4 -4.7,0.5 -5.1,1.5 z m 49.3,-26.2 2.6,-2.5 3.2,-2.6 1.5,-0.6 0.2,-2 -0.6,-6.1 -1.5,-2.3 -0.6,-1.9 0.7,-0.2 2.7,5.5 0.4,4.4 -0.2,3.4 -3.4,1.5 -2.8,2.4 -1.1,1.2 z"
       inkscape:connector-curvature="0"
       style="fill:#ffffff;fill-opacity:1" />
    <path
       id="ND"
       d="m 471,126.4 -0.4,-6.2 -1.8,-7.3 -1.8,-13.61 -0.5,-9.7 -1.9,-3.18 -1.6,-5.32 V 70.68 l 0.6,-3.85 -1.8,-5.54 -28.6,-0.59 -18.6,-0.6 -26.5,-1.3 -25.2,-2.16 -0.9,14.42 -4.7,50.94 56.8,3.9 56.9,1.7 z"
       inkscape:connector-curvature="0"
       style="fill:#ffffff;fill-opacity:1" />
    <path
       style="fill:#ffffff;fill-opacity:1"
       d="M 381.29505,189.42145 352.4,187.7 l -4.3,43.7 33.1,3.3"
       id="NE-D4-land"
       inkscape:connector-curvature="0"
       sodipodi:nodetypes="cccc" />
    <path
       style="fill:#ffffff;fill-opacity:1"
       d="m 448.40961,258.0875 10.11539,0.1375 5.475,0.075 5.475,0.075 5.475,0.075 5.475,0.075 5.475,0.075 h 4.5 l -2.2,-3 -2.6,-3.9 0.1,-2.3 -1.4,-2.7 -1.9,-5.2 -0.4,-6.7 -1.4,-4.1 -0.5,-5 -2.3,-3.7 -1,-4.7 -2.8,-7.9 -1,-5.3 -2.7,0.2 -1,-2.3 -0.5,-1.6 -2.9,-1.6 -4.8,-1.5 -2.2,-1.2 -2.6,0.1 -3.7,0.4 -4.2,1.2"
       id="NE-D1-land"
       inkscape:label="ned1land"
       inkscape:connector-curvature="0"
       sodipodi:nodetypes="ccccccccccccccccccccccccccccc" />
    <path
       style="fill:#ffffff;fill-opacity:1"
       d="m 448.4,197.8 -6,-4.1 -2.2,-2 -10.7,0.6 -10.375,-0.6 -0.0125,65.6375 12.8375,0.3625 10.15,0.3 5.475,0.075 0.83461,0.0125"
       id="NE-D2-land"
       inkscape:label="ned1land"
       inkscape:connector-curvature="0"
       sodipodi:nodetypes="cccccccccc" />
    <path
       style="fill:#ffffff;fill-opacity:1"
       d="M 419.125,191.7 408.75,191.1 398.375,190.5 381.29505,189.42145 381.2,234.7 l -1.4,21.1 21.7,1 10.15,0.3 7.4625,0.2375"
       id="NE-D3-land"
       inkscape:label="ned3land"
       inkscape:connector-curvature="0"
       sodipodi:nodetypes="ccccccccc" />
    <path
       id="NH"
       d="m 881.7,141.3 1.1,-3.2 -2.7,-1.2 -0.5,-3.1 -4.1,-1.1 -0.3,-3 -11.7,-37.48 -0.7,0.08 -0.6,1.6 -0.6,-0.5 -1,-1 -1.5,1.9 -0.2,2.29 0.5,8.41 1.9,2.8 v 4.3 l -3.9,4.8 -2.4,0.9 v 0.7 l 1.1,1.9 v 8.6 l -0.8,9.2 -0.2,4.7 1,1.4 -0.2,4.7 -0.5,1.5 1,1.1 5.1,-1.2 13.8,-3.5 1.7,-2.9 4,-1.9 z"
       inkscape:connector-curvature="0"
       style="fill:#ffffff;fill-opacity:1" />
    <path
       id="NJ"
       d="m 823.7,228.3 0.1,-1.5 2.7,-1.3 1.7,-2.8 1.7,-2.4 3.3,-3.2 v -1.2 l -6.1,-4.1 -1,-2.7 -2.7,-0.3 -0.1,-0.9 -0.7,-2.2 2.2,-1.1 0.2,-2.9 -1.3,-1.3 0.2,-1.2 1.9,-3.1 V 193 l 2.5,-3.1 5.6,2.5 6.4,1.9 2.5,1.2 0.1,1.8 -0.5,2.7 0.4,4.5 -2.1,1.9 -1.1,1 0.5,0.5 2.7,-0.3 1.1,-0.8 1.6,3.4 0.2,9.4 0.6,1.1 -1.1,5.5 -3.1,6.5 -2.7,4 -0.8,4.8 -2.1,2.4 h -0.8 l -0.3,-2.7 0.8,-1 -0.2,-1.5 -4,-0.6 -4.8,-2.3 -3.2,-2.9 -1,-2 z"
       inkscape:connector-curvature="0"
       style="fill:#ffffff;fill-opacity:1" />
    <path
       id="NM"
       d="m 270.2,429.4 -16.7,-2.6 -1.2,9.6 -15.8,-2 6,-39.7 7,-53.2 4.4,-30.9 34,3.9 37.4,4.4 32,2.8 -0.3,10.8 -1.4,-0.1 -7.4,97.7 -28.4,-1.8 -38.1,-3.7 0.7,6.3 z"
       inkscape:connector-curvature="0"
       style="fill:#ffffff;fill-opacity:1" />
    <path
       id="NV"
       d="m 123.1,173.6 38.7,8.5 26,5.2 -10.6,53.1 -5.4,29.8 -3.3,15.5 -2.1,11.1 -2.6,16.4 -1.7,3.1 -1.6,-0.1 -1.2,-2.6 -2.8,-0.5 -1.3,-1.1 -1.8,0.1 -0.9,0.8 -1.8,1.3 -0.3,7.3 -0.3,1.5 -0.5,12.4 -1.1,1.8 -16.7,-25.5 -42.1,-62.1 -12.43,-19 8.55,-32.6 8.01,-31.3 z"
       inkscape:connector-curvature="0"
       style="fill:#ffffff;fill-opacity:1" />
    <path
       id="NY"
       d="m 843.4,200 0.5,-2.7 -0.2,-2.4 -3,-1.5 -6.5,-2 -6,-2.6 -0.6,-0.4 -2.7,-0.3 -2,-1.5 -2.1,-5.9 -3.3,-0.5 -2.4,-2.4 -38.4,8.1 -31.6,6 -0.5,-6.5 1.6,-1.2 1.3,-1.1 1,-1.6 1.8,-1.1 1.9,-1.8 0.5,-1.6 2.1,-2.7 1.1,-1 -0.2,-1 -1.3,-3.1 -1.8,-0.2 -1.9,-6.1 2.9,-1.8 4.4,-1.5 4,-1.3 3.2,-0.5 6.3,-0.2 1.9,1.3 1.6,0.2 2.1,-1.3 2.6,-1.1 5.2,-0.5 2.1,-1.8 1.8,-3.2 1.6,-1.9 h 2.1 l 1.9,-1.1 0.2,-2.3 -1.5,-2.1 -0.3,-1.5 1.1,-2.1 v -1.5 h -1.8 l -1.8,-0.8 -0.8,-1.1 -0.2,-2.6 5.8,-5.5 0.6,-0.8 1.5,-2.9 2.9,-4.5 2.7,-3.7 2.1,-2.4 2.4,-1.8 3.1,-1.2 5.5,-1.3 3.2,0.2 4.5,-1.5 7.4,-2.2 0.7,4.9 2.4,6.5 0.8,5 -1,4.2 2.6,4.5 0.8,2 -0.9,3.2 3.7,1.7 2.7,10.2 v 5.8 l -0.6,10.9 0.8,5.4 0.7,3.6 1.5,7.3 v 8.1 l -1.1,2.3 2.1,2.7 0.5,0.9 -1.9,1.8 0.3,1.3 1.3,-0.3 1.5,-1.3 2.3,-2.6 1.1,-0.6 1.6,0.6 2.3,0.2 7.9,-3.9 2.9,-2.7 1.3,-1.5 4.2,1.6 -3.4,3.6 -3.9,2.9 -7.1,5.3 -2.6,1 -5.8,1.9 -4,1.1 -1,-0.4 z"
       inkscape:connector-curvature="0"
       style="fill:#ffffff;fill-opacity:1" />
    <path
       id="OH"
       d="m 663.8,211.2 1.7,15.5 4.8,41.1 3.9,-0.2 2.3,-0.8 3.6,1.8 1.7,4.2 5.4,0.1 1.8,2 h 1.7 l 2.4,-1.4 3.1,0.5 1.5,1.3 1.8,-2 2.3,-1.4 2.4,-0.4 0.6,2.7 1.6,1 2.6,2 0.8,0.2 2,-0.1 1.2,-0.6 v -2.1 l 1.7,-1.5 0.1,-4.8 1.1,-4.2 1.9,-1.3 1,0.7 1,1.1 0.7,0.2 0.4,-0.4 -0.9,-2.7 v -2.2 l 1.1,-1.4 2.5,-3.6 1.3,-1.5 2.2,0.5 2.1,-1.5 3,-3.3 2.2,-3.7 0.2,-5.4 0.5,-5 V 230 l -1.2,-3.2 1.2,-1.8 1.3,-1.2 -0.6,-2.8 -4.3,-25.6 -6.2,3.7 -3.9,2.3 -3.4,3.7 -4,3.9 -3.2,0.8 -2.9,0.5 -5.5,2.6 -2.1,0.2 -3.4,-3.1 -5.2,0.6 -2.6,-1.5 -2.2,-1.3 z"
       inkscape:connector-curvature="0"
       style="fill:#ffffff;fill-opacity:1" />
    <path
       id="OK"
       d="m 411.9,334.9 -1.8,24.3 -0.9,18 0.2,1.6 4,3.6 1.7,0.9 h 0.9 l 0.9,-2.1 1.5,1.9 1.6,0.1 0.3,-0.2 0.2,-1.1 2.8,1.4 -0.4,3.5 3.8,0.5 2.5,1 4.2,0.6 2.3,1.6 2.5,-1.7 3.5,0.7 2.2,3.1 1.2,0.1 v 2.3 l 2.1,0.7 2.5,-2.1 1.8,0.6 2.7,0.1 0.7,2.3 4.4,1.8 1.7,-0.3 1.9,-4.2 h 1.3 l 1.1,2.1 4.2,0.8 3.4,1.3 3,0.8 1.6,-0.7 0.7,-2.7 h 4.5 l 1.9,0.9 2.7,-1.9 h 1.4 l 0.6,1.4 h 3.6 l 2,-1.8 2.3,0.6 1.7,2.2 3,1.7 3.4,0.9 1.9,1.2 -0.3,-37.6 -1.4,-10.9 -0.1,-8.6 -1.5,-6.6 -0.6,-6.8 0.1,-4.3 -12.6,0.3 -46.3,-0.5 -44.7,-2.1 -41.5,-1.8 -0.4,10.7 z"
       inkscape:connector-curvature="0"
       style="fill:#ffffff;fill-opacity:1" />
    <path
       id="OR"
       d="m 67.44,158.9 28.24,7.2 27.52,6.5 17,3.7 8.8,-35.1 1.2,-4.4 2.4,-5.5 -0.7,-1.3 -2.5,0.1 -1.3,-1.8 0.6,-1.5 0.4,-3.3 4.7,-5.7 1.9,-0.9 0.9,-0.8 0.7,-2.7 0.8,-1.1 3.9,-5.7 3.7,-4 0.2,-3.26 -3.4,-2.49 -1.2,-4.55 -13.1,-3.83 -15.3,-3.47 -14.8,0.37 -1.1,-1.31 -5.1,1.84 -4.5,-0.48 -2.4,-1.58 -1.3,0.54 -4.68,-0.29 -1.96,-1.43 -4.84,-1.77 -1.1,-0.07 -4.45,-1.27 -1.76,1.52 -6.26,-0.24 -5.31,-3.85 0.21,-9.28 -2.05,-3.5 -4.1,-0.6 -0.7,-2.5 -2.4,-0.5 -5.8,2.1 -2.3,6.5 -3.2,10 -3.2,6.5 -5,14.1 -6.5,13.6 -8.1,12.6 -1.9,2.9 -0.8,8.6 -1.3,6 2.71,3.5 z"
       inkscape:connector-curvature="0"
       style="fill:#ffffff;fill-opacity:1" />
    <path
       id="PA"
       d="m 736.6,192.2 1.3,-0.5 5.7,-5.5 0.7,6.9 33.5,-6.5 36.9,-7.8 2.3,2.3 3.1,0.4 2,5.6 2.4,1.9 2.8,0.4 0.1,0.1 -2.6,3.2 v 3.1 l -1.9,3.1 -0.2,1.9 1.3,1.3 -0.2,1.9 -2.4,1.1 1,3.4 0.2,1.1 2.8,0.3 0.9,2.5 5.9,3.9 v 0.4 l -3.1,3 -1.5,2.2 -1.7,2.8 -2.7,1.2 -1.4,0.3 -2.1,1.3 -1.6,1.4 -22.4,4.3 -38.7,7.8 -11.3,1.4 -3.9,0.7 -5.1,-22.4 -4.3,-25.9 z"
       inkscape:connector-curvature="0"
       style="fill:#ffffff;fill-opacity:1" />
    <path
       id="RI"
       d="m 873.6,175.7 -0.8,-4.4 -1.6,-6 5.7,-1.5 1.5,1.3 3.4,4.3 2.8,4.4 -2.8,1.4 -1.3,-0.2 -1.1,1.8 -2.4,1.9 -2.8,1.1 z"
       inkscape:connector-curvature="0"
       style="fill:#ffffff;fill-opacity:1" />
    <path
       id="SC"
       d="m 759,413.6 -2.1,-1 -1.9,-5.6 -2.5,-2.3 -2.5,-0.5 -1.5,-4.6 -3,-6.5 -4.2,-1.8 -1.9,-1.8 -1.2,-2.6 -2.4,-2 -2.3,-1.3 -2.2,-2.9 -3.2,-2.4 -4.4,-1.7 -0.4,-1.4 -2.3,-2.8 -0.5,-1.5 -3.8,-5.4 -3.4,0.1 -3.9,-2.5 -1.2,-1.2 -0.2,-1.4 0.6,-1.6 2.7,-1.3 -0.8,-2 6.4,-2.7 9.2,-4.5 7.1,-0.9 16.4,-0.5 2.3,1.9 1.8,3.5 4.6,-0.8 12.6,-1.5 2.7,0.8 12.5,7.4 10.1,8.3 -5.3,5.4 -2.6,6.1 -0.5,6.3 -1.6,0.8 -1.1,2.7 -2.4,0.6 -2.1,3.6 -2.7,2.7 -2.3,3.4 -1.6,0.8 -3.6,3.4 -2.9,0.2 1,3.2 -5,5.3 -2.3,1.6 z"
       inkscape:connector-curvature="0"
       style="fill:#ffffff;fill-opacity:1" />
    <path
       id="SD"
       d="m 471,181.1 -0.9,3.2 0.4,3 2.6,2 -1.2,5.4 -1.8,4.1 1.5,3.3 0.7,1.1 -1.3,0.1 -0.7,-1.6 -0.6,-2 -3.3,-1.8 -4.8,-1.5 -2.5,-1.3 -2.9,0.1 -3.9,0.4 -3.8,1.2 -5.3,-3.8 -2.7,-2.4 -10.9,0.8 -41.5,-2.4 -35.6,-2.2 1.5,-24.8 2.8,-34 0.4,-5 56.9,3.9 56.9,1.7 v 2.7 l -1.3,1.5 -2,1.5 -0.1,2.2 1.1,2.2 4.1,3.4 0.5,2.7 v 35.9 z"
       inkscape:connector-curvature="0"
       style="fill:#ffffff;fill-opacity:1" />
    <path
       id="TN"
       d="m 670.8,359.6 -13.1,1.2 -23.3,2.2 -37.6,2.7 -11.8,0.4 0.9,-0.6 0.9,-4.5 -1.2,-3.6 3.9,-2.3 0.4,-2.5 1.2,-4.3 3,-9.5 0.5,-5.6 0.3,-0.2 12.3,-0.2 13.6,-0.8 0.1,-3.9 3.5,-0.1 30.4,-3.3 54,-5.2 10.3,-1.5 7.6,-0.2 2.4,-1.9 1.3,0.3 -0.1,3.3 -0.4,1.6 -2.4,2.2 -1.6,3.6 -2,-0.4 -2.4,0.9 -2.2,3.3 -1.4,-0.2 -0.8,-1.2 -1.1,0.4 -4.3,4 -0.8,3.1 -4.2,2.2 -4.3,3.6 -3.8,1.5 -4.4,2.8 -0.6,3.6 -2.5,0.5 -2,1.7 -0.2,4.8 z"
       inkscape:connector-curvature="0"
       style="fill:#ffffff;fill-opacity:1" />
    <path
       id="TX"
       d="m 282.8,425.6 37,3.6 29.3,1.9 7.4,-97.7 54.4,2.4 -1.7,23.3 -1,18 0.2,2 4.4,4.1 2,1.1 h 1.8 l 0.5,-1.2 0.7,0.9 2.4,0.2 1.1,-0.6 v -0.2 l 1,0.5 -0.4,3.7 4.5,0.7 2.4,0.9 4.2,0.7 2.6,1.8 2.8,-1.9 2.7,0.6 2.2,3.1 0.8,0.1 v 2.1 l 3.3,1.1 2.5,-2.1 1.5,0.5 2.1,0.1 0.6,2.1 5.2,2 2.3,-0.5 1.9,-4 h 0.1 l 1.1,1.9 4.6,0.9 3.4,1.3 3.2,1 2.4,-1.2 0.7,-2.3 h 3.6 l 2.1,1 3,-2 h 0.4 l 0.5,1.4 h 4.7 l 1.9,-1.8 1.3,0.4 1.7,2.1 3.3,1.9 3.4,1 2.5,1.4 2.7,2 3.1,-1.2 2.1,0.8 0.7,20 0.7,9.5 0.6,4.1 2.6,4.4 0.9,4.5 4.2,5.9 0.3,3.1 0.6,0.8 -0.7,7.7 -2.9,4.8 1.3,2.6 -0.5,2.4 -0.8,7.2 -1.3,3 0.3,4.2 -5.6,1.6 -9.9,4.5 -1,1.9 -2.6,1.9 -2.1,1.5 -1.3,0.8 -5.7,5.3 -2.7,2.1 -5.3,3.2 -5.7,2.4 -6.3,3.4 -1.8,1.5 -5.8,3.6 -3.4,0.6 -3.9,5.5 -4,0.3 -1,1.9 2.3,1.9 -1.5,5.5 -1.3,4.5 -1.1,3.9 -0.8,4.5 0.8,2.4 1.8,7 1,6.1 1.8,2.7 -1,1.5 -3.1,1.9 -5.7,-3.9 -5.5,-1.1 -1.3,0.5 -3.2,-0.6 -4.2,-3.1 -5.2,-1.1 -7.6,-3.4 -2.1,-3.9 -1.3,-6.5 -3.2,-1.9 -0.6,-2.3 0.6,-0.6 0.3,-3.4 -1.3,-0.6 -0.6,-1 1.3,-4.4 -1.6,-2.3 -3.2,-1.3 -3.4,-4.4 -3.6,-6.6 -4.2,-2.6 0.2,-1.9 -5.3,-12.3 -0.8,-4.2 -1.8,-1.9 -0.2,-1.5 -6,-5.3 -2.6,-3.1 v -1.1 l -2.6,-2.1 -6.8,-1.1 -7.4,-0.6 -3.1,-2.3 -4.5,1.8 -3.6,1.5 -2.3,3.2 -1,3.7 -4.4,6.1 -2.4,2.4 -2.6,-1 -1.8,-1.1 -1.9,-0.6 -3.9,-2.3 v -0.6 l -1.8,-1.9 -5.2,-2.1 -7.4,-7.8 -2.3,-4.7 v -8.1 l -3.2,-6.5 -0.5,-2.7 -1.6,-1 -1.1,-2.1 -5,-2.1 -1.3,-1.6 -7.1,-7.9 -1.3,-3.2 -4.7,-2.3 -1.5,-4.4 -2.6,-2.9 -1.7,-0.5 z m 174.4,141.7 -0.6,-7.1 -2.7,-7.2 -0.6,-7 1.5,-8.2 3.3,-6.9 3.5,-5.4 3.2,-3.6 0.6,0.2 -4.8,6.6 -4.4,6.5 -2,6.6 -0.3,5.2 0.9,6.1 2.6,7.2 0.5,5.2 0.2,1.5 z"
       inkscape:connector-curvature="0"
       style="fill:#ffffff;fill-opacity:1" />
    <path
       id="UT"
       d="m 228.4,305.9 24.6,3.6 1.9,-13.7 7,-50.5 2.3,-22 -32.2,-3.5 2.2,-13.1 1.8,-10.6 -34.7,-6.1 -12.5,-2.5 -10.6,52.9 -5.4,30 -3.3,15.4 -1.7,9.2 z"
       inkscape:connector-curvature="0"
       style="fill:#ffffff;fill-opacity:1" />
    <path
       id="VA"
       d="m 834.7,265.2 -0.2,2.8 -2.9,3.8 -0.4,4.6 0.5,3.4 -1.8,5 -2.2,1.9 -1.5,-4.6 0.4,-5.4 1.6,-4.2 0.7,-3.3 -0.1,-1.7 z m -60.3,44.6 -38.6,5.6 -4.8,-0.1 -2.2,-0.3 -2.5,1.9 -7.3,0.1 -10.3,1.6 -6.7,0.6 4.1,-2.6 4.1,-2.3 v -2.1 l 5.7,-7.3 4.1,-3.7 2.2,-2.5 3.6,4.3 3.8,0.9 2.7,-1 2,-1.5 2.4,1.2 4.6,-1.3 1.7,-4.4 2.4,0.7 3.2,-2.3 1.6,0.4 2.8,-3.2 0.2,-2.7 -0.8,-1.2 4.8,-10.5 1.8,-5.2 0.5,-4.7 0.7,-0.2 1.1,1.7 1.5,1.2 3.9,-0.2 1.7,-8.1 3,-0.6 0.8,-2.6 2.8,-2.2 1.1,-2.1 1.8,-4.3 0.1,-4.6 3.6,1.4 6.6,3.1 0.3,-5.2 3.4,1.2 -0.6,2.9 8.6,3.1 1.4,1.8 -0.8,3.3 -1.3,1.3 -0.5,1.7 0.5,2.4 2,1.3 3.9,1.4 2.9,1 4.9,0.9 2.2,2.1 3.2,0.4 0.9,1.2 -0.4,4.7 1.4,1.1 -0.5,1.9 1.2,0.8 -0.2,1.4 -2.7,-0.1 0.1,1.6 2.3,1.5 0.1,1.4 1.8,1.8 0.5,2.5 -2.6,1.4 1.6,1.5 5.8,-1.7 3.7,6.2 z"
       inkscape:connector-curvature="0"
       style="fill:#ffffff;fill-opacity:1" />
    <path
       id="VT"
       d="m 832.7,111.3 2.4,6.5 0.8,5.3 -1,3.9 2.5,4.4 0.9,2.3 -0.7,2.6 3.3,1.5 2.9,10.8 v 5.3 l 11.5,-2.1 -1,-1.1 0.6,-1.9 0.2,-4.3 -1,-1.4 0.2,-4.7 0.8,-9.3 v -8.5 l -1.1,-1.8 v -1.6 l 2.8,-1.1 3.5,-4.4 v -3.6 l -1.9,-2.7 -0.3,-5.79 -26.1,6.79 z"
       inkscape:connector-curvature="0"
       style="fill:#ffffff;fill-opacity:1" />
    <path
       id="WA"
       d="m 74.5,67.7 -2.3,-4.3 -4.1,-0.7 -0.4,-2.4 -2.5,-0.6 -2.9,-0.5 -1.8,1 -2.3,-2.9 0.3,-2.9 2.7,-0.3 1.6,-4 L 60.2,49 60.4,45.3 64.8,44.7 62.1,42 60.6,34.9 61.2,32 v -7.9 l -1.8,-3.2 2.3,-9.4 2.1,0.5 2.4,2.9 2.7,2.6 3.2,1.9 4.5,2.1 3.1,0.6 2.9,1.5 3.4,1 2.3,-0.2 V 22 l 1.3,-1.1 2.1,-1.3 0.3,1.1 0.3,1.8 -2.3,0.5 -0.3,2.1 1.8,1.5 1.1,2.4 0.6,1.9 1.5,-0.2 0.2,-1.3 -1,-1.3 -0.5,-3.2 0.8,-1.8 -0.6,-1.5 V 19 L 95.4,15.4 94.3,12.8 91.9,8 92.2,7.2 93.6,6.4 98,7.9 l 9.7,2.7 8.6,1.9 20,5.7 23,5.7 15,3.49 -4.8,17.56 -4.5,20.83 -3.4,16.25 -0.4,9.18 -12.9,-3.72 -15.3,-3.47 -14.5,0.32 -1.1,-1.53 -5.7,2.09 -3.9,-0.42 -2.6,-1.79 -1.7,0.65 -4.15,-0.25 -1.72,-1.32 -5.16,-1.82 -1.18,-0.16 -4.8,-1.39 -1.92,1.65 -5.65,-0.25 -4.61,-3.35 z m 9.6,-55.4 2,-0.2 0.5,1.4 1.5,-1.6 h 2.3 l 0.8,1.5 -1.5,1.7 0.6,0.8 -0.7,2 -1.4,0.4 c 0,0 -0.9,0.1 -0.9,-0.2 0,-0.3 1.5,-2.6 1.5,-2.6 l -1.7,-0.6 -0.3,1.5 -0.7,0.6 -1.5,-2.3 z"
       inkscape:connector-curvature="0"
       style="fill:#ffffff;fill-opacity:1" />
    <path
       id="WI"
       d="m 541.4,109.9 2.9,0.5 2.9,-0.6 7.4,-3.2 2.9,-1.9 2.1,-0.8 1.9,1.5 -1.1,1.1 -1.9,3.1 -0.6,1.9 1,0.6 1.8,-1 1.1,-0.2 2.7,0.8 0.6,1.1 1.1,0.2 0.6,-1.1 4,5.3 8.2,1.2 8.2,2.2 2.6,1.1 12.3,2.6 1.6,2.3 3.6,1.2 1.7,10.2 1.6,1.4 1.5,0.9 -1.1,2.3 -1.8,1.6 -2.1,4.7 -1.3,2.4 0.2,1.8 1.5,0.3 1.1,-1.9 1.5,-0.8 0.8,-2.3 1.9,-1.8 2.7,-4 4.2,-6.3 0.8,-0.5 0.3,1 -0.2,2.3 -2.9,6.8 -2.7,5.7 -0.5,3.2 -0.6,2.6 0.8,1.3 -0.2,2.7 -1.9,2.4 -0.5,1.8 0.6,3.6 0.6,3.4 -1.5,2.6 -0.8,2.9 -1,3.1 1.1,2.4 0.6,6.1 1.6,4.5 -0.2,3 -15.9,1.8 -17.5,1 H 567 l -0.7,-1.5 -2.9,-0.4 -2.6,-1.3 -2.3,-3.7 -0.3,-3.6 2,-2.9 -0.5,-1.4 -2.1,-2.2 -0.8,-3.3 -0.6,-6.8 -2.1,-2.5 -7,-4.5 -3.8,-5.4 -3.4,-1 -2.2,-2.8 h -3.2 l -2.9,-3.3 -0.5,-6.5 0.1,-3.8 1.5,-3.1 -0.8,-3.2 -2.5,-2.8 1.8,-5.4 5.2,-3.8 1.6,-1.9 -0.2,-8.1 0.2,-2.8 2.4,-2.8 z"
       inkscape:connector-curvature="0"
       style="fill:#ffffff;fill-opacity:1" />
    <path
       id="WV"
       d="m 758.9,254.3 5.8,-6 2.6,-0.8 1.6,-1.5 1.5,-2.2 1.1,0.3 3.1,-0.2 4.6,-3.6 1.5,-0.5 1.3,1 2.6,1.2 3,3 -0.4,4.3 -5.4,-2.6 -4.8,-1.8 -0.1,5.9 -2.6,5.7 -2.9,2.4 -0.8,2.3 -3,0.5 -1.7,8.1 -2.8,0.2 -1.1,-1 -1.2,-2 -2.2,0.5 -0.5,5.1 -1.8,5.1 -5,11 0.9,1.4 -0.1,2 -2.2,2.5 -1.6,-0.4 -3.1,2.3 -2.8,-0.8 -1.8,4.9 -3.8,1 -2.5,-1.3 -2.5,1.9 -2.3,0.7 -3.2,-0.8 -3.8,-4.5 -3.5,-2.2 -2.5,-2.5 -2.9,-3.7 -0.5,-2.3 -2.8,-1.7 -0.6,-1.3 -0.2,-5.6 0.3,0.1 2.4,-0.2 1.8,-1 V 275 l 1.7,-1.5 0.1,-5.2 0.9,-3.6 1.1,-0.7 0.4,0.3 1,1.1 1.7,0.5 1.1,-1.3 -1,-3.1 v -1.6 l 3.1,-4.6 1.2,-1.3 2,0.5 2.6,-1.8 3.1,-3.4 2.4,-4.1 0.2,-5.6 0.5,-4.8 v -4.9 l -1.1,-3 0.9,-1.3 0.8,-0.7 4.3,19.3 4.3,-0.8 11.2,-1.3 z"
       inkscape:connector-curvature="0"
       style="fill:#ffffff;fill-opacity:1" />
    <path
       id="WY"
       d="m 353,161.9 -1.5,25.4 -4.4,44 -2.7,-0.3 -83.3,-9.1 -27.9,-3 2,-12 6.9,-41 3.8,-24.2 1.3,-11.2 48.2,7 59.1,6.5 z"
       inkscape:connector-curvature="0"
       style="fill:#ffffff;fill-opacity:1" />
    <rect
       style="opacity:1;fill:#fffff3;fill-opacity:1;stroke:#ffffff;stroke-width:0;stroke-miterlimit:4;stroke-dasharray:none;stroke-opacity:0.51652892"
       id="DC"
       width="50"
       height="19.999998"
       x="869"
       y="424.39999"
       inkscape:label="#DC" />
    <text
       xml:space="preserve"
       style="font-style:normal;font-weight:normal;font-size:13.33333302px;line-height:1.25;font-family:sans-serif;letter-spacing:0px;word-spacing:0px;opacity:1;fill:#000000;fill-opacity:1;stroke:none"
       x="796.88983"
       y="159.5587"
       id="NY-text"
       inkscape:label="nytext"><tspan
         sodipodi:role="line"
         id="tspan4864"
         x="796.88983"
         y="159.5587">NY 29</tspan></text>
    <text
       xml:space="preserve"
       style="font-style:normal;font-weight:normal;font-size:13.33333302px;line-height:1.25;font-family:sans-serif;letter-spacing:0px;word-spacing:0px;opacity:1;fill:#000000;fill-opacity:1;stroke:none"
       x="763.32867"
       y="215.80351"
       id="PA-text"
       inkscape:label="patext"><tspan
         sodipodi:role="line"
         x="763.32867"
         y="215.80351"
         id="tspan8878">PA 20</tspan></text>
    <text
       xml:space="preserve"
       style="font-style:normal;font-weight:normal;font-size:13.33333302px;line-height:1.25;font-family:sans-serif;letter-spacing:0px;word-spacing:0px;opacity:1;fill:#000000;fill-opacity:1;stroke:none"
       x="679.31226"
       y="241.25351"
       id="OH-text"
       inkscape:label="ohtext"><tspan
         sodipodi:role="line"
         x="679.31226"
         y="241.25351"
         id="tspan8900">OH 18</tspan></text>
    <text
       xml:space="preserve"
       style="font-style:normal;font-weight:normal;font-size:13.33333302px;line-height:1.25;font-family:sans-serif;letter-spacing:0px;word-spacing:0px;opacity:1;fill:#000000;fill-opacity:1;stroke:none"
       x="769.26178"
       y="289.45886"
       id="VA-text"
       inkscape:label="vatext"><tspan
         sodipodi:role="line"
         x="769.26178"
         y="289.45886"
         id="tspan8922">VA 13</tspan></text>
    <text
       xml:space="preserve"
       style="font-style:normal;font-weight:normal;font-size:40px;line-height:1.25;font-family:sans-serif;letter-spacing:0px;word-spacing:0px;fill:#000000;fill-opacity:1;stroke:none"
       x="770"
       y="328"
       id="text8928"><tspan
         sodipodi:role="line"
         id="tspan8926"
         x="770"
         y="363.39062" /></text>
    <text
       xml:space="preserve"
       style="font-style:normal;font-weight:normal;font-size:13.33333302px;line-height:1.25;font-family:sans-serif;letter-spacing:0px;word-spacing:0px;opacity:1;fill:#000000;fill-opacity:1;stroke:none"
       x="771.87683"
       y="334.55872"
       id="NC-text"
       inkscape:label="nctext"><tspan
         sodipodi:role="line"
         x="771.87683"
         y="334.55872"
         id="tspan8922-1">NC 15</tspan></text>
    <text
       xml:space="preserve"
       style="font-style:normal;font-weight:normal;font-size:13.33333302px;line-height:1.25;font-family:sans-serif;letter-spacing:0px;word-spacing:0px;opacity:1;fill:#000000;fill-opacity:1;stroke:none"
       x="744.77216"
       y="377.85352"
       id="SC-text"
       inkscape:label="sctext"><tspan
         sodipodi:role="line"
         x="744.77216"
         y="377.85352"
         id="tspan8966">SC 9</tspan></text>
    <text
       xml:space="preserve"
       style="font-style:normal;font-weight:normal;font-size:13.33333302px;line-height:1.25;font-family:sans-serif;letter-spacing:0px;word-spacing:0px;opacity:1;fill:#000000;fill-opacity:1;stroke:none"
       x="699.71027"
       y="417.85352"
       id="GA-text"
       inkscape:label="gatext"><tspan
         sodipodi:role="line"
         x="699.71027"
         y="417.85352"
         id="tspan8988">GA 16</tspan></text>
    <text
       xml:space="preserve"
       style="font-style:normal;font-weight:normal;font-size:13.33333302px;line-height:1.25;font-family:sans-serif;letter-spacing:0px;word-spacing:0px;opacity:1;fill:#000000;fill-opacity:1;stroke:none"
       x="751.65363"
       y="522.85352"
       id="FL-text"
       inkscape:label="fltext"><tspan
         sodipodi:role="line"
         x="751.65363"
         y="522.85352"
         id="tspan8988-2">FL 29</tspan></text>
    <text
       xml:space="preserve"
       style="font-style:normal;font-weight:normal;font-size:13.33333302px;line-height:1.25;font-family:sans-serif;letter-spacing:0px;word-spacing:0px;opacity:1;fill:#000000;fill-opacity:1;stroke:none"
       x="640.78448"
       y="422.85352"
       id="AL-text"
       inkscape:label="altext"><tspan
         sodipodi:role="line"
         x="640.78448"
         y="422.85352"
         id="tspan8988-2-7">AL 9</tspan></text>
    <text
       xml:space="preserve"
       style="font-style:normal;font-weight:normal;font-size:13.33333302px;line-height:1.25;font-family:sans-serif;letter-spacing:0px;word-spacing:0px;opacity:1;fill:#000000;fill-opacity:1;stroke:none"
       x="583.41473"
       y="417.85352"
       id="MS-text"
       inkscape:label="mstext"><tspan
         sodipodi:role="line"
         x="583.41473"
         y="417.85352"
         id="tspan8988-2-9">MS 6</tspan></text>
    <text
       xml:space="preserve"
       style="font-style:normal;font-weight:normal;font-size:13.33333302px;line-height:1.25;font-family:sans-serif;letter-spacing:0px;word-spacing:0px;opacity:1;fill:#000000;fill-opacity:1;stroke:none"
       x="535.013"
       y="472.85352"
       id="LA-text"
       inkscape:label="fltext"><tspan
         sodipodi:role="line"
         x="535.013"
         y="472.85352"
         id="tspan8988-2-2">LA 8</tspan></text>
    <text
       xml:space="preserve"
       style="font-style:normal;font-weight:normal;font-size:13.33333302px;line-height:1.25;font-family:sans-serif;letter-spacing:0px;word-spacing:0px;opacity:1;fill:#000000;fill-opacity:1;stroke:none"
       x="411.2207"
       y="457.85352"
       id="TX-text"
       inkscape:label="txtext"><tspan
         sodipodi:role="line"
         x="411.2207"
         y="457.85352"
         id="tspan8988-2-97">TX 38</tspan></text>
    <text
       xml:space="preserve"
       style="font-style:normal;font-weight:normal;font-size:13.33333302px;line-height:1.25;font-family:sans-serif;letter-spacing:0px;word-spacing:0px;opacity:1;fill:#000000;fill-opacity:1;stroke:none"
       x="282.82227"
       y="377.76562"
       id="NM-text"
       inkscape:label="nmtext"><tspan
         sodipodi:role="line"
         x="282.82227"
         y="377.76562"
         id="tspan8988-2-6">NM 5</tspan></text>
    <text
       xml:space="preserve"
       style="font-style:normal;font-weight:normal;font-size:13.33333302px;line-height:1.25;font-family:sans-serif;letter-spacing:0px;word-spacing:0px;opacity:1;fill:#000000;fill-opacity:1;stroke:none"
       x="176.65363"
       y="362.85352"
       id="AZ-text"
       inkscape:label="aztext"><tspan
         sodipodi:role="line"
         x="176.65363"
         y="362.85352"
         id="tspan8988-2-29">AZ 11</tspan></text>
    <text
       xml:space="preserve"
       style="font-style:normal;font-weight:normal;font-size:13.33333302px;line-height:1.25;font-family:sans-serif;letter-spacing:0px;word-spacing:0px;opacity:1;fill:#000000;fill-opacity:1;stroke:none"
       x="51.653625"
       y="292.85352"
       id="CA-text"
       inkscape:label="catext"><tspan
         sodipodi:role="line"
         x="51.653625"
         y="292.85352"
         id="tspan8988-2-1">CA 55</tspan></text>
    <text
       xml:space="preserve"
       style="font-style:normal;font-weight:normal;font-size:13.33333302px;line-height:1.25;font-family:sans-serif;letter-spacing:0px;word-spacing:0px;opacity:1;fill:#000000;fill-opacity:1;stroke:none"
       x="113.85742"
       y="227.85352"
       id="NV-text"
       inkscape:label="nvtext"><tspan
         sodipodi:role="line"
         x="113.85742"
         y="227.85352"
         id="tspan8988-2-4">NV 6</tspan></text>
    <text
       xml:space="preserve"
       style="font-style:normal;font-weight:normal;font-size:13.33333302px;line-height:1.25;font-family:sans-serif;letter-spacing:0px;word-spacing:0px;opacity:1;fill:#000000;fill-opacity:1;stroke:none"
       x="204.51823"
       y="257.85352"
       id="UT-text"
       inkscape:label="uttext"><tspan
         sodipodi:role="line"
         x="204.51823"
         y="257.85352"
         id="tspan8988-2-8">UT 6</tspan></text>
    <text
       xml:space="preserve"
       style="font-style:normal;font-weight:normal;font-size:13.33333302px;line-height:1.25;font-family:sans-serif;letter-spacing:0px;word-spacing:0px;opacity:1;fill:#000000;fill-opacity:1;stroke:none"
       x="100.18555"
       y="497.85352"
       id="AK-text"
       inkscape:label="aktext"><tspan
         sodipodi:role="line"
         x="100.18555"
         y="497.85352"
         id="tspan8988-2-5">AK 3</tspan></text>
    <text
       xml:space="preserve"
       style="font-style:normal;font-weight:normal;font-size:13.33333302px;line-height:1.25;font-family:sans-serif;letter-spacing:0px;word-spacing:0px;opacity:1;fill:#000000;fill-opacity:1;stroke:none"
       x="79.998566"
       y="123.30351"
       id="OR-text"
       inkscape:label="ortext"><tspan
         sodipodi:role="line"
         x="79.998566"
         y="123.30351"
         id="tspan8988-2-3">OR 7</tspan></text>
    <text
       xml:space="preserve"
       style="font-style:normal;font-weight:normal;font-size:13.33333302px;line-height:1.25;font-family:sans-serif;letter-spacing:0px;word-spacing:0px;opacity:1;fill:#000000;fill-opacity:1;stroke:none"
       x="101.65363"
       y="52.853516"
       id="WA-text"
       inkscape:label="watext"><tspan
         sodipodi:role="line"
         x="101.65363"
         y="52.853516"
         id="tspan8988-2-10">WA 12</tspan></text>
    <text
       xml:space="preserve"
       style="font-style:normal;font-weight:normal;font-size:13.33333302px;line-height:1.25;font-family:sans-serif;letter-spacing:0px;word-spacing:0px;opacity:1;fill:#000000;fill-opacity:1;stroke:none"
       x="176.25977"
       y="157.86003"
       id="ID-text"
       inkscape:label="idtext"><tspan
         sodipodi:role="line"
         x="176.25977"
         y="157.86003"
         id="tspan8988-2-32">ID 4</tspan></text>
    <text
       xml:space="preserve"
       style="font-style:normal;font-weight:normal;font-size:13.33333302px;line-height:1.25;font-family:sans-serif;letter-spacing:0px;word-spacing:0px;opacity:1;fill:#000000;fill-opacity:1;stroke:none"
       x="263.68491"
       y="97.853516"
       id="MT-text"
       inkscape:label="mttext"><tspan
         sodipodi:role="line"
         x="263.68491"
         y="97.853516"
         id="tspan8988-2-61">MT 3</tspan></text>
    <text
       xml:space="preserve"
       style="font-style:normal;font-weight:normal;font-size:13.33333302px;line-height:1.25;font-family:sans-serif;letter-spacing:0px;word-spacing:0px;opacity:1;fill:#000000;fill-opacity:1;stroke:none"
       x="282.80273"
       y="187.85352"
       id="WY-text"
       inkscape:label="wvtext"><tspan
         sodipodi:role="line"
         x="282.80273"
         y="187.85352"
         id="tspan4124">WY 3</tspan></text>
    <text
       xml:space="preserve"
       style="font-style:normal;font-weight:normal;font-size:13.33333302px;line-height:1.25;font-family:sans-serif;letter-spacing:0px;word-spacing:0px;opacity:1;fill:#000000;fill-opacity:1;stroke:none"
       x="300.92163"
       y="277.30353"
       id="CO-text"
       inkscape:label="cotext"><tspan
         sodipodi:role="line"
         x="300.92163"
         y="277.30353"
         id="tspan8988-2-65">CO 9</tspan></text>
    <text
       xml:space="preserve"
       style="font-style:normal;font-weight:normal;font-size:13.33333302px;line-height:1.25;font-family:sans-serif;letter-spacing:0px;word-spacing:0px;opacity:1;fill:#000000;fill-opacity:1;stroke:none"
       x="397.54843"
       y="96.973518"
       id="ND-text"
       inkscape:label="ndtext"><tspan
         sodipodi:role="line"
         x="397.54843"
         y="96.973518"
         id="tspan8988-2-93">ND 3</tspan></text>
    <text
       xml:space="preserve"
       style="font-style:normal;font-weight:normal;font-size:13.33333302px;line-height:1.25;font-family:sans-serif;letter-spacing:0px;word-spacing:0px;opacity:1;fill:#000000;fill-opacity:1;stroke:none"
       x="404.3685"
       y="167.85352"
       id="SD-text"
       inkscape:label="sdtext"><tspan
         sodipodi:role="line"
         x="404.3685"
         y="167.85352"
         id="tspan8988-2-45">SD 3</tspan></text>
    <text
       xml:space="preserve"
       style="font-style:normal;font-weight:normal;font-size:13.33333302px;line-height:1.25;font-family:sans-serif;letter-spacing:0px;word-spacing:0px;opacity:1;fill:#000000;fill-opacity:1;stroke:none"
       x="414.35873"
       y="227.76562"
       id="NE-text"
       inkscape:label="netext"><tspan
         sodipodi:role="line"
         x="414.35873"
         y="227.76562"
         id="tspan8988-2-47">NE 5</tspan></text>
    <text
       xml:space="preserve"
       style="font-style:normal;font-weight:normal;font-size:13.33333302px;line-height:1.25;font-family:sans-serif;letter-spacing:0px;word-spacing:0px;opacity:1;fill:#000000;fill-opacity:1;stroke:none"
       x="424.59491"
       y="295.9035"
       id="KS-text"
       inkscape:label="kstext"><tspan
         sodipodi:role="line"
         x="424.59491"
         y="295.9035"
         id="tspan8988-2-43">KS 6</tspan></text>
    <text
       xml:space="preserve"
       style="font-style:normal;font-weight:normal;font-size:13.33333302px;line-height:1.25;font-family:sans-serif;letter-spacing:0px;word-spacing:0px;opacity:1;fill:#000000;fill-opacity:1;stroke:none"
       x="444.20898"
       y="357.85352"
       id="OK-text"
       inkscape:label="oktext"><tspan
         sodipodi:role="line"
         x="444.20898"
         y="357.85352"
         id="tspan8988-2-78">OK 7</tspan></text>
    <text
       xml:space="preserve"
       style="font-style:normal;font-weight:normal;font-size:13.33333302px;line-height:1.25;font-family:sans-serif;letter-spacing:0px;word-spacing:0px;opacity:1;fill:#000000;fill-opacity:1;stroke:none"
       x="529.81122"
       y="367.85352"
       id="AR-text"
       inkscape:label="artext"><tspan
         sodipodi:role="line"
         x="529.81122"
         y="367.85352"
         id="tspan8988-2-88">AR 6</tspan></text>
    <text
       xml:space="preserve"
       style="font-style:normal;font-weight:normal;font-size:13.33333302px;line-height:1.25;font-family:sans-serif;letter-spacing:0px;word-spacing:0px;opacity:1;fill:#000000;fill-opacity:1;stroke:none"
       x="523.17706"
       y="302.85352"
       id="MO-text"
       inkscape:label="motext"><tspan
         sodipodi:role="line"
         x="523.17706"
         y="302.85352"
         id="tspan8988-2-31">MO 10</tspan></text>
    <text
       xml:space="preserve"
       style="font-style:normal;font-weight:normal;font-size:13.33333302px;line-height:1.25;font-family:sans-serif;letter-spacing:0px;word-spacing:0px;opacity:1;fill:#000000;fill-opacity:1;stroke:none"
       x="506.87827"
       y="217.85352"
       id="IA-text"
       inkscape:label="iatext"><tspan
         sodipodi:role="line"
         x="506.87827"
         y="217.85352"
         id="tspan8988-2-92">IA 6</tspan></text>
    <text
       xml:space="preserve"
       style="font-style:normal;font-weight:normal;font-size:13.33333302px;line-height:1.25;font-family:sans-serif;letter-spacing:0px;word-spacing:0px;opacity:1;fill:#000000;fill-opacity:1;stroke:none"
       x="478.4375"
       y="127.85352"
       id="MN-text"
       inkscape:label="mntext"><tspan
         sodipodi:role="line"
         x="478.4375"
         y="127.85352"
         id="tspan8988-2-68">MN 10</tspan></text>
    <text
       xml:space="preserve"
       style="font-style:normal;font-weight:normal;font-size:13.33333302px;line-height:1.25;font-family:sans-serif;letter-spacing:0px;word-spacing:0px;opacity:1;fill:#000000;fill-opacity:1;stroke:none"
       x="556.05792"
       y="157.85352"
       id="WI-text"
       inkscape:label="witext"><tspan
         sodipodi:role="line"
         x="556.05792"
         y="157.85352"
         id="tspan8988-2-26">WI 10</tspan></text>
    <text
       xml:space="preserve"
       style="font-style:normal;font-weight:normal;font-size:13.33333302px;line-height:1.25;font-family:sans-serif;letter-spacing:0px;word-spacing:0px;opacity:1;fill:#000000;fill-opacity:1;stroke:none"
       x="578.50262"
       y="257.85352"
       id="IL-text"
       inkscape:label="iltext"><tspan
         sodipodi:role="line"
         x="578.50262"
         y="257.85352"
         id="tspan8988-2-49">IL 20</tspan></text>
    <text
       xml:space="preserve"
       style="font-style:normal;font-weight:normal;font-size:13.33333302px;line-height:1.25;font-family:sans-serif;letter-spacing:0px;word-spacing:0px;opacity:1;fill:#000000;fill-opacity:1;stroke:none"
       x="627.39911"
       y="247.86003"
       id="IN-text"
       inkscape:label="intext"><tspan
         sodipodi:role="line"
         x="627.39911"
         y="247.86003"
         id="tspan8988-2-0">IN 11</tspan></text>
    <text
       xml:space="preserve"
       style="font-style:normal;font-weight:normal;font-size:13.33333302px;line-height:1.25;font-family:sans-serif;letter-spacing:0px;word-spacing:0px;opacity:1;fill:#000000;fill-opacity:1;stroke:none"
       x="660.22137"
       y="307.85352"
       id="KY-text"
       inkscape:label="kytext"><tspan
         sodipodi:role="line"
         x="660.22137"
         y="307.85352"
         id="tspan8988-2-87">KY 8</tspan></text>
    <text
       xml:space="preserve"
       style="font-style:normal;font-weight:normal;font-size:13.33333302px;line-height:1.25;font-family:sans-serif;letter-spacing:0px;word-spacing:0px;opacity:1;fill:#000000;fill-opacity:1;stroke:none"
       x="635.96356"
       y="347.86002"
       id="TN-text"
       inkscape:label="tntext"><tspan
         sodipodi:role="line"
         x="635.96356"
         y="347.86002"
         id="tspan8988-2-72">TN 11</tspan></text>
    <text
       xml:space="preserve"
       style="font-style:normal;font-weight:normal;font-size:13.33333302px;line-height:1.25;font-family:sans-serif;letter-spacing:0px;word-spacing:0px;opacity:1;fill:#000000;fill-opacity:1;stroke:none"
       x="646.43555"
       y="187.85352"
       id="MI-text"
       inkscape:label="mitext"><tspan
         sodipodi:role="line"
         x="646.43555"
         y="187.85352"
         id="tspan8988-2-22">MI 16</tspan></text>
    <text
       xml:space="preserve"
       style="font-style:normal;font-weight:normal;font-size:13.33333302px;line-height:1.25;font-family:sans-serif;letter-spacing:0px;word-spacing:0px;opacity:1;fill:#000000;fill-opacity:1;stroke:none"
       x="722.85156"
       y="274.87601"
       id="WV-text"
       inkscape:label="wvtext"><tspan
         sodipodi:role="line"
         x="722.85156"
         y="274.87601"
         id="tspan8988-2-106">WV 5</tspan></text>
    <text
       xml:space="preserve"
       style="font-style:normal;font-weight:normal;font-size:13.33333302px;line-height:1.25;font-family:sans-serif;letter-spacing:0px;word-spacing:0px;opacity:1;fill:#000000;fill-opacity:1;stroke:none"
       x="877.72394"
       y="439.25351"
       id="DC-button-text"
       inkscape:label="dctext"><tspan
         sodipodi:role="line"
         x="877.72394"
         y="439.25351"
         id="tspan8988-2-59">DC 3</tspan></text>
    <rect
       style="opacity:1;fill:#fffff3;fill-opacity:1;stroke:#ffffff;stroke-width:0;stroke-miterlimit:4;stroke-dasharray:none;stroke-opacity:0.51652892"
       id="MD-button"
       width="50"
       height="19.999998"
       x="869"
       y="399.39999"
       inkscape:label="mdbutton" />
    <text
       xml:space="preserve"
       style="font-style:normal;font-weight:normal;font-size:13.33333302px;line-height:1.25;font-family:sans-serif;letter-spacing:0px;word-spacing:0px;opacity:1;fill:#000000;fill-opacity:1;stroke:none"
       x="872.29425"
       y="414.25351"
       id="MD-button-text"
       inkscape:label="mdtext"><tspan
         sodipodi:role="line"
         x="872.29425"
         y="414.25351"
         id="tspan8988-2-59-0">MD 10</tspan></text>
    <rect
       style="opacity:1;fill:#fffff3;fill-opacity:1;stroke:#ffffff;stroke-width:0;stroke-miterlimit:4;stroke-dasharray:none;stroke-opacity:0.51652892"
       id="DE-button"
       width="50"
       height="19.999998"
       x="869"
       y="374.39999"
       inkscape:label="debutton" />
    <text
       xml:space="preserve"
       style="font-style:normal;font-weight:normal;font-size:13.33333302px;line-height:1.25;font-family:sans-serif;letter-spacing:0px;word-spacing:0px;opacity:1;fill:#000000;fill-opacity:1;stroke:none"
       x="878.16669"
       y="389.25351"
       id="DE-button-text"
       inkscape:label="detext"><tspan
         sodipodi:role="line"
         x="878.16669"
         y="389.25351"
         id="tspan8988-2-59-0-7">DE 3</tspan></text>
    <rect
       style="opacity:1;fill:#fffff3;fill-opacity:1;stroke:#ffffff;stroke-width:0;stroke-miterlimit:4;stroke-dasharray:none;stroke-opacity:0.51652892"
       id="NJ-button"
       width="50"
       height="19.999998"
       x="869"
       y="349.39999"
       inkscape:label="njbutton" />
    <text
       xml:space="preserve"
       style="font-style:normal;font-weight:normal;font-size:13.33333302px;line-height:1.25;font-family:sans-serif;letter-spacing:0px;word-spacing:0px;opacity:1;fill:#000000;fill-opacity:1;stroke:none"
       x="876.1582"
       y="362.92538"
       id="NJ-button-text"
       inkscape:label="njtext"><tspan
         sodipodi:role="line"
         x="876.1582"
         y="362.92538"
         id="tspan8988-2-59-0-7-1">NJ 14</tspan></text>
    <rect
       style="opacity:1;fill:#fffff3;fill-opacity:1;stroke:#ffffff;stroke-width:0;stroke-miterlimit:4;stroke-dasharray:none;stroke-opacity:0.51652892"
       id="CT-button"
       width="50"
       height="19.999998"
       x="869"
       y="324.39999"
       inkscape:label="ctbutton" />
    <text
       xml:space="preserve"
       style="font-style:normal;font-weight:normal;font-size:13.33333302px;line-height:1.25;font-family:sans-serif;letter-spacing:0px;word-spacing:0px;opacity:1;fill:#000000;fill-opacity:1;stroke:none"
       x="879.09442"
       y="339.25351"
       id="CT-button-text"
       inkscape:label="cttext"><tspan
         sodipodi:role="line"
         x="879.09442"
         y="339.25351"
         id="tspan8988-2-59-0-7-1-7">CT 7</tspan></text>
    <rect
       style="opacity:1;fill:#fffff3;fill-opacity:1;stroke:#ffffff;stroke-width:0;stroke-miterlimit:4;stroke-dasharray:none;stroke-opacity:0.51652892"
       id="RI-button"
       width="50"
       height="19.999998"
       x="869"
       y="299.39999"
       inkscape:label="ributton" />
    <text
       xml:space="preserve"
       style="font-style:normal;font-weight:normal;font-size:13.33333302px;line-height:1.25;font-family:sans-serif;letter-spacing:0px;word-spacing:0px;opacity:1;fill:#000000;fill-opacity:1;stroke:none"
       x="880.75458"
       y="314.26001"
       id="RI-button-text"
       inkscape:label="ritext"><tspan
         sodipodi:role="line"
         x="880.75458"
         y="314.26001"
         id="tspan8988-2-59-0-7-1-7-7">RI 4</tspan></text>
    <rect
       style="opacity:1;fill:#fffff3;fill-opacity:1;stroke:#ffffff;stroke-width:0;stroke-miterlimit:4;stroke-dasharray:none;stroke-opacity:0.51652892"
       id="MA-button"
       width="50"
       height="19.999998"
       x="869"
       y="274.39999"
       inkscape:label="mabutton" />
    <text
       xml:space="preserve"
       style="font-style:normal;font-weight:normal;font-size:13.33333302px;line-height:1.25;font-family:sans-serif;letter-spacing:0px;word-spacing:0px;opacity:1;fill:#000000;fill-opacity:1;stroke:none"
       x="873.03973"
       y="289.26001"
       id="MA-button-text"
       inkscape:label="matext"><tspan
         sodipodi:role="line"
         x="873.03973"
         y="289.26001"
         id="tspan8988-2-59-0-7-1-7-7-5">MA 11</tspan></text>
    <rect
       style="opacity:1;fill:#fffff3;fill-opacity:1;stroke:#ffffff;stroke-width:0;stroke-miterlimit:4;stroke-dasharray:none;stroke-opacity:0.51652892"
       id="VT-button"
       width="50"
       height="19.999998"
       x="869"
       y="249.39999"
       inkscape:label="vtbutton" />
    <text
       xml:space="preserve"
       style="font-style:normal;font-weight:normal;font-size:13.33333302px;line-height:1.25;font-family:sans-serif;letter-spacing:0px;word-spacing:0px;opacity:1;fill:#000000;fill-opacity:1;stroke:none"
       x="879.48505"
       y="264.25351"
       id="VT-button-text"
       inkscape:label="vttext"><tspan
         sodipodi:role="line"
         x="879.48505"
         y="264.25351"
         id="tspan8988-2-59-0-7-1-7-7-5-9">VT 3</tspan></text>
    <rect
       style="opacity:1;fill:#fffff3;fill-opacity:1;stroke:#ffffff;stroke-width:0;stroke-miterlimit:4;stroke-dasharray:none;stroke-opacity:0.51652892"
       id="NH-button"
       width="50"
       height="19.999998"
       x="869"
       y="224.39999"
       inkscape:label="nhbutton" />
    <text
       xml:space="preserve"
       style="font-style:normal;font-weight:normal;font-size:13.33333302px;line-height:1.25;font-family:sans-serif;letter-spacing:0px;word-spacing:0px;opacity:1;fill:#000000;fill-opacity:1;stroke:none"
       x="877.35614"
       y="239.26003"
       id="NH-button-text"
       inkscape:label="nhtext"><tspan
         sodipodi:role="line"
         x="877.35614"
         y="239.26003"
         id="tspan8988-2-59-0-7-1-7-7-5-9-1">NH 4</tspan></text>
    <text
       xml:space="preserve"
       style="font-style:normal;font-weight:normal;font-size:13.33333302px;line-height:1.25;font-family:sans-serif;letter-spacing:0px;word-spacing:0px;opacity:1;fill:#000000;fill-opacity:1;stroke:none"
       x="876.12665"
       y="87.860023"
       id="ME-text"
       inkscape:label="metext"><tspan
         sodipodi:role="line"
         x="876.12665"
         y="87.860023"
         id="tspan8988-2-59-0-7-1-7-7-5-9-9">ME 4</tspan></text>
    <rect
       style="opacity:1;fill:#fffff3;fill-opacity:1;stroke:#ffffff;stroke-width:0;stroke-miterlimit:4;stroke-dasharray:none;stroke-opacity:0.51652892"
       id="HI-button"
       width="50"
       height="19.999998"
       x="250.00002"
       y="553"
       inkscape:label="hibutton" />
    <text
       xml:space="preserve"
       style="font-style:normal;font-weight:normal;font-size:13.33333302px;line-height:1.25;font-family:sans-serif;letter-spacing:0px;word-spacing:0px;opacity:1;fill:#000000;fill-opacity:1;stroke:none"
       x="261.37698"
       y="567.86005"
       id="HI-button-text"
       inkscape:label="hitext"><tspan
         sodipodi:role="line"
         x="261.37698"
         y="567.86005"
         id="tspan8988-2-59-0-0">HI 4</tspan></text>
    <rect
       style="opacity:1;fill:#fffff3;fill-opacity:1;stroke:#ffffff;stroke-width:0;stroke-miterlimit:4;stroke-dasharray:none;stroke-opacity:0.51652892"
       id="ME-D1"
       width="60"
       height="19.999998"
       x="775"
       y="23.000002"
       inkscape:label="med1" />
    <text
       xml:space="preserve"
       style="font-style:normal;font-weight:normal;font-size:13.33333302px;line-height:1.25;font-family:sans-serif;letter-spacing:0px;word-spacing:0px;opacity:1;fill:#000000;fill-opacity:1;stroke:none"
       x="778.62958"
       y="37.947918"
       id="MED1-button-text"
       inkscape:label="med1text"><tspan
         sodipodi:role="line"
         x="778.62958"
         y="37.947918"
         id="tspan8988-2-59-0-7-1-7-7-5-9-1-5">MED1 2 </tspan></text>
    <rect
       style="opacity:1;fill:#fffff3;fill-opacity:1;stroke:#ffffff;stroke-width:0;stroke-miterlimit:4;stroke-dasharray:none;stroke-opacity:0.51652892"
       id="ME-D2"
       width="60"
       height="19.999998"
       x="775"
       y="48"
       inkscape:label="med2" />
    <text
       xml:space="preserve"
       style="font-style:normal;font-weight:normal;font-size:13.33333302px;line-height:1.25;font-family:sans-serif;letter-spacing:0px;word-spacing:0px;opacity:1;fill:#000000;fill-opacity:1;stroke:none"
       x="778.62958"
       y="62.947914"
       id="MED2-button-text"
       inkscape:label="med2text"><tspan
         sodipodi:role="line"
         x="778.62958"
         y="62.947914"
         id="tspan8988-2-59-0-7-1-7-7-5-9-1-5-6">MED2 1 </tspan></text>
    <rect
       style="opacity:1;fill:#fffff3;fill-opacity:1;stroke:#ffffff;stroke-width:0;stroke-miterlimit:4;stroke-dasharray:none;stroke-opacity:0.51652892"
       id="ME-D3"
       width="60"
       height="19.999998"
       x="775"
       y="73"
       inkscape:label="med3" />
    <text
       xml:space="preserve"
       style="font-style:normal;font-weight:normal;font-size:13.33333302px;line-height:1.25;font-family:sans-serif;letter-spacing:0px;word-spacing:0px;opacity:1;fill:#000000;fill-opacity:1;stroke:none"
       x="778.62958"
       y="87.853516"
       id="MED3-button-text"
       inkscape:label="med3text"><tspan
         sodipodi:role="line"
         x="778.62958"
         y="87.853516"
         id="tspan8988-2-59-0-7-1-7-7-5-9-1-5-5">MED3 1 </tspan></text>
    <rect
       style="opacity:1;fill:#fffff3;fill-opacity:1;stroke:#ffffff;stroke-width:0;stroke-miterlimit:4;stroke-dasharray:none;stroke-opacity:0.51652892"
       id="NE-D1"
       width="60"
       height="19.999998"
       x="685"
       y="23"
       inkscape:label="ned1" />
    <text
       xml:space="preserve"
       style="font-style:normal;font-weight:normal;font-size:13.33333302px;line-height:1.25;font-family:sans-serif;letter-spacing:0px;word-spacing:0px;opacity:1;fill:#000000;fill-opacity:1;stroke:none"
       x="689.39777"
       y="37.947914"
       id="NED1-button-text"
       inkscape:label="ned1text"><tspan
         sodipodi:role="line"
         x="689.39777"
         y="37.947914"
         id="tspan8988-2-59-0-7-1-7-7-5-9-1-5-1">NED1 2 </tspan></text>
    <rect
       style="opacity:1;fill:#fffff3;fill-opacity:1;stroke:#ffffff;stroke-width:0;stroke-miterlimit:4;stroke-dasharray:none;stroke-opacity:0.51652892"
       id="NE-D2"
       width="60"
       height="19.999998"
       x="685"
       y="48"
       inkscape:label="ned2" />
    <rect
       style="opacity:1;fill:#fffff3;fill-opacity:1;stroke:#ffffff;stroke-width:0;stroke-miterlimit:4;stroke-dasharray:none;stroke-opacity:0.51652892"
       id="NE-D3"
       width="60"
       height="19.999998"
       x="685"
       y="73"
       inkscape:label="ned3" />
    <rect
       style="opacity:1;fill:#fffff3;fill-opacity:1;stroke:#ffffff;stroke-width:0;stroke-miterlimit:4;stroke-dasharray:none;stroke-opacity:0.51652892"
       id="NE-D4"
       width="60"
       height="19.999998"
       x="685"
       y="98"
       inkscape:label="ned4" />
    <text
       xml:space="preserve"
       style="font-style:normal;font-weight:normal;font-size:13.33333302px;line-height:1.25;font-family:sans-serif;letter-spacing:0px;word-spacing:0px;opacity:1;fill:#000000;fill-opacity:1;stroke:none"
       x="689.39777"
       y="62.947914"
       id="NED2-button-text"
       inkscape:label="ned1text"><tspan
         sodipodi:role="line"
         x="689.39777"
         y="62.947914"
         id="tspan8988-2-59-0-7-1-7-7-5-9-1-5-1-8">NED2 1 </tspan></text>
    <text
       xml:space="preserve"
       style="font-style:normal;font-weight:normal;font-size:13.33333302px;line-height:1.25;font-family:sans-serif;letter-spacing:0px;word-spacing:0px;opacity:1;fill:#000000;fill-opacity:1;stroke:none"
       x="689.39777"
       y="87.853516"
       id="NED3-button-text"
       inkscape:label="ned1text"><tspan
         sodipodi:role="line"
         x="689.39777"
         y="87.853516"
         id="tspan8988-2-59-0-7-1-7-7-5-9-1-5-1-0">NED3 1 </tspan></text>
    <text
       xml:space="preserve"
       style="font-style:normal;font-weight:normal;font-size:13.33333302px;line-height:1.25;font-family:sans-serif;letter-spacing:0px;word-spacing:0px;opacity:1;fill:#000000;fill-opacity:1;stroke:none"
       x="689.39777"
       y="112.86002"
       id="NED4-button-text"
       inkscape:label="ned1text"><tspan
         sodipodi:role="line"
         x="689.39777"
         y="112.86002"
         id="tspan8988-2-59-0-7-1-7-7-5-9-1-5-1-04">NED4 1 </tspan></text>
  </g>
</svg>
