<?xml version="1.0" encoding="UTF-8" standalone="no"?>
<!-- Created with Inkscape (http://www.inkscape.org/) -->

<svg
   xmlns:dc="http://purl.org/dc/elements/1.1/"
   xmlns:cc="http://creativecommons.org/ns#"
   xmlns:rdf="http://www.w3.org/1999/02/22-rdf-syntax-ns#"
   xmlns:svg="http://www.w3.org/2000/svg"
   xmlns="http://www.w3.org/2000/svg"
   xmlns:sodipodi="http://sodipodi.sourceforge.net/DTD/sodipodi-0.dtd"
   xmlns:inkscape="http://www.inkscape.org/namespaces/inkscape"
   version="1.0"
   width="652"
   height="632"
   viewBox="0 0 1304 1263"
   id="svgdata"
   sodipodi:docname="canada_states.svg"
   inkscape:version="0.92.1 r15371">
  <metadata
     id="metadata112">
    <rdf:RDF>
      <cc:Work
         rdf:about="">
        <dc:format>image/svg+xml</dc:format>
        <dc:type
           rdf:resource="http://purl.org/dc/dcmitype/StillImage" />
        <dc:title></dc:title>
      </cc:Work>
    </rdf:RDF>
  </metadata>
  <sodipodi:namedview
     pagecolor="#ffffff"
     bordercolor="#666666"
     borderopacity="1"
     objecttolerance="10"
     gridtolerance="10"
     guidetolerance="10"
     inkscape:pageopacity="0"
     inkscape:pageshadow="2"
     inkscape:window-width="1600"
     inkscape:window-height="838"
     id="namedview110"
     showgrid="false"
     inkscape:zoom="2.8039604"
     inkscape:cx="302.82785"
     inkscape:cy="137.58269"
     inkscape:window-x="0"
     inkscape:window-y="0"
     inkscape:window-maximized="1"
     inkscape:current-layer="text"
     inkscape:measure-start="235.181,251.542"
     inkscape:measure-end="234.936,250.538"
     inkscape:pagecheckerboard="true" />
  <defs
     id="defs4470" />
  <g
     id="outlines"
     style="fill:#d3d3d3"
     transform="translate(-959.79,0.708441)"
     inkscape:label="outlines">
    <path
       d="m 1215.668,705.60547 c -17.4197,48.30981 -35.4079,96.42024 -51.9746,145.03125 -1.7249,5.49707 -3.6798,11.08989 -3.5782,16.92383 0.1364,2.03963 -2.1548,3.16556 -1.9298,5.19708 0.2263,3.76854 4.1113,5.37985 6.422,7.75409 1.9719,1.85131 2.4135,4.65962 3.999,6.79037 2.0824,3.24066 3.8193,6.66929 4.2578,10.55542 0.815,4.64118 1.6828,9.52974 4.6402,13.34617 0.8981,2.34524 1.9137,4.70613 3.7887,6.44755 2.2256,2.71545 3.3026,6.05789 4.2269,9.39892 2.2476,5.38194 6.0083,10.05695 7.5706,15.74072 3.8976,10.68512 9.4875,20.67332 14.3662,30.89068 1.8474,4.06893 1.5992,8.62147 0.8011,12.88264 -0.8433,5.58908 -2.2943,11.09873 -3.086,16.67211 1.7813,3.4304 2.8013,7.2793 4.9238,10.5098 3.1723,3.0946 7.8142,3.5961 11.8314,4.9923 17.4373,4.9096 35.0044,9.367 52.5299,13.9335 1.4677,-0.2467 1.3894,-2.2322 1.8633,-3.3263 11.6706,-47.81568 22.9102,-95.7278 34.4679,-143.57019 8.6493,-36.30313 17.4911,-72.59091 25.9364,-108.91994 0.2801,-1.62041 0.7654,-3.41643 0.4766,-4.99219 -1.2263,-0.97831 -2.1774,0.81781 -2.416,1.82227 -1.2616,2.36849 -3.5161,4.73482 -6.2911,4.94531 -2.0717,-0.41474 -3.9874,-1.58469 -5.58,-2.99414 0.7264,-2.27746 2.9199,-3.65599 4.3359,-5.48828 3.048,-3.14474 6.3024,-6.49299 10.6614,-7.65383 2.2327,-0.78901 2.3014,-3.39916 3.0223,-5.28212 1.1306,-3.88975 2.2252,-7.91118 2.412,-11.94491 -0.7516,-1.56084 -2.8613,-1.08997 -4.1693,-1.86072 -36.9413,-11.13927 -74.1968,-21.26211 -110.7014,-33.80005 -4.2416,-1.41086 -8.4838,-2.81968 -12.725,-4.23181 z"
       id="AB"
       inkscape:connector-curvature="0" />
    <g
       id="BC"
       inkscape:label="#CA-BC">
      <path
         d="m 1047,975.73993 c -6.3865,-4.06252 -16,-16.63647 -16,-20.9272 0,-2.38554 -0.5908,-3.20946 -2.9361,-4.09472 -2.9692,-1.12075 -5.242,-5.01186 -6.5522,-11.21801 -0.3484,-1.65 -1.6487,-4.575 -2.8896,-6.5 -1.2408,-1.925 -3.0433,-5.525 -4.0055,-8 -0.9621,-2.475 -3.5757,-7.54513 -5.808,-11.26695 -2.4498,-4.08463 -4.5598,-9.23765 -5.3231,-13 -0.6956,-3.42818 -1.8679,-7.70856 -2.6052,-9.51197 -1.28332,-3.13881 -1.21327,-3.38297 1.6395,-5.71403 1.6391,-1.33932 3.8453,-2.45131 4.9027,-2.47109 1.9776,-0.037 7.9367,5.69247 17.5775,16.90016 3.025,3.51663 5.9565,6.88213 6.5144,7.47888 0.5579,0.59675 2.5713,3.11 4.4741,5.585 1.9029,2.475 3.7196,4.725 4.037,5 1.3981,1.21112 3.9381,10.03813 4.572,15.88838 0.6065,5.59788 1.3041,7.19686 5.6375,12.92211 5.7685,7.6212 6.2584,8.74516 7.2182,16.56062 0.3965,3.2291 1.3225,7.57592 2.0576,9.65959 0.7352,2.08366 1.071,4.05417 0.7463,4.37889 -1.5017,1.50163 -9.943,0.43849 -13.2571,-1.66966 z"
         id="path4"
         inkscape:connector-curvature="0" />
      <path
         d="m 988.71094,585.0293 c -2.32076,0.77196 -2.15268,3.72463 -2.27809,5.7095 -0.29024,3.35643 1.02229,6.53808 2.27909,9.55158 1.56012,6.38987 1.75874,13.20171 0.0381,19.56118 -0.0127,0.66582 -0.43694,2.28302 0.72656,1.76953 2.94324,-0.69585 5.35903,-2.59984 8.22907,-3.5184 4.36243,-1.85297 9.28343,-2.90327 12.95253,-6.05191 1.4521,-1.32841 2.1032,-4.20498 4.5035,-3.8938 2.3616,0.36382 4.5189,1.54055 6.7255,2.40681 2.0013,0.90572 3.2506,2.88504 3.3481,5.05216 3.5944,15.67179 8.0328,31.31754 8.5709,47.46569 0.3811,6.09093 1.2943,12.13941 2.0668,18.18008 0.08,8.50879 -4.1383,16.40668 -4.1565,24.90997 0.1073,5.0683 2.6476,9.62012 4.6233,14.15448 2.1926,4.54238 5.0315,8.85568 8.6055,12.37891 1.8348,2.09657 1.0775,5.00612 1.334,7.53123 0.1409,3.07329 -0.6336,6.34818 -3.0586,8.41603 -3.3939,3.75856 -5.9043,8.52177 -6.0801,13.66211 -0.968,4.27352 -5.0917,6.78366 -8.634,8.81282 -4.5934,2.41217 -10.3572,3.74508 -13.3347,8.37468 -1.8602,4.13823 -0.8969,8.79082 -1.1717,13.17187 0.023,6.67026 -0.7035,13.95377 2.9119,19.90626 0.9349,1.94391 2.1992,4.14299 1.709,6.35156 -1.126,1.72196 -2.9754,2.98063 -3.4353,5.10791 -1.3624,3.43283 -0.1171,7.29151 2.1884,10.00102 2.5581,3.63243 5.4353,7.67382 4.9188,12.36373 0.1133,2.76348 1.2869,5.39587 1.4941,8.11132 -1.1141,2.54236 -4.6181,3.42841 -5.0009,6.42036 -0.9312,4.20873 -0.3091,8.56347 -0.6216,12.8335 -0.02,4.94812 -0.1751,10.11259 1.4373,14.82932 2.633,3.24662 6.9741,4.37014 9.9191,7.29051 0.5778,1.03509 2.0316,0.41383 2.5942,1.29233 0.1675,3.27698 -1.5304,7.03917 0.6328,9.98438 4.6334,5.20131 10.0652,10.12106 12.3477,16.88281 1.9258,5.12823 1.6427,11.22168 5.4787,15.5053 0.8824,1.2245 2.4309,1.69632 3.5311,2.51814 0.029,1.72094 0.7058,3.32316 1.8084,4.64797 2.1559,2.9631 5.6511,4.62729 7.7111,7.63523 1.3949,2.98241 -0.3315,7.05613 2.4355,9.49805 4.5297,2.60977 9.6775,3.86073 14.4573,5.92392 29.1665,11.18009 58.3288,22.3931 87.7665,32.83956 12.6638,3.9549 25.3008,8.035 38.036,11.7268 1.8296,-0.1299 1.383,-2.62 0.3252,-3.4606 -3.2107,-4.5749 -2.573,-10.4632 -1.6732,-15.61787 0.7956,-5.26838 2.2917,-10.55207 1.9559,-15.90713 -3.6441,-12.20506 -10.9968,-22.87304 -15.0648,-34.92449 -1.5741,-4.87889 -3.8664,-9.50262 -6.9103,-13.63293 -1.4408,-4.1049 -2.4014,-8.56271 -5.4504,-11.85941 -1.9446,-1.99408 -2.2994,-4.83789 -3.8814,-7.0557 -2.6345,-3.75569 -3.8991,-8.13615 -4.4213,-12.65598 -0.9631,-5.63969 -3.6576,-10.87692 -6.893,-15.54246 -1.576,-2.53542 -3.9982,-4.29779 -6.2015,-6.197 -2.3213,-2.0599 -2.4709,-5.75439 -0.5911,-8.15959 1.8751,-4.45921 0.7241,-9.53732 2.6718,-13.99042 5.8391,-19.43611 13.2641,-38.35787 20.0882,-57.46854 11.0737,-30.42563 22.1174,-60.87046 33.0587,-91.33889 0.3293,-1.58015 -1.0785,-2.87168 -2.5537,-3.02483 -23.8276,-9.7609 -48.2184,-18.3153 -71.1081,-30.21958 -12.4103,-6.11403 -24.6613,-12.54085 -36.763,-19.23332 -27.2009,-14.07829 -53.1388,-30.47358 -78.9669,-46.90851 -11.5488,-7.32189 -22.8205,-15.10385 -34.62495,-22.00397 -0.19855,-0.043 -0.39787,-0.12892 -0.60547,-0.11328 z"
         id="path6"
         inkscape:connector-curvature="0" />
      <path
         d="m 976.23965,824.73293 c -4.06121,-9.4021 -5.55744,-20.58407 -4.89632,-36.59212 0.3848,-9.31752 1.03779,-14.89511 1.85977,-15.88554 0.69672,-0.83949 1.27354,-2.25285 1.28183,-3.14081 0.0243,-2.60399 4.34566,-2.49703 8.34496,0.20654 4.78774,3.23658 11.17011,9.58174 11.17011,11.10499 0,0.65884 -4.05,5.41715 -9,10.57401 -10.51652,10.95601 -10.65647,11.52565 -6.51242,26.50703 1.36816,4.94613 2.49316,9.78047 2.5,10.74297 0.0248,3.49419 -2.54014,1.59419 -4.74793,-3.51707 z"
         id="path8"
         inkscape:connector-curvature="0" />
    </g>
    <path
       d="m 1452.5293,765.25781 c -1.855,18.28389 -5.377,36.36434 -7.0508,54.66602 -0.07,2.41753 1.2689,4.55204 2.2793,6.58984 -0.1028,2.34978 -2.3798,3.71054 -3.4954,5.593 -1.8258,2.03262 -3.4124,4.48012 -3.4127,7.30916 -1.5364,10.72391 -1.3423,21.6028 -2.4086,32.36503 -2.7371,38.12838 -5.6455,76.24447 -8.206,114.38538 -1.0721,15.07316 -2.0409,30.13736 -3.3466,45.17886 -0.703,9.5963 -1.1184,19.2157 -1.1424,28.8385 24.3469,2.1195 48.5024,6.1717 72.9055,7.6601 8.9211,0.5216 17.8545,0.7818 26.7859,1.0528 2.1535,-15.9849 2.0177,-32.1533 3.1836,-48.2188 0.7712,-15.0378 0.8155,-30.13584 2.435,-45.11533 0.6095,-3.98829 3.1112,-7.27469 5.8411,-10.12002 12.5168,-14.52576 26.2824,-27.91894 38.7116,-42.52045 13.1324,-14.94687 25.8241,-30.28576 39.2873,-44.94422 4.5227,-5.10464 9.3382,-9.99944 13.4441,-15.44049 0.766,-1.11602 0.022,-2.4662 -1.1487,-2.89803 -4.3844,-2.66704 -9.6572,-2.91483 -14.53,-4.07635 -1.7705,-0.39815 -3.2343,-1.41832 -4.4349,-2.72492 -2.1168,-1.75543 -5.0404,-1.06988 -7.5606,-1.26172 -2.9669,7.8e-4 -5.8959,0.71327 -8.5151,2.08898 -3.3963,0.9446 -7.0724,1.10059 -10.6177,1.27626 -0.9262,-0.0212 -2.5432,-0.26596 -2.0332,-1.5625 0.5308,-1.47854 0.8238,-3.0221 0.3686,-4.56426 -1.2067,-9.06867 -3.8899,-17.87116 -5.1101,-26.94339 -0.7685,-3.15443 -0.3763,-6.82592 -2.4733,-9.51188 -3.3898,-4.19567 -9.1618,-4.68399 -14.0552,-5.83902 -2.5477,-0.62732 -5.3546,-1.13992 -7.4136,-2.82895 -1.696,-2.47454 -0.9529,-5.64876 -1.1839,-8.46278 0.1393,-6.6934 1.0828,-13.31956 1.8675,-19.96496 -12.5776,0.11767 -24.9812,-2.14557 -37.4596,-3.43849 -19.072,-2.29327 -38.1864,-4.2084 -57.2793,-6.30789 -1.3179,0.0289 -3.2899,-0.76423 -4.2314,-0.26289 z m 29.6426,173.20117 c 3.9663,-0.0274 6.8961,3.45873 8.2031,6.92383 1.6947,2.90323 4.0389,5.34629 5.077,8.59975 1.3581,3.19551 2.5601,6.56458 2.4172,10.07864 0.355,4.92563 4.3201,8.83138 4.1534,13.82313 0.1129,3.96294 0.2056,7.95851 1.3429,11.78861 1.2208,5.71449 3.5466,11.11766 5.9257,16.40976 1.427,5.8472 1.1735,11.9166 1.1365,17.89 -0.3654,1.6064 -2.3631,0.9073 -3.393,1.7822 -2.1051,1.0264 -3.2979,3.4895 -5.3628,4.3486 -2.2394,0.2053 -3.4958,-2.2483 -3.2481,-4.1992 -0.2657,-3.722 1.2562,-7.2319 2.9414,-10.4414 0.9182,-2.834 1.3578,-5.9844 3.4549,-8.254 1.6449,-2.6345 -0.755,-6.8748 -3.9295,-6.2734 -1.8006,0.417 -1.8838,3.2643 -3.8613,3.1563 -0.4796,-1.7958 0.7916,-3.785 1.2344,-5.58985 1.3065,-4.1575 0.031,-9.75455 -4.336,-11.51172 -2.4172,-1.08605 -4.8981,0.35221 -7.2812,0.49219 -3.032,-1.31636 -3.7917,-4.86269 -5.0508,-7.59961 -1.4032,-3.77957 -3.3006,-7.36565 -5.6427,-10.63286 -0.9629,-1.88227 -0.3635,-4.00133 -0.5624,-5.98628 -0.969,-2.73242 -4.1721,-3.4084 -6.4121,-4.75195 -2.2252,-1.11534 -5.5615,-2.16578 -7.4668,0.0391 -2.0875,2.78292 -1.1632,6.49776 -1.5781,9.71289 -0.2032,5.88693 -1.3299,11.85454 -0.3145,17.70899 1.4327,3.52825 5.2368,5.05707 7.8235,7.57928 3.1742,2.47377 5.7983,5.90282 6.2854,9.99802 1.2354,4.5683 0.9384,9.4539 2.1608,14.0277 1.4884,4.8335 5.1453,9.3391 4.1483,14.6274 -0.8889,1.8786 -3.2963,2.0498 -5.1094,1.9297 -1.7647,-0.9221 -1.3499,-3.3143 -2.0522,-4.9118 -2.0811,-8.203 -3.0903,-16.6515 -5.2876,-24.8207 -2.4916,-5.78301 -8.892,-8.04238 -13.3828,-11.91398 -1.8637,-1.39369 -3.3549,-3.47757 -2.7461,-5.91211 0.027,-1.95744 0.8832,-3.72985 2.0532,-5.29001 1.2143,-2.85439 0.779,-6.0805 0.9205,-9.10647 0.025,-2.39267 -0.049,-5.33521 -2.3741,-6.71485 -2.5508,-1.65709 -5.8087,-2.85695 -6.8388,-6.01223 -0.5091,-1.37847 -0.8699,-3.33693 0.12,-4.49558 1.7903,-0.38233 4.1598,-0.17791 5.1192,-2.13086 1.3744,-2.45025 -0.2947,-5.15664 -1.8965,-7.01953 -0.6978,-0.73952 -1.0702,-2.10327 0.1738,-2.52148 2.4178,-1.63805 5.9479,-2.47937 8.3536,-0.3708 2.1749,1.48871 3.9074,3.69414 4.4726,6.28681 0.987,2.29236 2.9574,3.93719 4.832,5.49219 1.8557,-0.67445 1.4225,-3.04892 2.3902,-4.42892 1.8132,-4.42361 4.2459,-9.38856 8.9829,-11.26639 1.4491,-0.40701 2.9089,-0.48866 4.4043,-0.53907 z"
       id="MB"
       inkscape:connector-curvature="0" />
    <path
       d="m 2053.1562,1033.2949 c -5.5555,0.6555 -10.7918,3.3162 -14.7148,7.2617 -1.9546,0.5856 -3.5801,-1.1969 -5.4558,-1.4873 -3.7578,-1.073 -7.5103,0.7133 -11.1274,1.5498 -4.3799,1.2778 -8.5159,3.439 -11.9012,6.5137 -5.353,3.6174 -12.1525,2.7161 -18.2794,3.4671 -1.3922,0.083 -2.0689,1.4504 -1.7714,2.7165 -0.1608,4.1668 0.425,8.3118 0.5606,12.4707 4.4162,-0.6142 8.9173,0.8291 12.4219,3.4609 2.8799,1.7259 5.7039,4.6172 5.317,8.2064 0.1697,6.8501 2.1051,13.5493 4.6779,19.8538 1.383,2.8547 2.7291,5.9512 5.1262,8.098 1.6289,0.9908 3.6702,1.718 4.2422,3.7645 1.7062,3.6174 4.2671,7.573 8.58,8.1672 4.5167,0.6982 9.8521,0.038 13.0274,-3.584 1.2563,-1.2317 1.3646,-3.5589 3.3906,-3.918 3.9089,-0.088 6.8233,-3.0532 9.5415,-5.5098 5.7967,-5.161 10.5322,-11.4657 14.0157,-18.3898 2.8097,-4.6136 7.1314,-8.1628 10.0912,-12.6746 0.4386,-1.1532 -0.8914,-1.7841 -1.8428,-1.7065 -4.3005,-0.9154 -9.3535,0.9326 -13.0433,-2.1289 -2.7728,-2.3134 -5.5254,-4.9755 -7.1746,-8.187 -1.034,-2.4948 -1.6321,-5.2201 -3.2869,-7.4561 -2.1127,-3.3549 -2.0253,-7.5899 -1.3918,-11.3629 0.3076,-2.228 1.621,-4.0884 2.4015,-6.1332 0.5006,-1.3579 -0.3667,-3.0159 -1.9199,-2.9687 -0.4927,-0.06 -0.9898,-0.054 -1.4844,-0.024 z"
       id="NB"
       inkscape:connector-curvature="0" />
    <g
       id="NL"
       inkscape:label="#CA-NL">
      <path
         d="m 2141.1204,1006.4259 c -2.7652,-3.5154 -2.6889,-7.78273 0.2099,-11.74262 3.0768,-4.20294 3.4181,-9.31097 0.6802,-10.17995 -2.5771,-0.81794 -2.5448,-2.90268 0.1115,-7.20068 1.8986,-3.07202 2.0536,-4.34755 1.4726,-12.11804 -1.0462,-13.9915 -0.7287,-30.41121 0.9026,-46.68461 0.1103,-1.1 0.5446,-5.58659 0.9652,-9.97021 0.8868,-9.24199 2.73,-12.6056 9.9129,-18.0902 3.9286,-2.99966 4.9756,-3.39323 6.2387,-2.34495 3.7491,3.11145 4.5159,6.66458 4.0702,18.86006 -0.2378,6.5058 -0.6808,12.23075 -0.9844,12.7221 -0.3037,0.49134 -0.8423,3.57757 -1.1969,6.85828 l -0.6447,5.96492 2.535,-3 c 1.3942,-1.65 2.5511,-3.30718 2.5708,-3.68261 0.079,-1.50185 4.227,-1.87778 7.5321,-0.68265 3.7094,1.34135 3.8073,1.52486 3.5286,6.61526 l -0.1779,3.25 h 5.0176 c 2.7596,0 5.2575,-0.38827 5.5508,-0.86283 0.2933,-0.47455 2.6824,-1.45646 5.309,-2.18202 2.6267,-0.72556 7.0258,-2.35743 9.7758,-3.62637 4.97,-2.29331 9.4657,-2.37012 13.6179,-0.23267 2.1763,1.12029 3.1572,6.49055 1.6317,8.93321 -1.0153,1.62585 -0.8875,2.27725 0.773,3.9377 1.7135,1.71352 2.6887,1.87905 7.0286,1.193 6.3866,-1.00958 7.4488,-0.62446 7.4488,2.70081 0,2.83329 -2.0624,6.45467 -5.3471,9.38917 -1.0774,0.9625 -1.4401,1.75 -0.8059,1.75 0.6458,0 1.153,1.50366 1.153,3.41821 0,1.88002 0.2731,4.13002 0.607,5 0.7024,1.83034 2.393,2.13143 2.393,0.42618 0,-1.85681 4.9696,-7.84439 6.5107,-7.84439 0.7774,0 1.9462,1.79302 2.6074,4 1.3646,4.5544 2.7273,4.91352 6.9101,1.82103 1.621,-1.19843 3.2902,-1.83357 3.7095,-1.41142 0.4193,0.42215 0.8673,3.76518 0.9957,7.42896 0.1283,3.66379 0.307,8.3393 0.397,10.39004 0.2364,5.38519 -3.8234,11.24638 -8.0108,11.56546 -2.514,0.19155 -3.3777,-0.26652 -4.2938,-2.27714 -1.4382,-3.15647 -2.1439,-3.1596 -3.8258,-0.0169 -2.7198,5.08204 -4.9498,1.93338 -6.1353,-8.663 -0.868,-7.75837 -2.0007,-10.837 -3.9871,-10.837 -0.4827,0 -0.8776,1.64468 -0.8776,3.65484 0,2.95286 -0.7555,4.37356 -3.9337,7.39688 -3.5601,3.38663 -4.0294,4.43273 -4.9414,11.01387 -1.3414,9.67918 -3.7346,12.25228 -11.5869,12.45778 -6.7668,0.1771 -7.2823,-1.438 -2.038,-6.38457 2.8532,-2.69125 3.5,-4.03192 3.5,-7.25523 0,-3.72993 -0.1212,-3.88907 -2.1394,-2.80897 -3.7929,2.02993 -8.1463,2.93317 -9.3445,1.9388 -1.199,-0.99514 -2.9086,-0.22999 -12.9579,5.79949 -3.0368,1.8221 -6.7673,3.50974 -8.2899,3.75033 -1.5225,0.24058 -4.3104,0.69761 -6.1953,1.01562 -1.8848,0.318 -7.9598,2.39213 -13.5,4.60923 -5.5401,2.217 -10.5813,4.234 -11.2026,4.4822 -0.6213,0.2482 -2.0838,-0.7618 -3.25,-2.2444 z"
         id="path13"
         inkscape:connector-curvature="0" />
      <path
         d="m 1953.5859,711.43164 c -1.732,0.54903 -0.7156,2.68101 -0.5414,3.89744 1.3133,5.3425 2.4411,10.84959 5.0121,15.75295 1.2867,1.75512 4.2227,1.48895 4.8028,3.86524 1.248,3.22979 1.7351,6.70217 2.4336,10.07873 0.4316,0.99654 -0.2861,2.72507 0.5869,3.2457 3.677,1.01099 7.5424,-0.36339 11.2471,0.39627 1.4686,0.66218 0.387,2.65054 0.3144,3.8418 -0.7438,2.54216 -0.982,5.28355 0.023,7.79492 0.8469,1.85451 -0.5631,3.43828 -1.4003,4.96679 -1.342,2.24926 -0.9645,5.24692 1.0117,7.00586 2.4331,2.53221 5.9687,3.29468 9.0875,4.57708 2.9204,1.52645 3.3375,5.21341 3.7488,8.1373 0.2957,4.52227 0.1795,9.12728 1.0265,13.62251 0.8238,5.49979 1.6497,11.04482 3.1248,16.40441 1.7717,3.80314 5.5598,6.10138 7.4753,9.81504 1.957,2.91245 3.3693,6.19306 4.0358,9.63688 1.3157,2.38119 3.5573,4.16195 4.4407,6.80678 1.6132,3.22131 3.0662,7.18423 1.2545,10.62396 -1.6225,4.15247 -4.7694,7.9833 -4.9177,12.61562 0.4987,2.76889 3.7941,3.26071 6.1222,3.26238 3.0778,0.18144 6.1947,-0.9842 8.2617,-3.28321 0.8696,-0.5684 1.4405,0.3122 1.3661,1.13668 0.7713,4.27031 -0.5872,9.11177 -3.8739,12.01762 -2.3401,1.73886 -5.4175,1.36878 -8.0131,0.54082 -4.5313,-0.65569 -8.8699,1.98284 -11.5884,5.42598 -2.8673,2.04977 -7.8823,2.0248 -9.6075,-1.48242 -0.2346,-1.90434 2.1076,-2.44391 3.1875,-3.58985 2.6541,-1.73246 3.4747,-5.07051 6.0792,-6.84708 1.7428,-1.49496 3.7727,-2.70412 5.4033,-4.29159 0.5028,-2.35643 1.3928,-4.97734 0.332,-7.29883 -1.5034,-1.31939 -3.6429,-0.37373 -5.4147,-0.87502 -2.7808,-0.23404 -5.7711,-1.3663 -8.4818,-0.25584 -2.3605,1.5873 -3.1855,5.30557 -6.4492,5.45117 -3.4112,0.22396 -5.8754,-2.77504 -9.1016,-3.40625 -2.1959,-0.62821 -4.7254,-1.6162 -6.9472,-0.74023 -1.7477,1.4042 -1.5975,4.09567 -3.5118,5.4082 -1.8251,1.72191 -3.6901,3.74835 -3.8212,6.39309 -0.494,2.36814 -1.4069,5.01167 -3.8194,6.0073 -2.5773,2.37564 -1.715,6.35744 -0.3883,9.15882 2.1887,5.04249 5.9779,9.46223 10.6949,12.2865 2.3953,1.15959 5.9022,2.07717 6.1016,5.27486 0.5067,2.94891 0.8003,6.24482 -0.9551,8.8267 -0.4913,2.06615 1.621,3.67513 3.2197,4.51783 3.0944,1.51577 6.3147,-0.44855 8.8956,-2.08033 1.1629,-0.80017 2.765,-0.68357 3.459,0.66406 1.4663,2.4992 1.2177,5.55767 1.8662,8.30477 0.4877,2.10747 0.6196,5.11816 3.083,5.88468 4.1778,1.09841 8.5548,-1.0302 12.6953,0.31641 1.6102,0.71532 2.8288,2.12709 4.6244,2.4994 2.737,0.81199 5.6003,1.23845 8.4146,1.61974 1.6602,-0.0255 3.588,-0.11001 4.9141,-1.15625 1.5969,-5.50572 1.4188,-11.35677 2.0781,-16.95898 0.1778,-0.89837 0.453,-2.12674 1.6024,-1.51852 4.7606,1.03576 8.9385,5.06196 14.0816,4.02323 5.9707,-1.11234 11.6135,-3.48049 17.3822,-5.31973 19.9579,-7.05445 39.3612,-15.59484 59.4241,-22.3581 4.9315,-1.59506 10.0662,-2.59305 14.7741,-4.85328 1.15,-0.59335 2.7709,-1.26611 3.6458,0.11819 2.9301,3.49657 5.7468,7.09461 8.5586,10.69141 5.6688,-5.59951 10.5606,-12.1255 13.947,-19.33064 0.3898,-3.12046 -1.9416,-5.65301 -3.2328,-8.24295 -2.9269,-4.81092 -8.2056,-8.33598 -9.1439,-14.2018 -0.5068,-2.326 0.1579,-4.66904 1.2227,-6.72461 0.4237,-1.08428 -0.3661,-2.10218 -1.4385,-2.28128 -5.2515,-2.79707 -10.3148,-5.9528 -15.3799,-9.04685 -3.978,-1.59845 -8.3288,-0.45512 -12.3477,0.0723 -2.6639,-1.18594 -3.1407,-5.00801 -6.2014,-5.66079 l -3.5173,-9.94663 c -1.5865,-1.50881 -3.9629,-1.58693 -5.8906,-2.4619 -3.2918,-0.97662 -6.7037,-2.18109 -10.1659,-1.95792 -2.3453,0.85085 -3.7725,3.72065 -6.5822,3.32802 -3.1646,-0.21279 -6.0653,-1.90048 -9.291,-1.97265 -5.1544,-0.71387 -10.3672,-0.77453 -15.5566,-1.04883 -3.3012,-3.31618 -6.2072,-7.92985 -11.2231,-8.67375 -6.841,-1.71826 -13.5174,-4.11334 -19.9859,-6.90047 -1.55,-0.84804 -1.926,-2.63944 -2.3027,-4.19816 -0.9764,-2.4506 -2.8151,-5.07601 -1.7466,-7.80911 0.5668,-2.68625 2.4214,-5.74949 0.9652,-8.47209 -2.2867,-3.54084 -6.8715,-3.99765 -10.4472,-5.48549 -2.0369,-1.30789 -1.4124,-4.05965 -2.2044,-6.03272 -1.0198,-3.68774 -2.4397,-7.60394 -5.3971,-10.16649 -2.749,-1.71607 -6.8564,-0.77654 -8.7039,-3.87641 -1.4452,-1.94864 -2.9427,-4.37187 -5.5461,-4.80133 -3.2512,-3.02447 -3.5592,-8.18537 -7.3442,-10.79023 -2.6144,-2.07406 -5.5138,-3.9253 -7.3258,-6.80938 -1.2106,-1.57139 -3.1906,-2.10738 -4.7566,-3.11042 -4.0928,-3.67795 -6.759,-8.68112 -11.0792,-12.14338 -3.1132,-2.91877 -6.2168,-6.13413 -10.1817,-7.84776 -0.066,0.0239 -0.137,-0.029 -0.2032,-0.006 z"
         id="path15"
         inkscape:connector-curvature="0"
         sodipodi:nodetypes="ccccccccccccccccccccccccccccccccccccccccccccccccccccccccccccccccccccccccccccccccccccccccccc" />
    </g>
    <g
       id="NS"
       inkscape:label="#CA-NS">
      <path
         d="m 2063.6603,1148.6779 c -5.8448,-1.264 -8.6858,-4.5674 -11.0509,-12.8494 -1.1573,-4.0525 -1.3453,-6.3929 -0.6587,-8.1987 1.4661,-3.8562 8.0884,-13.6291 12.4349,-18.3509 2.1371,-2.3217 4.4891,-5.0828 5.2267,-6.1358 0.7376,-1.053 2.475,-2.1992 3.8609,-2.547 2.8419,-0.7133 11.5268,-6.563 11.5268,-7.7638 0,-1.041 -4.4875,0.7 -9.8067,3.8047 -9.2463,5.3969 -7.9492,-3.368 2.2057,-14.9045 4.4641,-5.0715 5.5238,-5.7709 8.5964,-5.674 9.5288,0.3004 20.2296,-1.4006 23.7227,-3.771 2.1686,-1.4717 4.168,-2.1333 5.161,-1.7077 0.8915,0.382 3.7039,0.7704 6.2497,0.863 5.272,0.1917 9.4359,2.5076 11.1083,6.1783 1.0665,2.3407 0.6988,2.9622 -5.2955,8.9482 -3.5429,3.538 -7.1166,7.1471 -7.9416,8.0202 -3.5549,3.7624 -12.3505,10.4604 -14.4175,10.9792 -1.3193,0.3311 -3.4554,2.6254 -5.166,5.5485 -2.6774,4.5754 -3.1729,4.9457 -6.0437,4.5162 -2.5876,-0.3871 -3.321,-0.043 -4.25,1.9964 -0.6175,1.3554 -1.1228,2.9244 -1.1228,3.4868 0,0.5623 -1.3539,4.2747 -3.0087,8.2497 -2.2739,5.4621 -4.6062,8.8645 -9.5492,13.9305 -3.5972,3.6868 -6.6307,6.6412 -6.7412,6.5655 -0.1105,-0.076 -2.3788,-0.6087 -5.0406,-1.1844 z"
         id="path18"
         inkscape:connector-curvature="0" />
      <path
         d="m 2130.9753,1072.7182 c -0.8386,-0.67 -3.7093,-3.577 -6.3793,-6.46 -3.5595,-3.8437 -4.5812,-5.5775 -3.8302,-6.5 0.5634,-0.692 2.414,-5.4239 4.1126,-10.5154 3.443,-10.3203 6.689,-17.2428 8.0852,-17.2428 1.7667,0 4.0365,4.4681 4.0501,7.9725 0.022,5.702 0.9692,7.8072 3.8308,8.5141 3.4841,0.8607 8.1555,5.3645 8.1555,7.8629 0,1.0865 -1.3969,4.1523 -3.1042,6.813 -2.2516,3.5087 -3.7436,4.8375 -5.432,4.8375 -1.4449,0 -3.1377,1.1377 -4.4638,3 -2.3688,3.3267 -2.8189,3.4806 -5.0247,1.7182 z"
         id="path20"
         inkscape:connector-curvature="0" />
    </g>
    <g
       id="NT"
       inkscape:label="#CA-NT">
      <path
         d="m 1169.1211,373.94531 c -5.3775,0.56508 -10.802,1.15284 -16.0664,2.35742 -1.8352,1.21414 -1.061,3.76729 -1.0973,5.60043 0.098,1.62109 0.6202,3.6643 -0.4379,5.00895 -1.8845,-0.88748 -2.2254,-3.56295 -4.2265,-4.35352 -1.3931,-0.0421 -1.8293,1.78681 -2.6872,2.61525 -4.6799,6.96172 -8.4996,14.46864 -12.3951,21.88583 -2.9142,5.55545 -5.136,11.42212 -7.2978,17.30021 -0.8295,2.30379 -2.2146,4.36771 -3.1434,6.60887 -0.4183,2.9112 2.6741,4.55089 4.6126,6.06124 4.4447,3.26171 9.6707,5.87359 12.8835,10.50321 1.6914,3.55703 -0.5783,7.34823 -2.0051,10.57918 -2.3857,5.17589 -5.1748,10.53322 -5.1766,16.36419 0.6082,3.97262 5.3215,5.03116 7.0079,8.3496 -1.2753,4.41979 0.2124,9.50894 -2.418,13.53125 -1.8915,2.06852 -5.5412,1.58778 -6.9408,4.27188 -1.4848,1.94914 -0.8659,4.62498 -1.6666,6.7457 -1.9708,1.12707 -2.4353,3.8376 -2.0137,5.9043 0.4893,2.15959 2.8792,3.20111 3.083,5.48828 0.5735,3.55588 0.331,7.33355 1.9209,10.69726 1.4412,3.47933 3.3908,7.06156 2.6815,10.97042 -0.5278,3.59409 1.9265,6.54703 2.965,9.76005 0.6328,2.63858 -1.075,5.09321 -1.4839,7.6401 -3.085,11.2206 -4.7666,22.77717 -5.6771,34.36223 -0.3634,2.30397 -1.3168,4.92216 0.2647,7.0016 1.5126,2.17323 3.388,4.16109 4.1921,6.72554 2.9274,7.22739 3.147,15.79258 8.6173,21.81493 0.5132,0.82769 1.9118,1.62709 1.8613,2.42138 -2.4612,2.21044 -4.3155,5.33716 -3.9817,8.75221 0.01,2.2375 -0.833,4.31557 -1.406,6.37967 0.4305,2.10681 2.9991,2.51601 4.579,3.4694 5.008,2.20581 9.7022,5.04006 14.3839,7.83919 2.1942,0.93238 4.6048,0.22876 6.8301,0.01 1.3498,1.04251 0.6886,3.11938 0.9577,4.62277 0.1567,7.42936 0.089,14.86101 0.1615,22.29129 46.1741,19.07138 93.6296,34.92592 141.7372,48.35435 13.532,3.87511 26.9579,8.14592 40.5621,11.75357 29.1246,5.99765 58.3488,11.51828 87.5334,17.23905 4.5172,0.69926 9.1588,1.98878 13.7337,1.18037 1.6827,-0.95775 0.9682,-3.24625 1.4529,-4.80638 1.0807,-8.95324 1.4618,-17.96649 2.6178,-26.90846 1.646,-17.81322 3.5024,-35.61944 4.9449,-53.44141 1.3558,-10.89746 1.9608,-21.85806 3.2009,-32.77194 0.1279,-2.45726 0.7574,-4.99623 0.1389,-7.42727 -8.03,-5.18443 -16.7402,-9.19335 -25.1209,-13.76934 -14.9684,-7.86494 -29.899,-15.80206 -44.7931,-23.80684 -4.2191,-6.67117 -8.1582,-13.6176 -12.5606,-20.10937 -7.4831,-1.58924 -14.9636,-3.1906 -22.4414,-4.80469 -20.9623,-28.15093 -41.3832,-56.7028 -62.1086,-85.02208 -1.2231,-2.01958 -3.4384,-3.95922 -2.7293,-6.55214 1.3288,-4.65012 3.2374,-9.12884 4.8963,-13.67426 2.8672,-7.69765 6.0345,-15.35468 7.7754,-23.39945 0.6387,-3.46045 -0.2581,-7.12955 -2.5877,-9.79348 -1.8652,-2.52456 -3.9088,-4.91727 -5.1445,-7.79492 -1.4184,-0.74272 -3.0947,-0.91016 -4.3183,-2.04128 -3.475,-2.12706 -7.92,-3.58819 -11.9219,-2.21077 -3.0732,1.24639 -5.0123,4.59142 -8.3551,5.19798 -1.3244,-0.12866 -3.1512,-0.51201 -3.77,-1.76038 0.5548,-2.04486 2.7768,-2.99549 3.8793,-4.71847 1.1412,-1.11081 1.4422,-2.7937 0.7702,-4.23645 -0.8393,-3.69716 0.3794,-7.80392 -1.3643,-11.28531 -1.5509,-1.45051 -3.6575,0.25283 -4.8537,1.34028 -4.5724,3.77138 -8.3617,8.3938 -12.9412,12.15972 -1.8298,-1.32333 -3.8438,-3.19022 -3.4374,-5.67164 -0.2861,-7.7422 0.1047,-15.52332 -0.6251,-23.24047 -0.498,-2.45322 -3.1881,-3.27898 -5.3031,-3.77843 -2.2502,-0.51426 -4.4554,0.51871 -6.0602,2.046 -2.8331,2.04609 -6.5919,1.83718 -9.8848,1.25977 -1.1322,-0.15833 0.099,-1.16338 0.1466,-1.80162 0.7918,-2.01404 1.5246,-4.93477 -0.6406,-6.36678 -6.5354,-4.54135 -15.0848,-4.69527 -22.5874,-2.89696 -7.2997,1.15166 -14.8188,0.63056 -22.0475,2.26653 -1.4578,0.69604 -2.4146,2.24406 -4.1914,2.23633 -1.1211,0.10674 -3.0104,0.26781 -2.9961,-1.32813 -0.5495,-2.73611 0.7114,-6.0487 -1.289,-8.36718 -1.594,-1.60733 -4.2108,-0.87708 -6.1973,-0.82813 z m 80.7832,140.95703 c 9.9133,0.18414 19.9156,-0.38798 29.7519,0.95899 1.6436,0.21274 3.4889,1.70275 2.668,3.51562 -1.2728,2.68384 -3.8441,4.45779 -5.9558,6.43167 -1.0798,1.03449 -2.5567,2.31537 -2.4485,3.90036 0.8237,1.56743 2.8694,1.68608 4.2372,2.5878 7.0016,3.17632 14.3326,5.57389 21.5617,8.12705 1.1712,1.41321 -0.065,3.33559 -0.3749,4.88593 -0.4387,1.55274 -1.4232,3.20297 -3.1782,3.38262 -2.9181,1.26266 -5.4357,3.24763 -8.1149,4.92676 -4.8475,-2.16061 -9.5773,-4.63055 -14.4531,-6.69531 -2.5818,-0.26571 -3.6443,2.71791 -4.4766,4.60742 -1.393,3.14551 -1.5549,7.33535 -4.7207,9.33984 -4.0582,2.25706 -8.666,3.22371 -13.0488,4.61133 -1.4401,0.12233 -0.488,-1.80267 -0.209,-2.49609 1.7519,-3.15404 4.6726,-5.48211 6.5146,-8.56514 0.8024,-0.90851 -0.077,-2.07833 -1.167,-1.93291 -2.9393,-0.27247 -5.6995,1.04718 -7.9271,2.87384 -2.4767,2.04727 -5.5472,3.98414 -8.9303,3.24648 -3.1943,-0.59654 -5.9828,-2.76535 -7.914,-5.30391 -1.0585,-1.36192 -0.6082,-3.08836 0.5488,-4.23242 5.4875,-5.63949 11.2728,-11.21514 18.3465,-14.80593 1.8211,-1.02399 4.1348,-3.08942 2.9504,-5.38353 -1.6072,-3.451 -5.7712,-4.51874 -9.2685,-4.58814 -5.0152,-0.76254 -10.1479,-1.98021 -14.5831,-4.56029 -1.1366,-1.03103 -1.468,-3.48742 -0.1395,-4.33827 6.7619,-0.55667 13.5538,-0.40441 20.3309,-0.49377 z m 39.3984,129.07227 c 3.4164,3.51528 5.8019,7.91561 9.5607,11.12679 4.7461,4.48763 9.5407,9.03812 12.8221,14.73063 1.3132,2.20157 3.5944,3.5687 6.0776,4.04343 4.2867,1.30636 8.89,2.64329 13.3459,1.31916 4.0579,-1.00319 8.3503,-2.45657 10.9789,-5.92118 3.4947,-4.34221 9.4606,-5.074 14.6738,-5.03711 1.2038,-0.28785 2.5995,0.26648 2.0918,1.71679 -0.4507,5.02371 -4.9205,8.8382 -9.6031,10.09446 -5.3068,2.46286 -8.8944,7.41424 -14.1448,9.96084 -5.0193,2.74887 -10.3361,4.98288 -15.4623,7.54193 -1.9102,0.86304 -4.021,0.64342 -5.9968,0.66449 -3.4977,0.74302 -5.5774,4.07081 -8.7625,5.47464 -3.7837,2.28954 -8.369,3.1278 -12.7027,2.21534 -7.1899,-0.72764 -15.1354,-1.1773 -20.6759,-6.41373 -3.4875,-3.00097 -7.2003,-5.9952 -9.6812,-9.90711 -0.4513,-2.05942 2.2938,-1.79608 3.5636,-2.00291 3.6511,-0.32486 7.3152,0.0867 10.7411,1.33104 3.775,0.42352 6.5852,-2.85139 9.1909,-5.0038 1.7431,-1.65388 4.1689,-1.77694 6.4142,-1.50095 2.5166,0.18689 5.8954,-0.53887 6.5544,-3.38005 0.7075,-3.25341 -1.0208,-6.36035 -1.7618,-9.45206 -2.0654,-6.60513 -5.2106,-12.7948 -7.7753,-19.1972 -0.2922,-0.8604 -0.839,-2.25731 0.051,-2.87219 0.1667,0.15625 0.3334,0.3125 0.5,0.46875 z"
         id="path23"
         inkscape:connector-curvature="0" />
      <path
         d="m 1396.7441,342.44922 c -13.0083,1.74414 -26.3384,3.97162 -37.9823,10.35904 -3.047,1.86192 -6.3241,3.72505 -8.4884,6.63705 -1.483,2.01188 -0.8296,4.72081 -2.2949,6.73242 -2.6065,4.4039 -7.8392,7.47861 -8.3333,12.97013 -0.2451,3.75215 2.528,6.7517 4.9407,9.21737 0.1339,1.55639 -0.5547,3.25253 0.4883,4.68165 1.3121,3.06422 4.6004,4.94014 7.8822,4.83245 1.5109,0.23638 3.0113,0.53874 4.5026,0.87653 -6.5716,1.94001 -13.4611,3.22021 -19.5801,6.38281 -1.4282,1.57844 0.1754,3.65334 0.394,5.39197 0.9379,3.16771 1.529,6.78499 3.9283,9.23498 3.3883,2.64753 7.794,3.30299 11.7463,4.74044 6.9162,2.16566 14.0094,3.83264 21.2146,4.63261 7.0002,1.93906 11.9114,7.65266 16.8691,12.58203 -0.4421,0.28088 -2.4209,-0.38044 -3.455,-0.56445 -5.7088,-1.3395 -10.9553,-4.00421 -16.475,-5.89178 -5.3212,-1.27522 -10.8574,-1.07252 -16.29,-1.32226 -3.9479,-0.0212 -7.9787,-0.17809 -11.8503,0.65935 -0.9797,0.41646 -0.741,1.8815 0.3251,1.9848 4.01,1.59445 8.2936,2.38479 12.3951,3.72347 16.7792,4.80878 33.3834,10.28067 50.3494,14.40228 1.1447,0.22804 3.0199,0.54014 3.0847,-1.14961 2.3539,-7.15038 3.8718,-14.5449 5.8664,-21.80047 5.6352,-22.11228 11.2084,-44.25173 16.1375,-66.52961 0.087,-1.39334 -1.6541,-1.72427 -2.5976,-1.03125 -1.6631,0.80508 -3.3079,1.7761 -4.7813,2.84766 -0.8973,1.63655 0.5197,3.39278 0.7972,5.02195 0.4995,1.49544 1.0159,3.03884 0.9528,4.63625 -2.1803,1.05488 -4.6008,1.40623 -6.9375,1.95313 1.2338,-2.9212 2.4671,-5.8426 3.7012,-8.76368 -5.3747,-4.99918 -12.0129,-8.27401 -18.291,-11.95507 -2.9403,2.1582 -5.4623,4.92152 -8.6992,6.62304 1.2868,-4.05359 3.9573,-7.75526 4.4551,-12.08203 0.5929,-3.26562 0.627,-7.38963 -2.0508,-9.75 -0.5966,-0.28937 -1.2749,-0.30359 -1.9239,-0.2832 z"
         id="path25"
         inkscape:connector-curvature="0" />
      <path
         d="m 1296.5614,385.85787 c -0.2523,-0.74683 -0.9086,-5.23924 -1.4585,-9.98313 -0.9117,-7.86423 -1.4897,-9.44164 -6.5514,-17.87777 -3.0533,-5.08888 -5.5415,-9.75751 -5.5293,-10.37474 0.031,-1.56034 2.9939,-4.94551 5.9778,-6.82964 1.375,-0.86822 4.9709,-5.56423 7.9909,-10.43558 3.02,-4.87136 6.341,-9.75701 7.3801,-10.85701 1.0391,-1.1 5.2057,-6.41961 9.2591,-11.82135 7.0505,-9.39576 7.375,-10.06742 7.4884,-15.5 0.065,-3.12326 0.035,-6.28523 -0.066,-7.02661 -0.2455,-1.79124 2.8301,-5.11677 4.2919,-4.64047 0.6358,0.20717 2.8205,0.57426 4.8549,0.81575 2.0343,0.24149 6.0843,1.38405 9,2.53902 2.9156,1.15497 7.1816,2.56626 9.4799,3.13619 3.4163,0.84713 4.3815,1.62582 5.2889,4.26685 0.6106,1.77684 3.5355,5.68483 6.5,8.68443 5.3653,5.42891 5.4164,5.4531 11.2111,5.30008 8.1628,-0.21556 9.2746,1.00492 13.927,15.28967 5.9142,18.15857 5.1334,20.00398 -10.0139,23.66613 -6.96,1.68271 -13.8684,4.69309 -15.5919,6.7943 -0.275,0.33526 -1.8739,1.1644 -3.5531,1.84255 -1.6792,0.67814 -4.1565,2.22759 -5.5052,3.44322 -1.3486,1.21563 -5.4762,4.46024 -9.1724,7.21024 -5.3616,3.98906 -7.4431,6.36308 -10.295,11.74165 -1.966,3.70791 -4.5645,7.27145 -5.7744,7.91898 -1.21,0.64753 -2.1999,1.04082 -2.1999,0.87399 0,-0.27793 -1.2049,-0.0582 -8.5,1.55035 -1.375,0.30317 -5.983,0.79412 -10.24,1.09099 -5.9949,0.41808 -7.8434,0.23363 -8.1986,-0.81809 z"
         id="path27"
         inkscape:connector-curvature="0" />
      <path
         d="m 1416.7695,241.24609 c -2.4199,0.10616 -4.6075,1.58913 -5.6699,3.74219 -1.427,1.50732 -3.7854,1.31084 -5.1855,2.88281 -2.9049,2.40474 -5.2208,5.70701 -5.9278,9.44727 -0.9373,2.7273 -3.6875,4.28067 -4.7284,6.97281 -0.7143,1.16934 -0.6056,2.65884 -1.1075,3.82992 -1.2201,0.26072 -2.5145,0.46024 -3.4034,1.47523 -2.3409,1.97106 -2.9831,5.78493 -0.8896,8.1693 3.0463,4.45994 6.5306,8.67201 10.5038,12.33246 3.353,3.01107 8.5802,2.54372 12.2931,0.48004 0.992,-0.29195 1.6602,-1.82595 2.7246,-1.40234 1.2422,1.94443 3.0533,3.75863 5.4922,3.9668 1.9855,0.41545 4.1751,-0.32338 6.0254,0.67578 -1.6595,1.78311 -4.3277,1.9978 -6.5149,2.78273 -4.455,1.10207 -9.6801,1.82557 -12.6746,5.7036 -1.2721,2.28959 0.7241,4.53405 2.0251,6.26681 2.2496,2.93312 4.7875,5.77204 7.5277,8.1785 5.7902,-0.3237 12.2261,1.15255 17.3672,-2.32031 3.3568,-2.12226 6.4575,-4.71748 10.2434,-6.02833 2.0189,-1.7359 2.063,-4.67421 2.9653,-7.01214 1.5971,-5.98567 3.3686,-12.00729 3.8557,-18.19977 -0.1086,-1.80023 -1.8468,-3.17249 -3.6247,-2.85313 -2.2621,0.0327 -5.4772,-0.26857 -6.0315,-2.95351 -1.4452,-4.59724 -0.2222,-9.8348 -2.2696,-14.41601 -1.5264,-4.15796 -4.8859,-7.29779 -8.5742,-9.56446 -1.5224,-1.3352 -1.5259,-3.43228 -1.5117,-5.27343 -0.6528,-4.21867 -5.0349,-6.79641 -9.0647,-6.80087 -1.2786,-0.0823 -2.5655,-0.12187 -3.8455,-0.0819 z"
         id="path29"
         inkscape:connector-curvature="0" />
      <path
         d="m 1381.7783,266.31612 c -0.9517,-0.24978 -2.1802,-2.09872 -2.7467,-4.134 -1.3853,-4.97688 0.6988,-7.65464 8.3883,-10.77775 6.6773,-2.71203 8.8967,-2.96025 10.3213,-1.15437 1.8232,2.31102 0.9485,4.91312 -2.5517,7.59035 -1.9124,1.46281 -5.0812,4.12215 -7.0417,5.90965 -1.9604,1.7875 -3.8082,3.1978 -4.1061,3.134 -0.298,-0.0638 -1.3165,-0.31935 -2.2634,-0.56788 z"
         id="path31"
         inkscape:connector-curvature="0" />
      <path
         d="m 1372.5714,249.42857 c -0.8643,-0.86428 -1.5714,-2.66428 -1.5714,-4 0,-2.27705 -0.3431,-2.42857 -5.5,-2.42857 -8.8859,0 -11.7531,-4.36549 -7.25,-11.03833 1.6462,-2.43941 3.4614,-3.6427 6.7643,-4.48413 2.4828,-0.63252 6.6754,-2.35665 9.317,-3.83139 2.6415,-1.47475 5.1809,-2.4476 5.6432,-2.1619 0.4623,0.2857 4.0817,-2.51887 8.0431,-6.2324 9.1845,-8.60975 10.7161,-9.38235 18.2676,-9.21457 3.4182,0.0759 7.3398,-0.0638 8.7148,-0.31058 2.9636,-0.53185 7.5034,1.5369 8.3788,3.8181 1.9188,5.00039 -0.1778,10.56447 -4.9973,13.26155 -1.0722,0.60004 -1.821,2.71182 -2.1404,6.03659 -0.4602,4.78889 -0.7681,5.27586 -4.8479,7.66675 -2.396,1.40419 -4.8142,3.40847 -5.3737,4.45396 -1.3294,2.48391 -4.7333,3.51872 -6.5675,1.99652 -2.2089,-1.83319 -1.8605,-8.62997 0.548,-10.6922 1.1,-0.94185 2,-2.05804 2,-2.48042 0,-1.21624 -3.6708,2.01386 -13.5945,11.96245 -9.6249,9.64897 -12.4794,11.03325 -15.8341,7.67857 z"
         id="path33"
         inkscape:connector-curvature="0" />
      <path
         d="m 1436.5078,192.26367 c -2.6571,0.24599 -3.3465,3.61271 -2.6506,5.7533 0.7901,3.95168 3.6073,7.16326 6.8401,9.3678 1.0962,1.89377 1.0207,4.20165 2.1027,6.127 1.2837,3.85557 3.4043,8.07071 7.584,9.35173 4.1622,1.72887 9.6331,2.22794 13.2176,-0.98655 3.1429,-3.65423 3.3437,-8.73492 4.5586,-13.19407 0.7001,-3.47694 1.8132,-6.9599 1.8945,-10.511 -0.5317,-1.9843 -2.958,-1.86711 -4.5664,-1.7296 -7.4051,-0.0748 -14.8453,0.38508 -22.1367,1.62217 -1.1402,-0.16757 -0.6716,-1.68883 -1.4004,-2.37109 -1.1392,-1.88635 -3.1918,-3.37438 -5.4434,-3.42969 z"
         id="path35"
         inkscape:connector-curvature="0" />
      <path
         d="m 1466.9805,176.52148 c -1.8667,-0.1695 -3.6052,0.7773 -5.2485,1.35865 -1.3994,-0.40943 -2.909,-0.44089 -4.1208,0.48518 -2.8328,1.44833 -5.7477,3.98795 -5.9979,7.33391 0.4885,2.02524 3.0339,1.92056 4.6236,1.49488 1.607,-0.33637 3.2292,0.3485 4.1029,1.72973 1.9663,1.90497 4.8609,2.57938 6.8282,4.37305 0.389,1.49409 2.8586,2.09279 3.3221,0.32997 1.9208,-4.62748 3.2745,-9.55465 3.797,-14.53896 0.2214,-1.99581 -2.1583,-2.44765 -3.6793,-2.4429 -1.2097,-0.0795 -2.4126,-0.20113 -3.6273,-0.12351 z"
         id="path37"
         inkscape:connector-curvature="0" />
    </g>
    <g
       id="NU"
       inkscape:label="#CA-NU">
      <path
         d="m 1472.3613,348.23438 c -4.3457,0.2022 -9.4887,1.9543 -11.0351,6.44921 -0.6564,2.37658 0.189,4.83379 1.2324,6.96289 -2.6241,-1.92808 -6.0791,-3.36343 -9.3419,-2.5623 -2.763,1.40293 -4.532,4.07917 -6.6015,6.26348 -0.5507,2.34185 0.2177,4.74813 0.031,7.12421 0.2911,10.50286 1.104,21.0084 0.9747,31.51251 -0.3494,1.63031 -1.3724,3.43135 -3.1387,3.76953 -1.5321,-1.74925 -0.873,-4.31859 -1.1777,-6.44532 0.037,-6.97378 1.2673,-14.38419 -1.9024,-20.91277 -1.7495,-4.457 -3.241,-9.15267 -6.0742,-13.05402 -1.3635,-0.66564 -1.851,1.23844 -1.8958,2.22073 -7.5607,29.41987 -14.659,58.95754 -22.3971,88.332 -23.6894,-6.24774 -47.0006,-13.92094 -70.6231,-20.41797 -1.257,0.0202 -3.0587,-1.41945 -3.9766,-0.0976 -0.4644,1.48392 0.5677,2.96247 0.63,4.45669 1.2635,5.45542 2.3761,10.98547 3.6441,16.41013 2.1276,3.57234 5.8933,5.70876 9.2025,8.04138 3.6039,2.34279 7.6991,3.79379 11.8613,4.72656 3.1951,1.49366 3.9697,5.43096 4.0601,8.55848 0.5842,5.34655 0.8148,10.74759 1.5649,16.07043 1.8586,2.7962 5.6502,2.6415 8.5825,3.21905 10.9773,1.27776 22.0565,1.82559 33.105,1.55634 3.5879,-0.17381 7.282,-1.09248 10.0719,-3.45035 3.9211,-1.78387 8.407,-1.19027 12.492,-2.48897 3.1381,-0.79274 6.4163,-2.39263 7.7721,-5.51771 0.7329,-1.53301 3.6074,-1.48789 3.5508,0.49218 -0.3714,2.05948 1.0243,3.89676 2.8376,4.70773 3.7856,1.92974 7.5413,4.03483 10.6257,6.9528 6.3553,4.97603 13.8712,9.56076 22.2101,9.43839 5.2466,-0.26776 10.8278,-2.82201 13.3617,-7.61454 1.845,-4.32081 -0.3878,-9.00076 -2.7251,-12.6488 -1.2099,-2.16604 -2.9432,-4.48408 -2.7261,-7.07386 1.2673,-1.23928 2.6487,0.60477 3.9356,0.92969 3.1137,0.83529 6.3676,1.23312 9.5856,1.3512 2.3584,0.12547 3.486,-2.32633 3.7659,-4.30807 1.3511,-5.55794 -1.9232,-10.9067 -5.549,-14.83161 -6.2903,-6.78182 -14.2798,-11.96804 -19.4685,-19.76425 -3.0079,-3.98526 -5.176,-9.44767 -2.8672,-14.27539 1.4319,-3.49357 3.8435,-7.37328 2.234,-11.23818 -2.8038,-8.54861 -2.9903,-17.6379 -3.3063,-26.56231 -0.1159,-4.78675 -0.1394,-9.57529 -0.2754,-14.36162 4.1807,-5.66023 9.9208,-10.67796 11.6603,-17.74888 0.6225,-4.77889 -2.9109,-8.8979 -6.4149,-11.66617 -2.142,-1.60048 -4.7893,-2.65053 -7.4954,-2.50487 z"
         id="path40"
         inkscape:connector-curvature="0" />
      <path
         d="m 1751.1121,962.23373 c -5.1307,-2.05279 -6.1121,-2.83487 -6.1121,-4.87096 0,-2.74129 0.5458,-3.01764 7.4379,-3.76597 4.5973,-0.49917 5.1348,-0.3155 7.7942,2.66321 3.6735,4.1145 3.4961,8.08484 -0.37,8.28356 -1.4508,0.0746 -5.3883,-0.96485 -8.75,-2.30984 z"
         id="path42"
         inkscape:connector-curvature="0" />
      <path
         d="m 1565.4082,418.52344 c -3.288,0.90171 -4.7023,4.36396 -6.9082,6.63281 -1.8727,2.31924 -4.2719,4.55978 -4.9297,7.57617 -0.089,1.39758 1.7754,3.07578 0.332,4.20508 -2.8521,2.0188 -6.7613,3.4077 -7.8962,7.0683 -1.2745,2.90757 -2.314,5.96368 -3.0745,9.01959 1.5065,4.28505 4.438,8.26097 4.5608,12.90851 -1.3624,3.77976 -1.5756,7.87616 -1.2756,11.85712 0.2303,3.42398 1.836,6.50077 3.759,9.26059 1.9744,3.22206 4.8772,6.10684 8.6529,7.00114 3.5605,1.50189 7.4079,3.65031 9.0549,7.26366 -0.6344,1.38937 -1.5192,2.71553 -1.3943,4.32314 -0.3833,3.30937 0.4854,6.87323 2.8986,9.25919 1.6471,2.97379 0.9917,6.52625 0.8363,9.77434 -1.2986,6.19269 -6.9565,10.63234 -12.8035,12.26637 -1.8821,0.55287 -3.8138,-0.38493 -5.6641,-0.0527 -0.7461,0.24407 -1.3551,0.80533 -1.7519,1.47266 0.216,-1.32271 0.8131,-2.81067 0.7383,-4.05469 -2.8228,-2.19844 -6.2785,-3.37395 -9.4314,-5.00234 -6.1247,-2.72726 -12.6863,-4.90588 -19.4514,-4.92735 -2.011,0.70684 -1.1665,3.23744 -1.6426,4.78906 -1.1649,4.86884 -3.5005,9.65272 -3.166,14.77539 -0.6319,0.43979 -1.3266,-0.63256 -2.0698,-0.53431 -7.6052,-2.43831 -15.6147,-3.41273 -23.5853,-3.30508 -4.2583,-0.19393 -8.4762,-0.62959 -12.7141,-1.08834 -2.9916,-4.28116 -5.3583,-9.10897 -9.2383,-12.6875 -2.9065,-1.1306 -6.5317,-0.22646 -8.9405,-2.58632 -4.1497,-3.15171 -7.8986,-7.17721 -10.0048,-11.9879 -1.4071,-3.80264 -0.7088,-8.52518 -3.9088,-11.52675 -1.8077,-2.0525 -4.7276,-2.67481 -7.3063,-1.95252 -5.333,0.9003 -10.3847,3.12373 -15.8064,3.30349 -5.1015,0.85529 -10.3206,4.67634 -10.7246,10.17187 -0.079,4.67982 4.858,8.94323 9.4904,7.58565 4.9077,-0.95724 9.5688,-2.84955 14.2342,-4.59346 0.4029,0.11208 -0.7687,1.04125 -1.1679,1.25977 -6.3721,4.17036 -13.374,7.18553 -20.1309,10.66211 0.1868,5.7058 0.9381,11.63 0.7871,17.19922 -1.4801,-5.29073 -5.1589,-9.57272 -8.22,-14.01364 -3.5364,-4.69353 -6.9429,-9.54275 -10.6022,-14.10746 -2.1349,-1.14991 -4.1621,0.98432 -6.2637,1.17837 -7.0343,2.00491 -14.6683,2.64996 -21.6763,0.18776 -6.5929,-1.82031 -13.3039,-3.48411 -19.5171,-6.35832 -2.2547,-1.51582 -3.9526,-3.98577 -4.6543,-6.54492 1.334,-2.39626 4.4078,-2.74998 6.7766,-3.53433 3.5635,-0.71831 8.0639,-0.66275 10.5398,-3.83286 1.5677,-2.88353 -0.6585,-5.95291 -1.5742,-8.6582 -2.1488,-5.28409 -5.3293,-10.25671 -9.9359,-13.72537 -1.8047,-1.53475 -3.7349,-3.47469 -6.2184,-3.64768 -1.8488,0.22828 -3.8126,2.01187 -5.5976,0.63256 -6.9001,-3.15795 -12.4237,-8.75009 -16.7394,-14.91178 -3.0663,-3.79516 -6.5029,-7.39977 -10.5529,-10.14667 -1.0852,-0.60869 -2.7414,-1.80223 -3.7195,-0.40809 -1.1416,2.52996 -1.9626,5.2258 -3.0074,7.81369 -3.6555,9.82307 -7.3475,19.66443 -10.5121,29.64139 0.7294,3.08414 3.2143,5.32231 4.8096,7.96601 17.9283,24.83133 36.0116,49.54264 54.0367,74.29526 1.6927,2.22221 3.2934,4.59653 5.0658,6.70943 7.5404,1.58268 15.0808,3.16537 22.6211,4.74805 4.6992,7.09872 8.4133,15.02794 14.559,21.04253 4.267,3.34635 9.4351,5.16218 14.0497,7.93757 17.7684,9.47863 35.74,18.59695 53.321,28.40857 1.416,0.83413 2.2809,2.48809 1.7043,4.103 -2.5973,25.48614 -4.903,51.00722 -7.3015,76.50366 -1.1585,11.02209 -2.1761,22.05533 -3.1706,33.09061 -0.3751,4.48669 -0.6597,8.99345 -1.4412,13.42187 0.2269,1.69464 2.443,1.53132 3.7061,1.91215 12.8596,1.57033 25.78,2.66505 38.6552,4.12907 8.526,0.77751 16.9682,2.29216 25.4973,2.97663 5.3454,0.72213 10.6845,1.4471 16.0618,1.89641 4.0464,0.42819 7.9927,1.51302 12.101,1.17679 0.9251,-0.20202 2.5786,0.35011 3.0651,-0.23151 -0.2709,-5.3511 -0.4388,-10.96744 2.1594,-15.83961 2.9268,-7.0205 6.9708,-13.69327 8.448,-21.23965 1.622,-4.65232 6.0434,-7.45992 8.1987,-11.80372 2.8194,-5.12395 5.9893,-10.07922 9.923,-14.41184 2.3114,-2.75131 5.0335,-5.18225 7.2625,-7.97488 0.8055,-1.68494 -0.8385,-3.36555 -1.3632,-4.59375 5.1387,-0.48661 10.8788,0.2232 15.3867,-2.83203 3.767,-2.55618 3.9767,-7.61049 3.7754,-11.72265 0.06,-2.18559 -0.099,-5.10994 -2.4844,-6.0586 -1.4852,-1.19458 -3.5059,-1.90875 -4.4297,-3.66797 1.7381,-0.34787 3.4191,0.69066 5.1842,0.53656 2.824,0.2393 5.8503,0.71688 8.5697,-0.2221 2.2516,-1.93527 0.5715,-5.43856 2.4278,-7.64258 1.9173,-2.64436 5.5449,-2.13193 8.3945,-2.3028 4.2432,0.071 9.2137,-0.1362 12.1292,-3.70847 3.8575,-4.2962 5.9304,-9.80614 9.1635,-14.53993 2.85,-4.71057 6.8591,-9.16431 7.2946,-14.8991 0.2855,-2.48795 -0.3846,-5.31688 -2.6557,-6.69814 -0.3788,-0.44858 -1.6253,-1.06042 -1.3496,-1.61328 1.6678,-1.49152 1.5756,-3.98817 3.0977,-5.59961 3.6759,-5.66904 9.675,-10.31072 10.6462,-17.38586 0.6174,-2.63651 -0.6742,-5.32986 -2.8187,-6.87471 -1.0739,-0.99282 -2.2601,-1.89199 -2.9545,-3.18279 2.2687,-1.63173 5.1655,-1.61954 7.8067,-2.20508 1.5693,-0.18577 2.7859,0.90918 3.582,2.11719 2.2933,2.27551 5.4602,4.16204 8.7598,3.99609 1.6434,-0.58261 2.925,-2.46749 4.8691,-1.78124 2.1665,0.37237 4.7538,1.9892 6.7695,0.33593 1.6568,-2.18309 0.021,-4.93214 -0.873,-7.0664 3.2018,2.11797 7.3817,3.50586 11.1738,2.36132 3.5547,-1.9271 4.9884,-5.9802 7.2039,-9.13016 4.3625,-7.12009 9.0994,-14.90057 8.5539,-23.58859 -0.3387,-4.49504 -3.1274,-8.55446 -6.9668,-10.82031 -2.6423,-2.55375 -2.2505,-6.73547 -4.6852,-9.45062 -0.9968,-1.56991 -2.6721,-3.01144 -2.9261,-4.85016 0.8408,-0.74236 2.3234,-0.18459 3.1723,-1.1365 1.7795,-1.34283 2.6365,-3.79681 5.0035,-4.34397 1.65,-0.53383 3.8756,-1.6055 3.461,-3.72592 -0.1628,-4.05319 -2.4176,-7.63633 -4.3849,-10.97134 0.5168,-1.43666 2.8112,-1.91596 2.4825,-3.76172 -0.3875,-2.55004 -2.833,-4.0806 -4.6619,-5.60545 -3.9877,-2.72499 -8.5568,-4.73525 -11.7444,-8.49221 -1.8175,-1.80121 -4.1854,-2.98726 -6.7115,-3.3271 -5.4788,-1.99224 -10.5686,-5.93916 -16.6767,-5.53837 -3.4636,-0.19287 -7.7642,0.67646 -9.2602,4.22289 -2.0989,4.57476 -0.1117,9.64856 0.9026,14.23008 0.8037,2.99193 2.3107,5.77491 4.2595,8.15469 1.2355,3.46653 -1.8838,6.40273 -3.375,9.24578 -3.8152,6.91704 -5.2103,14.81342 -8.2982,22.03712 -1.6458,5.164 -1.139,10.87984 -3.2252,15.86749 -1.1332,1.79534 -2.7389,3.36154 -4.7344,4.15234 -3.0575,-3.20724 -4.8772,-7.33173 -7.6297,-10.77736 -1.8932,-3.20988 -2.913,-7.14937 -2.5774,-10.8867 0.8333,-2.73639 3.6948,-4.60325 3.6719,-7.67578 0.5083,-5.58263 -1.4127,-11.26266 -4.9542,-15.5768 -3.2524,-4.19368 -7.0772,-7.90658 -10.6024,-11.84898 -1.5846,-0.74488 -3.0626,0.78142 -4.5417,1.18482 -2.9177,1.31961 -4.8246,4.16717 -5.3844,7.26891 -1.2731,4.68142 -1.134,9.61499 -2.4099,14.26697 -0.1434,-5.44735 -1.4442,-11.02799 -4.7901,-15.42864 -1.2325,-1.99965 -3.4021,-4.12098 -2.8368,-6.65339 1.7721,-1.99716 4.7665,-1.39339 7.0957,-2.21094 1.9122,-0.42508 4.551,-1.11615 5.0421,-3.27126 -0.3398,-2.05588 -2.8732,-2.21447 -4.3774,-3.05929 -4.8229,-2.05913 -10.3907,-4.02654 -15.567,-2.03273 -2.3496,0.64076 -5.9118,-1.22983 -5.2657,-3.99219 1.406,-3.46462 1.8492,-7.24492 1.5098,-10.96289 1.5357,0.55944 3.8094,1.34405 4.9121,-0.40429 1.029,-2.0242 -0.1004,-4.36446 -0.6893,-6.35291 -2.3585,-6.3243 -7.2722,-11.46801 -8.9502,-18.06252 -1.2907,-6.21735 0.4069,-13.22084 -3.0695,-18.91856 -3.0826,-4.88993 -8.7219,-7.64464 -11.1902,-12.99119 -1.3421,-2.50914 -4.5221,-3.09578 -7.1008,-3.24904 z m -16.4668,123.54883 c -0.5172,5.36263 0.095,10.8755 2.2502,15.83159 0.269,1.31041 0.2318,2.67638 -0.033,3.98481 -0.9491,-2.79482 -3.0276,-5.21489 -5.7148,-6.39062 -0.5957,-1.5879 0.8758,-3.01473 0.9498,-4.61464 0.8783,-3.00853 1.7593,-6.017 2.5502,-9.04943 z"
         id="path44"
         inkscape:connector-curvature="0" />
      <path
         d="m 1743.8569,717.30664 c -5.3281,-3.30631 -5.1119,-13.07574 0.422,-19.06593 2.2465,-2.4317 4.7888,-2.26184 7.9711,0.53256 3.2035,2.81302 1.6221,14.40465 -2.4874,18.23324 -2.5543,2.37976 -2.5544,2.37976 -5.9057,0.30013 z"
         id="path46"
         inkscape:connector-curvature="0" />
      <path
         d="m 1692.0627,706.11723 c -2.322,-4.33869 0.959,-14.18145 5.8356,-17.50668 3.907,-2.66404 5.0051,-2.89916 12.7304,-2.7257 4.7039,0.10561 5.231,0.36224 6.3646,3.09898 1.1254,2.71695 0.9544,3.42256 -1.9117,7.88894 -4.1672,6.49412 -10.1082,10.37365 -16.7345,10.92783 -4.4657,0.37349 -5.3037,0.14903 -6.2844,-1.68337 z"
         id="path48"
         inkscape:connector-curvature="0" />
      <path
         d="m 1669.75,684.23501 c -1.366,-0.29791 -1.75,-1.4188 -1.75,-5.10833 0,-2.59968 -0.54,-5.26668 -1.2,-5.92668 -0.66,-0.66 -3.6975,-1.24486 -6.75,-1.29968 -11.8059,-0.21204 -13.6405,-2.76149 -7.0918,-9.85503 3.7631,-4.07615 4.4251,-5.8719 4.2565,-11.54529 -0.5839,-19.64751 0.01,-25.88927 3.9051,-41.17998 1.2174,-4.77649 1.5932,-5.2312 4.8246,-5.83742 3.0473,-0.57166 3.801,-0.28726 5.7771,2.17998 1.25,1.56058 3.0615,4.74823 4.0256,7.08367 1.4997,3.63292 2.1862,4.25459 4.7529,4.30395 1.9786,0.0381 5.894,2.07719 11.5,5.9891 4.675,3.26228 11.3031,7.8505 14.7292,10.19605 3.426,2.34556 6.2409,4.93965 6.2551,5.76465 0.014,0.825 1.1346,3.3 2.4896,5.5 1.355,2.2 2.4777,4.79143 2.4949,5.75874 0.027,1.52912 0.7166,1.68014 5.2812,1.15676 4.7174,-0.5409 5.6248,-0.31351 8.9441,2.24127 3.2085,2.46952 3.6489,3.30327 3.3508,6.34323 -0.5064,5.16397 -1.1965,6.28316 -5.3121,8.61478 -3.7318,2.11423 -3.734,2.11427 -8.2328,0.16713 -2.8908,-1.25119 -5.814,-1.77687 -8.1746,-1.47005 -2.9152,0.3789 -4.1178,0.006 -5.8194,-1.80553 -1.1797,-1.25571 -2.0012,-3.08311 -1.8255,-4.06088 0.4698,-2.61441 -8.5424,-7.21992 -10.6711,-5.45325 -0.8302,0.68898 -1.5094,2.29329 -1.5094,3.56515 0,3.55789 -1.8171,7.53994 -4.7958,10.50982 -1.4873,1.48292 -3.7049,4.02103 -4.928,5.64024 -3.1372,4.15318 -7.0377,8.26972 -7.9785,8.42021 -2.5127,0.40198 -5.0092,0.44293 -6.5477,0.10739 z"
         id="path50"
         inkscape:connector-curvature="0" />
      <path
         d="m 1538.395,526.65576 c -3.3516,-1.08935 -7.6267,-3.9175 -11.895,-7.86909 -1.65,-1.52758 -3.3805,-2.7795 -3.8456,-2.78204 C 1520.6762,515.9938 1516,511.70395 1516,509.90004 1516,507.38709 1531.8548,486 1533.7177,486 c 2.5112,0 11.7172,9.69445 14.3995,15.16357 4.0604,8.27894 6.8828,16.1078 6.8828,19.09157 0,2.0427 -0.9528,3.34703 -3.8415,5.25864 -3.956,2.618 -7.3012,2.9173 -12.7635,1.14198 z"
         id="path52"
         inkscape:connector-curvature="0" />
      <path
         d="m 1909.7461,677.41273 c -0.1846,-0.18454 -6.5244,-0.60072 -14.0886,-0.92485 -10.8252,-0.46386 -14.1991,-0.95108 -15.848,-2.2886 -1.1523,-0.9346 -3.5221,-2.90991 -5.2663,-4.38958 -2.6608,-2.25727 -3.9657,-2.64458 -8.1072,-2.40627 -5.4583,0.31407 -8.7187,-0.61964 -19.1758,-5.49161 -6.287,-2.92913 -7.2077,-3.72282 -8.3565,-7.20368 -1.1444,-3.46738 -1.0986,-4.01956 0.4026,-4.85969 1.8628,-1.04245 2.2873,-2.84845 0.6696,-2.84845 -0.5633,0 -3.2611,-1.53877 -5.9952,-3.41948 -2.734,-1.88072 -6.331,-3.71819 -7.9932,-4.08327 -1.9118,-0.4199 -3.5615,-1.70652 -4.4898,-3.50168 -2.2077,-4.26918 -7.3131,-7.41762 -12.9586,-7.99133 -4.2077,-0.4276 -5.3028,-0.16226 -7.205,1.74576 -1.6381,1.64309 -3.4138,2.25 -6.5829,2.25 -3.6814,0 -4.9904,0.60679 -8.6293,4 l -4.2896,4 h -8.294 c -13.7885,0 -16.8972,-2.52698 -18.1982,-14.7932 -0.4525,-4.26574 -0.2107,-4.98202 2.5803,-7.64389 2.3777,-2.26766 3.0796,-3.79813 3.0796,-6.71482 0,-2.57699 0.5562,-4.07323 1.75,-4.70743 0.9625,-0.51134 7.0918,-0.99566 13.6206,-1.07628 10.7635,-0.1329 12.1624,-0.36488 15,-2.48742 4.4387,-3.32026 9.1716,-5.57696 11.6964,-5.57696 1.7774,0 2.0466,-0.40388 1.4994,-2.25 -0.7845,-2.64736 -1.3828,-5.00309 -1.4899,-5.86711 -0.042,-0.33942 -1.9301,-1.84379 -4.1957,-3.34307 -3.8725,-2.56269 -4.0883,-2.95632 -3.6032,-6.5728 0.2838,-2.11577 1.1709,-5.11139 1.9713,-6.65694 0.8005,-1.54554 3.7834,-7.38695 6.6287,-12.98091 l 5.1733,-10.17083 -1.9588,-7.06849 c -1.8652,-6.73071 -7.704,-16.0331 -12.6291,-20.12057 -0.9543,-0.79196 -2.8077,-3.1391 -4.1187,-5.21587 -1.3615,-2.15686 -4.4989,-4.95028 -7.3168,-6.51468 -3.9383,-2.18646 -5.1023,-3.44451 -5.7723,-6.23873 -0.7533,-3.14154 -1.1422,-3.46493 -3.7972,-3.15753 -1.6269,0.18835 -3.633,0.92342 -4.458,1.63349 -0.825,0.71006 -3.3685,2.23012 -5.6521,3.37792 -3.5528,1.78564 -4.3226,1.88157 -5.3326,0.6645 -1.6754,-2.01864 -0.3355,-5.54352 3.323,-8.74224 3.0458,-2.66298 3.0713,-2.75727 1.1386,-4.2182 -2.5377,-1.91824 -3.8844,-1.91569 -7.6168,0.0144 -3.9094,2.02164 -5.8601,1.22668 -5.8601,-2.38815 0,-1.92917 0.6699,-3.1775 2.0312,-3.78492 1.8921,-0.84429 1.7038,-1.22534 -2.75,-5.56576 -8.1289,-7.92183 -12.7283,-11.56214 -14.0312,-11.10522 -0.6875,0.2411 -1.25,1.97587 -1.25,3.85503 V 478 l -10.25,0.23484 c -5.6375,0.12917 -13.2298,0.17515 -16.8719,0.10219 -5.5815,-0.11182 -6.6027,0.12621 -6.5,1.51516 0.1049,1.41829 -1.062,1.63311 -8.3781,1.54227 -4.675,-0.058 -13.225,-0.45127 -19,-0.87383 -6.433,-0.47072 -11.8904,-0.38136 -14.0898,0.23069 -4.4221,1.23063 -7.7519,-0.84837 -9.4811,-5.91965 -0.9726,-2.85224 -1.5529,-3.29547 -4.0326,-3.08012 -11.798,1.02459 -12.3739,0.97843 -15.3698,-1.23184 C 1622.4065,465.63545 1617,457.8352 1617,453.16804 c 0,-1.49775 0.9749,-2.02982 4.6396,-2.53212 2.5517,-0.34975 6.4732,-0.63592 8.7143,-0.63592 3.4947,0 3.8663,-0.1948 2.6104,-1.36865 C 1630.7958,446.60444 1625.27,445 1620.4578,445 c -3.1026,0 -4.4361,-0.4706 -4.959,-1.75 -1.7668,-4.32307 -3.2124,-12.65909 -2.9485,-17.00179 1.2515,-20.59173 1.6431,-22.92986 5.9363,-35.44018 6.2403,-18.18435 10.8765,-26.59379 16.5134,-29.95331 8.9373,-5.3265 23.4226,-3.84525 25.1385,2.57063 0.6653,2.48765 0.2762,3.48016 -2.6221,6.68823 -1.9635,2.17333 -3.7027,5.37886 -4.1108,7.57676 -0.389,2.09531 -1.3775,4.83948 -2.1967,6.09815 -1.8061,2.77522 -4.3389,13.19207 -3.527,14.50578 0.3206,0.51886 0.7156,4.25476 0.8776,8.302 0.3293,8.22624 0.7539,9.40373 3.3911,9.40373 1.1661,0 2.0822,-1.00009 2.5189,-2.75 0.3775,-1.5125 1.4198,-3.56384 2.3164,-4.55854 1.3122,-1.45589 1.394,-2.13834 0.4197,-3.5 -2.5108,-3.50878 -3.5608,-6.84211 -3.6321,-11.52981 -0.057,-3.72675 0.3972,-5.22012 1.9751,-6.5 1.1268,-0.91391 2.3502,-2.44915 2.7186,-3.41165 0.3685,-0.9625 1.1342,-1.75 1.7014,-1.75 0.5673,0 1.0314,-0.91103 1.0314,-2.02451 0,-3.5687 7.6135,-14.38998 11.7665,-16.72412 4.4177,-2.48289 13.9806,-4.25898 16.9724,-3.15224 1.8009,0.66616 3.4959,3.22029 9.557,14.40087 3.8239,7.05357 6.6554,14.84594 6.1403,16.89821 -0.7132,2.84158 2.977,7.60366 5.8864,7.59621 1.1976,-0.003 3.8866,-0.48021 5.9756,-1.06032 3.1326,-0.86989 3.689,-1.39904 3.1748,-3.01918 -1.0843,-3.41616 4.97,-8.34084 12.0925,-9.83634 5.6432,-1.18489 6.3047,-1.12777 9.5,0.82019 1.889,1.15156 4.5595,2.11162 5.9345,2.13345 3.1224,0.0496 7.5291,3.66137 8.5014,6.96778 0.9923,3.37428 3.4279,6 5.5657,6 1.2707,0 1.9442,1.10738 2.4329,4 0.3717,2.2 1.0665,4 1.544,4 0.4775,0 3.3732,2.48507 6.4349,5.52238 4.5847,4.54825 5.6637,5.20974 6.1169,3.75 0.3026,-0.97481 1.1895,-3.24417 1.9709,-5.04302 1.5698,-3.61407 2.5191,-3.66273 11.1926,-0.57374 3.6317,1.2934 4.5722,2.24413 6.3825,6.45237 1.2462,2.89686 3.2752,5.61601 4.9123,6.58306 1.5341,0.90617 3.3016,2.60513 3.928,3.77547 2.0984,3.92088 4.5353,4.70093 7.4713,2.39151 3.1859,-2.50604 5.6127,-2.04154 11.4586,2.19319 3.7299,2.70189 4.2042,3.45718 3.6287,5.77847 -1.7184,6.9323 -1.7872,8.25152 -0.4149,7.96009 0.7504,-0.15938 2.1475,-1.52728 3.1046,-3.03978 2.5207,-3.98345 5.5901,-3.54264 10.4446,1.5 4.5904,4.76828 6.7459,8.28925 6.8874,11.25 0.2663,5.57425 0.5776,6.19634 3.8924,7.77706 1.9002,0.90612 4.1515,2.99471 5.003,4.64131 l 1.5482,2.99383 -4.5659,2.67577 c -3.7566,2.20149 -4.9801,2.487 -6.9032,1.61079 -3.1013,-1.41303 -3.7883,-0.51212 -1.8572,2.43523 1.5139,2.31049 1.4501,6.44392 -0.1624,10.51389 -0.8667,2.18761 2.4864,5.23705 7.3663,6.69909 2.1057,0.63088 5.5808,2.33971 7.7225,3.79739 2.1416,1.45768 5.4689,2.7228 7.3939,2.81139 1.925,0.0886 4.625,0.63056 6,1.20438 1.375,0.57382 5.1084,0.84638 8.2965,0.6057 l 5.7964,-0.43762 5.3672,5.5859 c 4.7071,4.89896 5.8697,5.60126 9.4535,5.71089 2.2475,0.0688 4.6305,0.18125 5.2954,0.25 0.665,0.0688 1.5128,1.61034 1.8841,3.42575 0.3713,1.81541 0.9679,3.59361 1.3259,3.95157 0.3579,0.35795 3.7767,-0.43313 7.5973,-1.75796 l 6.9464,-2.40878 3.7687,2.14794 c 3.518,2.00509 3.7892,2.49749 4.0777,7.40376 0.3805,6.47007 -0.1744,8.82487 -2.79,11.84064 -1.9065,2.19824 -1.9298,2.46328 -0.3685,4.18847 1.3404,1.48116 1.4501,2.31726 0.5601,4.27062 -0.6087,1.33589 -0.8515,4.00177 -0.5395,5.92417 0.735,4.52926 -2.6082,9.63882 -6.3067,9.63882 -2.1313,0 -2.3968,0.33126 -1.8036,2.25 1.069,3.4573 4.2914,9.54069 5.4248,10.24117 2.0905,1.29199 0.8838,3.36438 -3.1093,5.34002 -4.0579,2.00768 -4.1793,2.01032 -7.6203,0.16609 -1.9232,-1.03077 -5.7079,-2.44083 -8.4104,-3.13347 -4.2489,-1.08895 -5.3747,-1.9538 -8.3203,-6.39155 C 1897.6986,567.70699 1890.731,561 1888.5685,561 c -0.7841,0 -2.0203,-0.58092 -2.7471,-1.29092 -4.0461,-3.95269 -10.8214,-6.37546 -10.8214,-3.8696 0,0.46172 -1.19,1.38171 -2.6445,2.04442 l -2.6446,1.20493 2.722,2.84116 c 3.2498,3.39208 3.2363,7.94429 -0.028,9.56201 -1.5716,0.77876 -1.9016,1.53452 -1.3202,3.02317 0.4263,1.09166 0.8068,1.64129 0.8454,1.22141 0.1151,-1.24988 7.3049,2.15334 8.6716,4.10461 0.694,0.99074 3.0787,3.83138 5.2993,6.31254 3.9302,4.39116 5.2738,5.0556 15.7435,7.78571 3.1187,0.81323 4.297,1.6896 4.7618,3.54173 0.3398,1.3536 1.519,2.94344 2.6205,3.53296 1.1015,0.58953 3.1089,2.82407 4.4608,4.96567 1.352,2.14159 5.6315,7.13075 9.51,11.08702 l 7.052,7.19323 -0.206,13.92306 c -0.1133,7.65768 -0.5273,14.12163 -0.92,14.36432 -1.0875,0.67218 -19.2259,-5.12982 -28.8643,-9.23295 -4.7074,-2.00397 -9.9464,-4.83993 -11.6422,-6.30214 -2.8525,-2.4595 -5.6851,-2.9741 -11.6667,-2.11949 -1.7089,0.24415 -0.5609,1.94282 2.0414,3.02074 1.5353,0.63593 3.6068,2.67034 4.6034,4.52091 1.4872,2.76159 3.1826,3.8858 9.4586,6.27217 4.2056,1.59912 12.4851,6.03181 18.3988,9.85041 l 10.7522,6.94292 -0.2522,6 -0.2522,6 -5.7092,0.12412 c -3.1401,0.0683 -5.8602,-0.0269 -6.0447,-0.21139 z"
         id="path54"
         inkscape:connector-curvature="0" />
      <path
         d="m 1764.2551,673.68785 c -3.7585,-2.53419 -4.9298,-5.16999 -3.2153,-7.23584 1.6546,-1.9937 3.6334,-1.82092 7.0558,0.61608 3.0538,2.17448 3.8139,5.62246 1.7044,7.73191 -1.5304,1.5304 -1.6659,1.50322 -5.5449,-1.11215 z"
         id="path56"
         inkscape:connector-curvature="0" />
      <path
         d="m 1775.191,662.28654 c -1.8306,-0.34972 -2.2449,-0.9948 -2,-3.11382 0.2344,-2.02763 0.9312,-2.74508 2.8867,-2.97252 3.362,-0.39101 7.2761,2.71414 6.3765,5.05856 -0.6509,1.69631 -2.4391,1.94935 -7.2632,1.02778 z"
         id="path58"
         inkscape:connector-curvature="0" />
      <path
         d="m 1759.0087,551.16258 c -6.7342,-6.73426 -4.5149,-27.50866 3.4998,-32.76007 3.5503,-2.32628 8.9837,-1.08194 12.6095,2.8878 2.8135,3.08041 2.882,3.41933 2.882,14.25824 0,12.38529 -0.4271,13.26487 -8.1511,16.78669 -5.148,2.34727 -7.5837,2.08378 -10.8402,-1.17266 z"
         id="path60"
         inkscape:connector-curvature="0" />
      <path
         d="m 1786.5,532.80861 c -2.9822,-1.39819 -5.4854,-5.21412 -4.4837,-6.83493 1.1968,-1.93653 9.1221,-1.38008 10.7337,0.75364 1.9206,2.5428 1.5076,4.09029 -1.5,5.62016 -1.8897,0.96121 -3.3757,1.10547 -4.75,0.46113 z"
         id="path62"
         inkscape:connector-curvature="0" />
      <path
         d="m 1726.6667,506.33333 c -1.0476,-1.04759 -0.8249,-1.6465 1.7066,-4.58996 1.4763,-1.71657 2.6262,-4.68212 3.0478,-7.86003 0.6507,-4.90533 2.961,-9.88334 4.5869,-9.88334 1.4946,0 1.9753,3.16258 0.809,5.32244 -0.6467,1.19766 -1.0803,3.65002 -0.9636,5.44969 0.3536,5.45244 -6.5755,14.17248 -9.1867,11.5612 z"
         id="path64"
         inkscape:connector-curvature="0" />
      <path
         d="m 1522.3143,434.94797 c -2.5737,-2.12673 -4.7465,-4.67255 -4.8284,-5.65738 -0.8963,-10.76874 -2.4936,-13.48856 -11.5778,-19.71315 -1.7432,-1.19446 -4.597,-4.85053 -6.3417,-8.12459 -3.0922,-5.80292 -3.1365,-6.06618 -1.7563,-10.45285 0.7787,-2.475 2.5119,-5.32503 3.8515,-6.3334 2.4218,-1.82289 2.4664,-1.81028 7.7776,2.19973 5.1327,3.87525 5.4067,3.96143 6.9993,2.20167 0.9116,-1.0073 2.12,-3.5068 2.6854,-5.55446 0.8815,-3.19251 0.7471,-4.02869 -0.943,-5.86827 -4.7898,-5.21351 -5.978,-8.45688 -4.9251,-13.44356 1.1417,-5.40671 4.1689,-10.20171 6.4406,-10.20171 0.8581,0 3.9215,1.35102 6.8076,3.00226 4.5036,2.5767 5.4181,2.79657 6.4517,1.55115 2.4538,-2.95669 13.434,-5.27579 15.7943,-3.33588 0.7119,0.58514 1.25,3.29606 1.25,6.29793 0,4.09447 -0.3905,5.42194 -1.75,5.94897 -1.6667,0.64611 -1.6667,0.73978 0,1.96723 2.5688,1.89183 2.2231,2.96889 -2.75,8.56834 -2.475,2.78672 -4.5,5.52515 -4.5,6.0854 0,0.56025 1.35,1.48925 3,2.06444 2.3094,0.80506 3.0034,1.65636 3.0147,3.69799 0.01,1.45869 0.6638,3.77717 1.4571,5.15217 2.9778,5.16145 3.6955,7.69135 4.1637,14.67753 0.4286,6.39474 0.209,7.60848 -2.0134,11.12898 -2.5871,4.0983 -8.1096,8.19349 -11.0492,8.19349 -0.93,0 -1.4364,0.4119 -1.1252,0.91533 0.9776,1.58178 -4.1485,6.65728 -7.8804,7.80264 -3.3791,1.03708 -3.8284,0.88628 -8.253,-2.77 z"
         id="path66"
         inkscape:connector-curvature="0" />
      <path
         d="m 1563.6349,415.92742 c -2.1271,-1.67315 -2.6349,-2.91329 -2.6349,-6.4349 0,-2.39928 -0.4643,-5.58346 -1.0317,-7.07595 -2.3517,-6.1855 -0.5144,-29.13286 2.9617,-36.99132 1.1532,-2.60686 2.3707,-6.45327 2.7056,-8.54757 0.8499,-5.31536 3.903,-7.04891 14.9846,-8.50817 3.0165,-0.39723 5.2159,0.0164 8.2102,1.54396 2.2495,1.14759 5.0223,2.08653 6.1619,2.08653 2.8878,0 8.7796,2.58866 12.7034,5.58148 3.2918,2.51081 3.2977,2.53078 1.6833,5.71906 -0.8911,1.7597 -2.2607,3.93176 -3.0436,4.8268 -0.7828,0.89503 -1.6551,2.92003 -1.9383,4.5 -0.2832,1.57996 -2.0288,5.12266 -3.879,7.87266 -1.8935,2.81438 -3.9143,7.55768 -4.6228,10.85113 -0.6924,3.21813 -1.7395,5.99741 -2.3271,6.1762 -0.5875,0.17878 -3.9617,0.57426 -7.4982,0.87885 -3.5365,0.30459 -6.7648,0.9003 -7.1739,1.32381 -0.6041,0.62527 -1.5459,7.79454 -1.8383,13.99433 -0.076,1.60583 -5.3043,4.27568 -8.3733,4.27568 -1.3281,0 -3.6005,-0.93266 -5.0496,-2.07258 z"
         id="path68"
         inkscape:connector-curvature="0" />
      <path
         d="m 1708.1644,382.75 c -4.6397,-7.54442 -11.3068,-21.93647 -10.7882,-23.28803 0.8655,-2.25539 21.0016,-1.99222 25.2453,0.32995 5.7494,3.14611 12.8736,10.56365 16.2206,16.88863 1.96,3.70386 -0.902,5.49137 -8.3596,5.22101 -4.7743,-0.17309 -7.2244,0.2832 -10.3953,1.93599 -6.1007,3.17983 -9.4884,2.87081 -11.9228,-1.08755 z"
         id="path70"
         inkscape:connector-curvature="0" />
      <path
         d="m 1608.5,335.47391 c -2.2,-1.35501 -5.3765,-2.46597 -7.0589,-2.46879 -5.121,-0.009 -6.6112,-1.87965 -6.9866,-8.77239 -0.1839,-3.37684 -0.7851,-6.98193 -1.336,-8.01131 -1.5647,-2.92373 -2.1704,-12.25601 -0.9441,-14.54737 0.6038,-1.12815 1.1785,-4.55382 1.2772,-7.61261 0.1514,-4.69082 -0.2476,-6.10935 -2.5486,-9.06144 -1.5004,-1.925 -2.8845,-4.4 -3.0757,-5.5 -0.2997,-1.724 -1.3812,-2.08342 -7.8375,-2.60453 -4.1194,-0.33249 -8.2199,-0.92112 -9.1123,-1.30806 -2.2708,-0.98465 -11.4561,-12.60849 -12.1389,-15.36161 -0.3102,-1.25082 -0.1331,-3.83481 0.3935,-5.74221 1.1498,-4.16402 3.5829,-5.02751 11.5335,-4.09308 8.2553,0.97026 13.1762,4.08506 14.7828,9.35717 0.8234,2.70203 3.3838,3.44302 10.0516,2.90897 7.9861,-0.63964 11.4544,1.30301 11.4847,6.43283 0.011,1.7872 0.7944,2.94448 2.53,3.73528 3.8322,1.74604 4.8873,4.97983 3.2117,9.8433 -1.3975,4.05638 -1.3856,4.10174 1.9337,7.3472 1.8369,1.7961 3.3399,4.26992 3.3399,5.49738 0,1.86058 0.7068,2.336 4.25,2.85862 2.3375,0.34479 8.075,1.37263 12.75,2.28411 l 8.5,1.65722 5.5965,-2.65629 c 3.0781,-1.46097 6.073,-2.6563 6.6554,-2.6563 0.5824,0 2.9701,-1.59676 5.306,-3.54835 4.1581,-3.47403 4.4167,-3.54433 12.3446,-3.35678 9.3536,0.22127 12.2162,1.04585 19.0975,5.5011 8.2748,5.35742 12.7007,12.80328 9.5083,15.99577 -0.6557,0.65566 -0.5878,2.06199 0.2003,4.1499 1.0001,2.64962 0.9311,3.44802 -0.4288,4.95826 -0.8914,0.99006 -1.7838,3.3751 -1.9831,5.3001 -0.3158,3.04981 -0.9827,3.80959 -5.185,5.90693 -8.3028,4.14383 -20.4045,4.11353 -22.2649,-0.0557 -0.809,-1.81301 -1.1521,-1.91676 -2.4204,-0.73184 -0.8128,0.75936 -3.4912,2.377 -5.9521,3.59475 -3.8758,1.91795 -6.4806,2.26523 -19.4743,2.59636 -16.0335,0.4086 -19.7433,-0.35108 -20.9965,-4.29948 -0.8728,-2.74998 -1.5805,-2.55853 -5.5035,1.48903 -1.8658,1.925 -3.8666,3.48596 -4.4462,3.46879 -0.5796,-0.0172 -2.8538,-1.13986 -5.0538,-2.49488 z"
         id="path72"
         inkscape:connector-curvature="0" />
      <path
         d="m 1574.5,332.27509 c -2.0575,-0.50706 -13.1256,-8.04351 -15.927,-10.84497 -2.4444,-2.44442 -1.8989,-5.5969 2.3483,-13.56935 3.3615,-6.30978 4.468,-7.54922 7.75,-8.68062 4.5284,-1.56107 9.2939,-0.48724 13.5541,3.05422 2.5944,2.15663 2.7575,2.82632 3.3911,13.92004 0.6629,11.60797 0.6552,11.66476 -1.93,14.25 -2.4803,2.48029 -4.798,2.95224 -9.1865,1.87068 z"
         id="path74"
         inkscape:connector-curvature="0" />
      <path
         d="m 1535.3401,313.9172 c -4.5612,-2.09898 -9.3401,-7.09844 -9.3401,-9.77124 0,-0.93533 1.4414,-2.96542 3.2032,-4.51132 l 3.2031,-2.81074 -9.3085,0.30419 c -10.5296,0.34409 -12.0978,-0.5484 -12.0978,-6.88496 0,-4.77603 -1.2733,-6.62447 -6.984,-10.13828 -2.7588,-1.6975 -5.016,-3.35859 -5.016,-3.69131 0,-0.33273 0.7601,-1.89162 1.689,-3.46421 1.5692,-2.65647 2.0125,-2.81716 6.25,-2.26574 5.4142,0.70454 8.061,1.91048 8.061,3.67269 0,0.70726 2.0174,3.39142 4.4832,5.96482 3.3258,3.47102 5.2337,4.6789 7.3906,4.6789 2.5986,0 2.9524,-0.38592 3.3316,-3.63359 0.4534,-3.884 -0.9539,-5.88066 -6.4554,-9.15894 -1.5125,-0.90128 -2.75,-2.2062 -2.75,-2.89982 0,-0.69363 2.2415,-3.03292 4.981,-5.19842 3.7292,-2.94772 5.677,-3.83774 7.75,-3.54124 1.523,0.21782 5.2026,0.62398 8.177,0.90257 2.9745,0.27859 6.4972,1.22013 7.8283,2.09231 l 2.4202,1.58577 -0.555,18.54525 c -0.3293,11.00171 -0.9955,19.07592 -1.6378,19.84987 -0.6279,0.75654 -0.8092,2.76265 -0.4317,4.77514 1.0119,5.3941 -0.7523,7.69809 -5.8172,7.59684 -2.3181,-0.0463 -6.0867,-0.94569 -8.3747,-1.99854 z"
         id="path76"
         inkscape:connector-curvature="0" />
      <path
         d="m 1466.8867,243.43555 c -3.3118,0.1861 -4.9342,3.74808 -5.4004,6.6151 -2.5611,10.02187 -4.7364,20.22783 -5.2519,30.58021 0.078,1.49927 -0.049,3.27106 -1.4824,4.09961 -1.2803,1.89175 -1.5576,4.28122 -2.3557,6.39082 -1.5536,5.46828 -3.0229,11.0795 -3.0779,16.78887 0.5557,1.79853 2.9964,1.24949 4.0312,0.20898 1.5869,-1.34753 3.781,-2.37529 5.843,-1.35059 3.3908,1.22235 6.3425,3.78552 10.0969,3.87438 6.7476,0.80141 13.414,-3.36387 16.4058,-9.32489 2.2653,-2.98098 4.4476,-6.36279 4.3203,-10.26531 0.3978,-5.39791 -0.093,-11.26072 -3.2441,-15.83007 -1.4719,-1.80553 -4.0711,-2.24279 -6.1538,-1.31617 -2.8564,0.66512 -5.8802,1.86886 -8.7896,0.76929 -1.2041,-1.86381 -0.5534,-4.21164 -0.5273,-6.28125 0.8747,-3.55236 2.2776,-7.09361 1.8025,-10.82485 -0.01,-2 -1.0785,-3.91711 -0.9217,-5.87241 0.6463,-1.87226 1.6408,-4.16976 0.067,-5.89214 -1.1938,-1.67362 -3.3388,-2.5383 -5.3623,-2.36958 z"
         id="path78"
         inkscape:connector-curvature="0" />
      <path
         d="m 1489.9622,307.40052 c -0.7099,-1.86716 -0.5236,-3.1715 0.7423,-5.19669 0.9296,-1.48711 1.7275,-2.7925 1.7732,-2.90088 0.046,-0.10837 1.5097,-0.44838 3.2534,-0.75558 2.9902,-0.52679 3.2881,-0.29238 5.242,4.12469 1.259,2.8463 1.7112,5.04363 1.1528,5.60205 -0.5054,0.50535 -3.2357,1.07642 -6.0674,1.26904 -4.7169,0.32087 -5.228,0.14124 -6.0963,-2.14263 z"
         id="path80"
         inkscape:connector-curvature="0" />
      <path
         d="m 1684.5028,276.00895 c -0.3475,-1.09508 -0.4075,-2.35407 -0.1333,-2.79775 0.7602,-1.23008 -0.5583,-2.75928 -3.8491,-4.4641 -2.8465,-1.47464 -3.0833,-1.43181 -5.2986,0.95857 -1.7111,1.84636 -2.8959,2.32274 -4.5204,1.81753 -1.2108,-0.37657 -3.3264,-0.91891 -4.7014,-1.2052 -1.375,-0.2863 -3.4814,-1.68087 -4.6809,-3.09905 -1.8466,-2.18325 -2.4215,-2.37889 -3.75,-1.27628 -0.863,0.71622 -1.5691,2.48887 -1.5691,3.93923 0,3.43694 -3.1835,5.45635 -7.2081,4.57239 -1.672,-0.36722 -8.5827,-0.73706 -15.3571,-0.82186 -10.7898,-0.13506 -12.6656,-0.41348 -15.126,-2.24512 -2.4069,-1.79176 -2.8515,-2.89281 -3.1074,-7.69484 -0.1945,-3.65122 0.2471,-6.65916 1.2675,-8.63233 2.3999,-4.64095 8.2942,-10.06014 10.942,-10.06014 4.2783,0 4.8977,-2.33275 1.4815,-5.58043 -5.5631,-5.28883 -7.2665,-10.94044 -4.7427,-15.73531 1.6653,-3.16389 2.7767,-3.65202 8.3503,-3.66773 6.0781,-0.0171 10.0925,2.92371 11.6396,8.52678 0.5637,2.04168 2.1099,4.79711 3.436,6.12318 1.9803,1.98032 2.7733,2.21714 4.439,1.32567 1.9295,-1.03261 1.8117,-1.30801 -2.4251,-5.667 -2.4492,-2.5199 -4.988,-5.87292 -5.6417,-7.45116 -1.0586,-2.55569 -0.8964,-3.25256 1.4827,-6.37176 L 1648.1018,213 h -6.8284 c -8.513,0 -11.2734,-1.61522 -11.2734,-6.59654 0,-1.91573 0.9314,-5.30882 2.0698,-7.5402 1.1383,-2.23139 1.8313,-4.29552 1.5398,-4.58695 -1.5757,-1.57579 2.8911,-6.27491 8.889,-9.35124 l 6.6104,-3.39048 6.6301,3.4827 c 8.4371,4.4319 7.9196,4.25278 7.9751,2.76049 0.026,-0.70278 0.3743,-2.06528 0.7737,-3.02778 0.3993,-0.9625 0.3404,-1.79464 -0.1309,-1.84919 -0.4714,-0.0546 -2.1597,-0.21355 -3.7518,-0.35331 -4.1214,-0.36178 -10.9217,-7.96752 -13.1513,-14.70895 -0.9711,-2.9362 -3.2705,-7.31576 -5.1098,-9.73235 -1.8392,-2.41659 -3.3441,-4.74877 -3.3441,-5.18261 0,-0.43385 -0.8624,-1.06253 -1.9164,-1.39706 -2.8395,-0.90123 -3.9478,-5.3438 -3.181,-12.75183 0.8971,-8.66713 1.9271,-9.80788 8.3449,-9.24184 6.6648,0.58781 8.4775,1.91027 15.7954,11.5235 3.3837,4.44503 6.2989,7.93522 6.4781,7.75598 1.1082,-1.10819 -1.5943,-7.20151 -4.8195,-10.86678 -4.9653,-5.64266 -4.7556,-8.65592 0.7985,-11.4779 2.2,-1.11779 5.792,-3.25529 7.9821,-4.75 2.1902,-1.49471 4.7777,-2.71766 5.75,-2.71766 1.1127,0 1.7679,-0.75594 1.7679,-2.0396 0,-1.12178 1.8301,-3.8335 4.067,-6.02605 l 4.0669,-3.98645 -2.5669,-3.05067 c -1.4119,-1.67788 -2.5811,-3.80365 -2.5983,-4.723955 -0.017,-0.920301 -1.0601,0.351725 -2.3177,2.826725 -6.182,12.16698 -10.9557,16.44927 -18.4857,16.58262 -2.5659,0.0454 -7.2421,0.69859 -10.3914,1.45144 -7.9331,1.89635 -11.1655,0.7227 -11.5784,-4.20395 -0.1675,-1.9984 0.3721,-5.2527 1.199,-7.23178 0.8269,-1.97908 1.2417,-3.59833 0.9218,-3.59833 -1.0696,0 -4.3163,4.28813 -4.3163,5.70076 0,0.76711 -1.1493,2.45987 -2.554,3.7617 -2.0546,1.90414 -3.1052,2.20887 -5.3731,1.55845 -6.6981,-1.92098 -11.5604,-7.52362 -9.1012,-10.48682 1.0763,-1.29683 0.9449,-1.53409 -0.8493,-1.53409 -1.1673,0 -2.4599,-0.0678 -2.8724,-0.15077 -1.6539,-0.33246 -3.1881,-3.53368 -3.2182,-6.714753 -0.025,-2.671371 0.7932,-4.119662 3.9682,-7.021883 C 1618.2922,86.18915 1618.8737,85 1616.5,85 c -0.825,0 -2.4,-0.9 -3.5,-2 -1.1,-1.1 -3.039,-2 -4.3089,-2 -8.6692,0 -6.307,-9.304719 3.3089,-13.033552 1.925,-0.746476 5.1351,-3.069303 7.1336,-5.161838 3.0871,-3.232413 4.269,-3.80461 7.8584,-3.80461 3.9667,0 4.1878,-0.147454 3.6191,-2.41337 -0.4699,-1.872298 0.066,-2.978814 2.3916,-4.93544 1.6485,-1.387139 2.9973,-3.396022 2.9973,-4.464185 0,-2.505903 2.0383,-4.172253 4.534,-3.706729 1.0813,0.201686 2.4657,0.401132 3.0765,0.443213 0.6107,0.04208 2.7141,1.16483 4.6742,2.494997 3.8224,2.593909 4.7153,2.072491 4.7153,-2.753471 0,-1.194275 1.575,-4.386681 3.5,-7.094235 1.925,-2.707554 3.5,-5.724667 3.5,-6.704696 0,-0.980029 1.7833,-3.656476 3.9628,-5.947661 3.1921,-3.35553 4.4746,-4.067956 6.5941,-3.662793 2.1915,0.418939 2.7948,0.03393 3.6097,-2.303777 1.0654,-3.055991 5.2432,-5.099138 9.0566,-4.42906 7.5718,1.330495 9.9573,1.123429 14.4188,-1.251598 4.9701,-2.6458282 12.6881,-3.6438268 15.755,-2.037254 1.3542,0.709402 3.5724,0.486428 7.7528,-0.7793092 4.2407,-1.2839633 6.4758,-1.5022077 8.1031,-0.7912057 1.2359,0.5400049 4.7221,0.8237097 7.7471,0.6304552 7.4346,-0.4749653 9.2799,0.1258905 10.7618,3.5042787 1.369,3.120877 4.0771,4.885231 8.6691,5.648092 3.8614,0.641489 5.5231,2.439889 6.6188,7.163038 1.397,6.022029 1.1232,11.308895 -0.9796,18.912352 -1.4808,5.354834 -2.6935,7.618149 -5.2122,9.728358 -1.8053,1.5125 -3.8152,2.75 -4.4665,2.75 -1.804,0 -6.9198,6.270634 -9.8093,12.023416 -1.4201,2.827499 -2.5821,5.349943 -2.5821,5.605431 0,1.293807 5.0502,-3.470469 5.9723,-5.634111 0.5872,-1.377895 2.4073,-3.402895 4.0448,-4.5 1.6374,-1.097105 2.9784,-2.332236 2.98,-2.744736 0,-1.133502 4.7928,-0.899015 5.5153,0.270082 0.3468,0.561046 0.6305,3.527837 0.6305,6.592869 0,4.230549 -0.5865,6.459012 -2.435,9.252274 -3.7414,5.653642 -6.8665,12.159028 -6.4464,13.419295 0.2081,0.624316 -1.7252,5.878201 -4.2962,11.6753 -2.5709,5.7971 -5.1388,11.66518 -5.7064,13.04018 -1.2624,3.05836 -3.4213,14.06289 -3.8243,19.49362 -0.3911,5.27065 -5.1098,9.79072 -9.732,9.32235 -2.8187,-0.28562 -3.1835,0.003 -3.7975,2.99936 -0.3736,1.82344 -1.687,4.38803 -2.9187,5.6991 -2.0993,2.23463 -10.3259,5.81277 -11.2468,4.89181 -0.2302,-0.23018 -1.2783,0.53779 -2.3291,1.70659 -1.887,2.09898 -1.8829,2.14356 0.3395,3.6281 2.6823,1.79179 2.9659,5.81049 0.595,8.43033 -1.3296,1.46923 -1.3788,1.85142 -0.25,1.94409 0.7728,0.0634 1.855,0.2199 2.405,0.34769 0.55,0.12778 1.832,0.30087 2.8488,0.38465 1.0168,0.0838 3.1543,1.5499 4.75,3.25807 3.6664,3.92489 4.1585,11.09212 0.9012,13.12631 -2.6173,1.63456 -2.5229,2.56877 0.5,4.94659 1.375,1.08158 2.5,2.82527 2.5,3.87487 0,1.2016 -0.9259,2.14075 -2.5,2.53583 -2.0174,0.50634 -2.5,1.24735 -2.5,3.83894 0,4.49238 -4.4578,9.30803 -9.0171,9.74097 L 1703.5,216.5 l 0.3412,7.5224 c 0.3071,6.76939 0.1069,7.77042 -2,10 -6.1528,6.51119 -6.1692,6.54742 -4.2712,9.44415 0.9499,1.44962 3.1227,3.35683 4.8285,4.23824 1.7058,0.88141 3.6068,2.29234 4.2245,3.1354 1.497,2.04337 0.9133,7.16395 -1.4128,12.39514 -4.4386,9.98206 -18.7846,18.83161 -20.7074,12.77362 z"
         id="path82"
         inkscape:connector-curvature="0" />
      <path
         d="m 1497.4933,238.58422 c -2.757,-2.75697 -3.247,-7.12369 -1.3955,-12.435 1.3578,-3.89495 3.1598,-4.00062 5.7676,-0.33823 3.9313,5.52105 3.9854,12.12814 0.1161,14.19891 -1.6298,0.87226 -2.4511,0.61136 -4.4882,-1.42568 z"
         id="path84"
         inkscape:connector-curvature="0" />
      <path
         d="m 1571.1178,237.21732 c -7.1285,-3.69828 -7.8807,-7.28853 -2.5214,-12.03332 4.3685,-3.86755 9.8857,-4.28523 14.9839,-1.13435 5.5913,3.45556 5.6838,7.86746 0.2607,12.43065 -3.3864,2.84954 -8.1225,3.12389 -12.7232,0.73702 z"
         id="path86"
         inkscape:connector-curvature="0" />
      <path
         d="m 1562.3454,220.54926 c -3.3065,-1.43856 -4.8643,-4.33886 -3.9232,-7.30401 0.3471,-1.0936 -0.5788,-3.07167 -2.4573,-5.25 -3.6601,-4.24432 -4.3706,-6.70385 -3.6874,-12.7653 0.6056,-5.37272 3.6678,-8.66876 7.1119,-7.65499 1.1608,0.3417 4.7684,2.37712 8.0169,4.52316 3.2484,2.14603 6.2137,3.90188 6.5895,3.90188 1.6051,0 3.0042,5.58911 3.0042,12.00125 v 6.90714 l -4.6438,3.5458 c -5.1791,3.95455 -5.5557,4.03335 -10.0108,2.09507 z"
         id="path88"
         inkscape:connector-curvature="0" />
      <path
         d="m 1540.704,218.67631 c -1.2122,-1.27748 -3.779,-4.12299 -5.704,-6.32334 -6.1646,-7.04637 -9.238,-8.72605 -15.5028,-8.47259 -4.9675,0.20097 -5.8568,-0.0861 -8.5217,-2.75108 -3.11,-3.10994 -3.7978,-6.72423 -1.9403,-10.19504 0.5693,-1.06384 1.6943,-1.93426 2.5,-1.93426 0.8056,0 2.3364,-0.87158 3.4016,-1.93683 1.6696,-1.66957 1.7933,-2.46302 0.8963,-5.75 -0.6203,-2.27313 -2.4122,-4.95323 -4.4368,-6.63597 -6.412,-5.32932 -3.649,-13.6772 4.527,-13.6772 4.4561,0 10.0767,3.92112 10.0767,7.02988 0,1.86132 1.4427,3.2534 3.7318,3.60084 2.439,0.37021 7.1442,4.95227 9.3188,9.07506 1.2201,2.31318 2.997,5.04153 3.9486,6.063 3.4358,3.6879 3.8901,5.51523 2.4207,9.73764 -1.9813,5.69341 -1.7906,7.00175 1.5801,10.8408 1.65,1.87924 3,4.12373 3,4.98774 0,2.87619 -2.1911,6.4311 -4.6562,7.55427 -2.0748,0.94534 -2.7623,0.76562 -4.6398,-1.21292 z"
         id="path90"
         inkscape:connector-curvature="0" />
      <path
         d="m 1598.0897,207.85325 c -2.2437,-2.33498 -4.3416,-5.07168 -4.6622,-6.08156 -0.3205,-1.00988 -1.7198,-3.05914 -3.1095,-4.55392 -3.5937,-3.86534 -7.318,-11.61619 -7.318,-15.22998 0,-3.95606 3.9028,-7.98779 7.7323,-7.98779 2.5975,0 6.2677,-2.84057 6.2677,-4.85092 0,-0.89203 -4.8552,-3.50857 -6.5,-3.50294 -0.55,0.002 -3.1317,0.3575 -5.7372,0.79026 -6.0549,1.00572 -9.149,0.20606 -10.4766,-2.70763 -0.7916,-1.73743 -0.7012,-2.99765 0.3605,-5.02397 0.8436,-1.61012 0.9995,-2.7048 0.3852,-2.7048 -0.5675,0 -1.9319,-0.9 -3.0319,-2 -2.2473,-2.24731 -2.6063,-6.96243 -0.9022,-11.85078 0.9827,-2.81903 1.5141,-3.14922 5.0674,-3.14922 3.6589,0 3.9138,-0.17569 3.257,-2.24506 -0.3919,-1.23478 -2.049,-3.41189 -3.6824,-4.83803 -2.5172,-2.19772 -2.8663,-3.06443 -2.2906,-5.68585 0.8078,-3.67748 2.8105,-5.54424 6.4114,-5.97595 6.2368,-0.74775 6.4188,-1.482 1.627,-6.56226 l -3.5124,-3.72383 2.0222,-3.9639 c 1.1122,-2.18015 3.3405,-4.64561 4.9517,-5.4788 2.3277,-1.203717 2.9933,-2.286367 3.2402,-5.270608 0.2901,-3.506793 0.5448,-3.77542 3.8425,-4.053071 3.6502,-0.307318 9.4844,2.752629 11.0536,5.797359 2.2154,4.29849 4.9146,10.77132 4.9146,11.78531 0,2.1432 4.1987,8.68651 8.6125,13.42185 3.2292,3.46447 4.3875,5.52627 4.3875,7.80986 0,2.35167 1.2103,4.38239 5,8.38946 4.3789,4.63002 5,5.81228 5,9.51707 0,4.47771 0.3744,4.96442 9.957,12.94244 3.5728,2.97452 4.043,3.86499 4.043,7.65657 0,3.69223 -0.8329,5.39364 -5.9722,12.20015 -3.2847,4.35026 -7.1097,8.51834 -8.5,9.26241 -1.6572,0.88691 -2.5278,2.20424 -2.5278,3.82491 0,1.35963 -1.6675,4.65859 -3.7055,7.33102 -4.1164,5.39779 -4.748,5.70929 -8.9777,4.42795 -1.9018,-0.57612 -2.224,-0.23648 -2.5,2.63481 -0.3092,3.21676 -0.4413,3.3034 -5.4823,3.59552 -4.9251,0.2854 -5.3552,0.10181 -9.2448,-3.94608 z"
         id="path92"
         inkscape:connector-curvature="0" />
      <path
         d="m 1477.0547,181.26367 c -2.4027,1.32054 -2.013,4.53118 -2.6928,6.81365 -0.3125,2.01153 -1.2516,4.17073 -0.8599,6.15901 1.4766,1.00819 2.7091,-1.04627 3.1934,-2.20661 1.3153,-3.16452 2.1413,-6.7418 1.4413,-10.143 -0.207,-0.38219 -0.6316,-0.69249 -1.082,-0.62305 z"
         id="path94"
         inkscape:connector-curvature="0" />
      <path
         d="m 1549.9765,148.7182 c -3.4063,-2.72369 -5.7729,-6.78322 -5.2353,-8.98009 0.8446,-3.4514 2.2577,-4.73811 5.2036,-4.73811 2.0567,0 3.3379,0.97442 5.3776,4.08974 3.2041,4.89397 3.3094,6.27843 0.6776,8.91026 -2.2787,2.2787 -3.8392,2.46477 -6.0235,0.7182 z"
         id="path96"
         inkscape:connector-curvature="0" />
    </g>
    <path
       d="m 1631.5195,861.70312 c -11.8199,14.40129 -24.9411,27.6877 -36.8495,42.01487 -15.6702,18.31805 -31.4174,36.56795 -48.3752,53.71943 -4.6371,4.86488 -9.7179,9.64934 -12.5624,15.84383 -2.5008,6.72419 -1.4732,14.03458 -2.1191,21.03952 -0.8662,21.75293 -2.5368,43.48433 -2.7266,65.25733 0.2221,2.2546 2.2459,3.6998 4.2383,4.3457 2.6379,1.4575 2.3948,4.7684 2.7302,7.327 0.2548,2.9054 0.662,6.7342 3.7698,7.9836 2.8917,1.2455 6.4226,0.8943 8.8787,3.1178 3.0639,1.7499 6.7724,1.1838 10.1506,1.4036 3.4365,0.1126 7.1863,-0.4361 10.3132,1.0921 3.1748,2.0449 5.6331,5.9306 9.8079,5.8962 1.1775,-0.1254 1.7851,0.7577 2.2637,1.6387 2.4904,2.3679 6.1254,2.9032 9.3801,3.4842 6.5451,0.7995 13.1887,0.6748 19.6554,1.993 4.592,0.7102 9.3623,1.9701 13.9899,0.9633 3.5131,-1.4479 5.3983,-5.0575 8.4687,-7.0928 3.7864,-3.1685 8.3275,-5.3924 11.9063,-8.791 0.749,-1.1596 -0.1292,-2.4956 -1.0157,-3.2286 0.093,-1.3505 1.9677,-1.566 2.7896,-2.4615 1.3538,-0.7272 2.6966,-1.9774 4.0706,-2.3132 4.9824,2.4305 10.0552,5.9647 15.8858,5.2659 3.6756,-0.076 7.3338,-0.4797 11.004,-0.663 1.5453,4.3091 1.0115,9.1038 2.67,13.3574 1.7795,2.9074 5.3155,3.8535 8.057,5.5813 3.9411,2.0947 8.2053,3.4942 12.5269,4.5066 2.5471,1.5334 2.8668,4.85 4.4188,7.1766 1.2763,2.5617 3.1609,4.826 4.2512,7.462 0.3535,1.2577 -0.6364,2.1625 -1.7344,2.4082 -1.4015,1.1437 -0.096,2.9962 1.0065,3.7876 1.9304,2.0046 3.5057,4.5863 3.7224,7.4319 1.4614,3.4345 5.5855,4.1442 8.3248,6.1755 1.9533,1.1272 3.4372,2.9099 5.1559,4.2871 3.7328,1.564 7.8808,0.7193 11.804,1.0417 9.1138,-0.017 18.3731,-0.223 27.1563,2.4872 5.3088,1.2303 10.9034,1.2665 16.0313,3.1916 3.0275,1.7621 4.976,4.7758 7.5205,7.1131 3.6104,3.9377 7.4883,7.7797 10.1709,12.4297 1.4526,3.4725 1.1618,8.3926 -2.3204,10.5078 -2.9799,0.83 -5.6232,-1.2386 -8.2661,-2.3349 -6.3519,-3.426 -10.7697,-9.3488 -16.3784,-13.7589 -1.5875,-0.6647 -2.6317,1.5735 -1.7871,2.7813 1.2018,2.7812 4.0871,4.4066 5.1836,7.2265 0.7795,1.6788 1.911,3.4765 2.2271,5.2124 -2.8472,5.4341 -7.1198,10.7308 -6.8486,17.2032 -0.2504,5.7882 0.7215,11.5909 0.2817,17.3598 -0.8293,4.2278 -3.9924,7.3969 -6.9883,10.2305 -2.1337,3.4083 -2.0183,7.6725 -3.8223,11.2109 -0.098,1.5404 1.9008,2.3069 1.5057,3.9293 0.075,2.5119 -0.4462,6.0427 -3.3729,6.6684 -2.909,0.7815 -6.6435,0.758 -8.3753,3.6895 -0.7801,1.2832 -1.8319,2.7178 -1.8473,4.2167 0.7996,1.2405 2.4185,-0.032 3.5605,0.1309 3.8836,-0.5719 8.3883,0.4178 11.7539,-2.1348 3.639,-2.6833 6.3939,-6.3425 9.6852,-9.4144 3.4751,-3.5034 7.0888,-7.6 12.098,-8.7281 5.579,-0.6958 11.0318,2.8138 16.5783,1.0219 0.9808,-0.2135 1.9344,-0.532 2.9002,-0.8032 -1.4684,-1.6495 -3.8079,-2.338 -4.9863,-4.2598 1.6206,-2.2673 4.6131,-2.8518 6.9061,-4.1363 4.7066,-2.119 9.8448,-3.3339 15.0451,-3.1723 1.7298,-0.068 3.6564,-1.6944 2.7366,-3.5387 -0.7286,-1.9369 -1.4775,-4.3182 -3.4378,-5.3265 -1.8114,-0.4523 -3.7353,0.1834 -5.5322,-0.5306 -1.7869,-0.448 -4.3023,-1.7656 -3.3565,-3.9909 1.4006,-3.4689 3.6586,-6.6863 6.8453,-8.6692 7.6362,-4.7458 16.5501,-7.7648 25.5618,-8.7537 5.2865,-0.4657 11.1219,-0.6725 15.5187,-4.0771 1.4473,-0.754 0.328,-2.8014 1.7715,-3.5937 1.6813,-2.0541 4.5832,-2.4306 6.0966,-4.6708 7.3144,-7.8035 13.3401,-16.8008 21.4847,-23.8279 2.0911,-2.0425 4.5984,-3.7636 6.3074,-6.1459 1.132,-2.5938 -0.8891,-5.1309 -0.9785,-7.7285 -0.1464,-1.0577 -0.4353,-2.3024 -1.7422,-2.2812 -2.3374,-0.091 -4.482,1.1751 -6.6126,1.9744 -5.2207,2.4957 -10.385,6.0216 -16.389,5.8995 -3.6376,0.2845 -7.2843,0.427 -10.9262,0.6456 -2.2941,-3.0924 -4.3698,-7.3351 -8.5957,-7.9785 -4.7105,-1.6008 -8.5451,-5.4418 -13.6779,-5.8486 -5.8279,-0.925 -11.7338,-1.6273 -17.195,-4.0211 -5.8864,-2.3513 -11.7906,-5.5336 -15.5665,-10.8022 -4.4684,-6.9237 -5.9942,-15.1727 -6.7438,-23.2425 -2.9754,-24.9879 -5.8305,-49.9901 -8.8617,-74.9713 -0.6384,-6.2348 -1.4121,-12.4541 -2.1894,-18.6729 -4.1629,0.3125 -8.3256,0.6264 -12.4883,0.9395 -1.8988,-6.62431 -5.0911,-13.1043 -10.291,-17.75004 -1.5148,-1.26869 -3.5046,-1.78595 -4.6328,-3.51172 -5.6121,-6.23802 -11.0586,-12.78129 -15.4747,-19.91211 -2.9962,-4.46842 -0.2112,-10.13611 -2.5214,-14.79883 -1.9927,-5.98245 -1.2075,-12.84322 -4.8399,-18.26758 -1.3988,-2.12044 0.3161,-4.4092 0.4195,-6.6336 0.772,-4.76464 0.8583,-9.64818 1.309,-14.41913 -0.7222,-1.38479 -2.5986,-1.44983 -3.7473,-2.38275 -5.2379,-2.83286 -11.334,-2.49159 -17.0839,-2.90833 -8.4475,-0.4655 -16.9721,-0.34168 -25.3765,-1.02425 -1.9572,-1.28905 -3.4279,-3.18717 -5.3311,-4.56433 -2.8343,-2.45819 -5.9955,-5.34454 -10.0061,-5.17894 -3.2567,-0.38717 -6.2573,-2.0365 -8.4766,-4.41992 -5.0716,-3.91374 -12.6137,-2.60348 -17.169,-7.35987 -1.855,-1.60058 -2.9386,-3.83659 -4.1563,-5.88443 -3.8129,-4.57143 -8.709,-8.15092 -13.9891,-10.8514 z"
       id="ON"
       inkscape:connector-curvature="0" />
    <path
       d="m 2069.5312,1053.2773 c -2.9913,1.4864 -3.8121,5.0558 -5.2519,7.7891 -0.8892,1.7776 -0.9165,4.6717 1.3943,5.329 2.2262,0.7379 4.6357,0.3337 6.8093,1.335 6.962,2.1259 14.1636,3.4932 21.4585,3.5801 2.5816,0.046 5.1158,0.3845 7.5488,1.1817 2.2269,-0.1995 2.7344,-2.8364 2.9442,-4.6361 0.4364,-3.3504 0.6897,-6.7924 2.4347,-9.775 0.6314,-1.086 0.5712,-3.2443 -1.1656,-3.042 -2.7561,0.024 -5.3996,1.0447 -8.0357,1.7484 -3.3062,1.2758 -6.6895,2.7711 -10.3221,2.441 -2.4104,0.057 -5.0476,0.1898 -7.0293,1.7383 -1.956,-0.2877 -2.9782,-2.2868 -4.5137,-3.3379 -1.8609,-1.6768 -3.7923,-3.7621 -6.2715,-4.3516 z"
       id="PE"
       inkscape:connector-curvature="0" />
    <g
       id="QC"
       inkscape:label="#CA-QC">
      <path
         d="m 1821.3066,682.54883 c -4.2929,2.03556 -6.7976,6.53348 -11.1216,8.55788 -3.203,1.52911 -6.9068,0.86255 -10.2775,0.50983 -4.9442,-0.64351 -9.6235,-2.98454 -14.7049,-3.01974 -4.7147,-0.22134 -9.4894,0.16679 -14.0815,1.23914 -3.064,1.31521 -3.7987,4.96093 -5.3201,7.57551 -0.4538,1.2397 -1.6445,2.47599 -1.4803,3.80178 2.267,5.53862 4.4928,11.14949 7.5109,16.31053 1.6552,7.3785 0.04,15.0576 1.3701,22.47891 0.6763,3.35462 3.5808,5.58077 4.9619,8.593 2.0121,3.3346 3.0316,7.06521 3.8604,10.79102 0.572,2.38178 2.1115,4.76629 1.7048,7.2444 -0.909,1.68858 -2.6752,2.92147 -2.885,4.96266 -0.8708,3.23849 0.6573,7.38492 -2.2165,9.81584 -1.9307,1.49722 -2.7315,3.85323 -3.3472,6.11078 -1.3434,3.60169 -3.4913,7.62576 -2.0919,11.52671 2.3695,5.26552 7.3817,8.68557 12.1341,11.6248 4.049,2.19931 7.7064,4.94134 10.8379,8.32617 3.5225,3.48765 6.7437,7.60045 7.6943,12.58149 2.4257,7.91481 5.6446,15.82243 5.5531,24.22325 0.2978,5.25853 -0.234,10.59622 -2.4701,15.39838 -2.6216,6.99273 -6.2473,13.76661 -11.6517,19.0275 -4.1033,4.75927 -8.135,9.79027 -13.6816,12.95937 -3.6262,2.46329 -7.596,4.90738 -9.9438,8.70822 -0.4367,2.30296 2.0141,3.85585 2.7908,5.75531 1.1559,1.89769 0.7336,4.19286 1.6445,6.12382 1.2372,1.91864 3.7141,2.61449 4.7557,4.69314 2.4209,3.47703 2.7591,7.91667 2.5353,12.051 0.068,3.56415 2.7861,6.21937 3.7054,9.49427 1.784,5.88325 4.3995,11.46843 7.0084,17.03153 1.1101,2.75433 2.5416,5.58917 2.6478,8.57694 -0.6096,4.27248 -4.8351,7.3518 -4.971,11.81718 -0.016,1.34649 0.9477,2.91283 0.1543,4.09766 -1.5649,0.97618 -4.2755,0.32199 -5.0976,2.39648 -0.01,3.21155 0.9406,6.33991 1.116,9.54621 3.6163,29.8106 6.9661,59.6533 10.5405,89.4685 0.5237,5.8859 1.4139,11.8007 3.7453,17.2726 1.7266,4.2598 4.1229,8.4378 8.0195,11.0598 5.6903,4.1111 12.5248,6.3758 19.3443,7.7681 4.9693,0.8638 10.3572,0.7877 14.6938,3.6453 2.8578,1.6539 5.7603,3.4157 9.0406,4.0442 3.0762,1.4553 3.7238,6.0084 7.3877,6.4883 3.425,0.5647 6.9268,0.1722 10.3789,0.1539 3.0215,-0.1336 5.8695,-1.3675 8.1865,-3.2718 4.6504,-2.9414 10.2351,-5.4862 15.8281,-3.9876 1.7385,1.2929 0.8006,3.784 1.7321,5.5312 0.7805,2.6673 1.9887,6.2752 5.2298,6.6091 5.6322,0.829 11.2217,-0.7932 16.7527,-1.6115 9.2702,-1.7877 18.5257,-3.8101 27.6923,-6.0142 3.6999,-2.0797 5.2795,-6.4408 8.8888,-8.6661 5.0171,-3.5326 7.33,-9.6095 8.2808,-15.4525 0.9123,-6.44 1.6589,-12.9046 2.6244,-19.3393 0.7667,-6.6557 2.1945,-13.2435 4.366,-19.5863 1.059,-3.1303 1.9515,-6.4845 4.0816,-9.0563 1.9696,-1.4201 4.4118,-0.03 6.605,-0.4253 2.4674,-0.1094 4.8959,-0.588 7.3305,-0.9712 -0.2019,-5.4191 -1.3654,-10.8309 -0.6621,-16.25 0.9296,-2.7079 4.2624,-2.6456 6.5856,-2.7836 5.7404,-0.3023 12.2668,-0.339 16.6909,-4.6006 4.0604,-3.7479 9.6942,-4.8661 14.8775,-6.0367 4.6675,-1.0176 9.4644,-1.2599 14.1358,-2.2404 5.1936,-1.6665 8.3553,-6.5253 11.6184,-10.5586 2.9659,-4.0454 4.2288,-9.5892 2.1084,-14.3002 -1.045,-3.3222 -2.9855,-6.769 -6.5069,-7.8992 -3.9766,-1.5354 -8.3122,-3.02276 -12.607,-1.9886 -6.029,1.1168 -11.6576,3.7429 -16.6871,7.2093 -4.9234,3.4129 -9.9219,6.7171 -15.0304,9.8407 -7.1718,4.6628 -13.4178,10.5506 -19.5489,16.4728 -4.9371,5.1295 -9.4869,10.6688 -13.4655,16.5728 -1.2144,1.9009 -1.6336,4.151 -1.9551,6.3204 -2.8697,7.5496 -6.8268,14.6698 -11.134,21.4504 -5.4984,8.2003 -12.8114,14.9716 -20.5744,20.9857 -7.0094,6.055 -12.9899,13.1653 -19.4956,19.7316 3.026,-4.8666 7.3152,-8.7778 11.2032,-12.9356 4.9043,-4.9803 10.2784,-9.4687 15.493,-14.1023 7.8248,-8.3788 13.8048,-18.2978 19.0363,-28.4428 1.8866,-3.6707 3.1759,-7.6156 4.0572,-11.6326 2.1816,-5.8512 6.2867,-10.7631 8.2387,-16.7338 3.1082,-7.2534 7.8847,-14.0436 14.4019,-18.6548 1.3685,-0.9496 3.0647,-0.957 4.6049,-1.4337 2.2471,-1.5502 2.389,-4.5809 3.3698,-6.9128 1.7606,-5.3304 2.5151,-10.94301 4.3157,-16.25126 0.9764,-2.81185 3.4295,-4.66793 6.0482,-5.85712 9.4404,-5.00091 19.7759,-8.00889 29.8776,-11.43156 16.099,-5.20708 32.4901,-9.48535 48.6126,-14.61305 8.0297,-3.06417 15.936,-6.77372 22.7859,-12.01819 2.2731,-2.16189 2.6729,-5.47132 4.2661,-8.07229 3.0927,-6.2641 6.3507,-12.52155 8.0668,-19.33401 1.9688,-4.83785 6.0957,-8.23893 9.8253,-11.73823 3.696,-3.13475 7.7622,-5.83235 11.1972,-9.26953 -0.3177,-2.09812 -2.2102,-3.48902 -3.2298,-5.25383 -1.4152,-1.88508 -2.7444,-3.91118 -4.4928,-5.49226 -1.8243,-0.56086 -3.0319,1.45749 -4.7539,1.62238 -6.2948,1.98841 -12.6747,3.70839 -18.8348,6.10422 -22.8086,8.14415 -44.9675,18.18372 -68.2356,24.98238 -3.5023,1.04701 -7.4419,0.91 -10.6533,-1.01203 -1.4719,-0.75971 -2.9439,-1.627 -4.6084,-1.87664 -0.8494,3.85504 -0.9633,7.83184 -1.4505,11.74174 -0.173,2.1202 -0.3843,4.33042 -1.571,6.1567 -4.5641,0.91809 -9.2983,0.18908 -13.9185,-0.0932 -2.1811,-0.17109 -4.2261,-1.14192 -5.7358,-2.71343 -3.3708,-2.23491 -7.5634,-0.26972 -11.1738,-0.46094 -3.0082,-0.14432 -5.0048,-2.90911 -5.9805,-5.48242 -1.0391,-2.68502 -0.8266,-5.69948 -1.8789,-8.35352 -1.3367,-1.57435 -3.3179,0.0844 -4.8661,0.25966 -3.3592,0.96575 -7.3678,0.74445 -9.9039,-1.93652 -1.267,-0.91055 -2.1386,-2.5796 -1.2432,-4.05836 0.9822,-2.92197 2.3276,-6.651 0.091,-9.34486 -2.3113,-2.38958 -5.785,-3.1877 -8.0037,-5.71464 -4.3721,-3.78609 -8.3345,-8.63038 -9.0546,-14.56208 -0.6432,-2.4825 -0.2983,-5.42123 1.8993,-7.0404 2.2375,-2.23542 4.0759,-5.24887 3.6492,-8.53444 0.064,-1.66837 1.4673,-2.79165 2.9062,-3.32617 2.2943,-1.46005 2.8111,-4.30053 3.5508,-6.68164 1.3705,-2.11084 4.1637,-0.84944 6.0938,-0.6543 3.4261,0.64392 7.0039,1.52651 9.7012,3.83789 1.6303,1.10941 3.8398,0.59288 4.996,-0.95117 1.6086,-1.59818 2.3452,-4.34599 4.7012,-4.98712 3.5411,0.26055 7.0834,1.2303 10.6881,1.42405 1.729,0.18677 3.4593,0.36046 5.1889,0.54158 1.1907,-3.475 3.6822,-6.65193 3.7893,-10.41109 -0.5942,-3.42613 -2.5313,-6.5179 -4.7306,-9.14528 -1.2449,-1.14959 -2.0393,-2.68151 -2.0916,-4.37458 -1.3352,-4.76992 -3.9018,-9.24239 -7.3363,-12.79951 -2.0197,-1.61187 -3.9212,-3.69104 -4.0702,-6.40888 -1.4256,-6.43229 -3.2456,-12.84558 -3.6371,-19.43598 -0.4673,-4.97446 -0.2132,-10.10063 -1.6462,-14.92858 -1.2966,-2.5082 -4.5819,-2.23156 -6.7129,-3.57617 -2.5382,-1.28574 -5.2597,-2.80223 -6.6094,-5.39649 -0.7062,-3.02058 1.1712,-5.84421 1.1739,-8.85547 0.4941,-4.03928 0.4277,-8.11703 0.5566,-12.17773 -3.7844,0.0118 -7.6433,1.11791 -11.3555,0.2168 -0.8023,-1.26393 0.329,-2.87847 -0.2866,-4.28196 -0.5755,-3.56155 -1.3129,-7.31683 -3.3286,-10.3489 -1.2621,-0.6041 -2.2782,-1.49039 -2.9414,-2.75454 -2.6321,-3.73153 -3.9675,-8.11663 -4.9004,-12.5521 -0.2081,-1.37882 -1.9018,-2.26978 -2.9517,-1.1141 -3.0744,2.55995 -3.2988,6.9429 -4.1694,10.5555 -0.3328,2.0572 -1.2426,4.25721 -0.083,6.2196 1.6982,3.35547 1.4439,7.19297 1.5636,10.84287 -0.175,3.94347 -0.5182,8.32562 -3.02,11.55081 -1.1432,1.39249 -3.1871,1.8641 -3.7569,3.74498 -1.0944,2.6744 -0.9461,5.93541 -3.1016,8.08966 -2.1829,2.7457 -4.7841,5.284 -7.8212,7.03841 -0.6833,-0.0453 -0.2892,-1.09221 -1.0137,-1.31836 -1.6479,-1.21924 -3.8765,-1.25908 -5.4609,-2.61523 -3.6677,-2.14462 -6.4265,-5.65731 -10.291,-7.4961 -3.1923,-1.10036 -6.5246,0.51144 -9.6602,0.28321 -0.9386,-1.12879 -1.0037,-2.76623 -1.8477,-3.98734 -1.4564,-3.43622 -3.898,-6.30199 -6.1836,-9.1904 -1.2223,-2.73825 -0.447,-5.89703 -1.7049,-8.66891 -2.3112,-7.41925 -5.9918,-14.9439 -4.5453,-22.87993 0.202,-1.56917 0.4132,-3.13712 0.594,-4.70897 -9.0007,-3.49205 -18.7175,-4.11936 -28.1523,-5.66992 -2.2451,-0.38337 -4.1187,-1.9651 -4.7774,-4.14844 -0.8282,-2.12451 -0.027,-4.78351 -1.9355,-6.43945 -3.3749,-3.16875 -7.6032,-5.25155 -11.5254,-7.65039 -6.6756,-3.74646 -13.4082,-7.48049 -20.4942,-10.38868 -0.1757,-0.0144 -0.3865,-0.11783 -0.5547,-0.041 z"
         id="path101"
         inkscape:connector-curvature="0" />
      <path
         d="m 2062.0131,992.20489 c -1.3678,-0.22334 -3.6178,-1.18346 -5,-2.13359 -1.3822,-0.95013 -5.079,-2.2823 -8.2151,-2.96037 -7.1475,-1.54542 -8.536,-4.11866 -4.1556,-7.70162 2.279,-1.86409 4.1738,-2.36909 9.3576,-2.49394 13.6657,-0.32916 18.5858,0.26369 27.75,3.34379 9.1304,3.06873 9.25,3.15095 9.25,6.3575 0,3.81706 -0.3704,3.9752 -11.5,4.90993 -12.1166,1.01763 -14.7769,1.12082 -17.4869,0.6783 z"
         id="path103"
         inkscape:connector-curvature="0" />
    </g>
    <path
       d="m 1347.4004,745.58008 c -2.2551,0.37034 -2.5826,3.1704 -2.9258,5.00195 -0.3425,2.40044 -1.7887,5.06064 -0.6777,7.43164 1.8223,0.99073 3.2377,-1.35215 5.084,-1.19922 2.5207,-0.31279 4.4333,1.55768 6.2402,2.96875 3.2627,1.65015 7.1474,0.91652 10.4497,2.50803 7.4663,2.67821 14.5148,6.4201 21.5894,10.02497 1.0234,0.59116 2.1686,1.2152 2.9628,2.03732 -1.4232,0.93291 -3.1309,-0.36117 -4.5812,-0.7053 -4.2701,-1.78905 -8.8175,-4.19957 -13.5955,-3.09997 -6.8767,0.8463 -13.8916,1.04304 -20.7411,-0.21398 -3.538,-0.40181 -7.0854,-0.69562 -10.6349,-0.97685 -16.5953,68.75928 -32.9607,137.56633 -49.4705,206.34303 -4.4369,18.6743 -8.9942,37.35045 -13.467,55.99685 0.855,2.4727 3.9481,2.4113 5.9871,3.1148 20.7235,4.6407 41.4579,9.2337 62.1713,13.921 12.0792,2.5772 24.1691,5.3135 36.4908,6.436 11.9318,1.415 23.894,2.587 35.8385,3.8567 1.3533,-0.093 2.5396,1.58 3.8424,0.564 1.5875,-1.3267 1.2135,-3.6757 1.597,-5.5076 0.2853,-4.4456 0.3331,-8.8801 0.9314,-13.292 0.8517,-10.9254 1.4168,-21.8795 2.3611,-32.7894 1.0216,-15.42487 2.1792,-30.84003 3.2514,-46.26117 1.8783,-25.5384 3.6519,-51.08508 5.5034,-76.62571 0.4691,-10.37334 2.092,-20.71294 1.7541,-31.11001 -0.2088,-1.38114 -1.8737,-2.32466 -3.0576,-1.40466 -2.4536,0.85614 -4.0649,3.49137 -6.5185,4.08044 -0.7978,-1.66597 1.3188,-2.82563 2.1683,-4.02397 2.3502,-2.51716 3.6306,-6.04354 2.902,-9.47296 -0.596,-3.76385 -2.909,-7.7612 -0.8614,-11.48354 1.6363,-3.33774 4.3933,-5.97398 7.0664,-8.47461 1.4528,-0.58418 3.164,-1.13794 3.652,-2.83726 1.7885,-4.02552 1.547,-8.56546 2.3817,-12.82556 1.7663,-13.39335 3.9841,-26.74996 5.0679,-40.21804 -0.053,-1.62075 -1.5613,-2.84294 -3.1532,-2.65445 -16.1281,-2.29662 -32.0343,-6.02226 -48.0734,-8.90648 -17.191,-3.34273 -34.3908,-6.64845 -51.5351,-10.20274 z"
       id="SK"
       inkscape:connector-curvature="0" />
    <rect
       id="PE-button"
       width="106"
       height="39.999996"
       x="2141.79"
       y="1113.5"
       inkscape:label="ributton"
       ry="6"
       rx="6" />
    <rect
       id="NB-button"
       width="106"
       height="39.999996"
       x="2141.79"
       y="1213.5"
       inkscape:label="nbbutton"
       ry="6"
       rx="6" />
    <rect
       id="NS-button"
       width="106"
       height="39.999996"
       x="2141.79"
       y="1163.5"
       inkscape:label="nsbutton"
       ry="6"
       rx="6"
       style="fill-opacity:1" />
    <path
       d="m 1117.7305,337.41016 c -46.1478,68.33266 -92.2824,136.67577 -138.34847,205.06265 -2.13217,3.5356 -5.07964,6.93536 -5.66547,11.13463 0.41968,2.54264 3.17334,4.0147 5.50219,4.33721 0.94835,-0.21696 1.7123,0.31238 1.74805,1.3073 0.49754,1.62208 2.09476,2.64294 3.77343,2.51758 3.76073,0.49572 8.08248,-0.033 11.23438,2.46485 1.01273,1.68524 -1.04693,3.2645 -2.2026,4.22828 -2.98423,2.49447 -5.56218,5.82675 -6.42826,9.67406 -0.32962,2.29907 2.11533,3.49963 3.50819,4.86066 9.93046,7.27154 20.41236,13.76087 30.72216,20.47873 19.5567,12.36283 39.0394,24.8653 59.0264,36.52363 12.7002,7.29335 25.8288,13.81468 38.7311,20.74588 12.4818,6.61283 25.124,12.99115 37.8475,19.06889 1.823,0.76776 3.5158,2.12351 5.399,2.59174 1.5242,-0.45884 0.8074,-2.46599 1.0861,-3.64361 0.3175,-6.34697 0.423,-12.70198 0.6073,-19.05366 -4.1205,0.68468 -7.9264,-1.33587 -11.1637,-3.6656 -4.7888,-2.96957 -10.1541,-4.91417 -14.8988,-7.94182 -1.4086,-1.08013 -1.3899,-2.96287 -0.7832,-4.45898 0.8194,-3.72258 0.6515,-7.69345 2.1719,-11.2207 0.9644,-0.86746 1.4299,-2.20078 0.7368,-3.3952 -1.2791,-3.30538 -3.326,-6.26954 -4.3609,-9.6867 -1.8671,-4.90072 -2.5588,-10.24959 -5.0009,-14.9181 -1.3304,-2.35804 -3.5572,-4.14607 -4.8145,-6.49415 -0.1942,-2.46745 1.3648,-4.66903 1.3343,-7.14512 1.3145,-9.5358 1.5813,-19.30955 4.4045,-28.53935 0.9086,-3.62969 2.3083,-7.23006 2.4995,-10.98154 -0.4257,-3.11049 -2.6529,-5.62903 -2.7305,-8.8125 -0.5789,-4.47625 -0.129,-9.64255 -3.3602,-13.26932 -1.739,-2.51127 -1.1234,-5.65165 -0.9308,-8.44357 -0.045,-2.07309 -1.5137,-3.65951 -2.9844,-4.91016 -1.8811,-2.65016 -0.7087,-6.15585 1.0194,-8.55498 1.6533,-2.77176 0.8741,-6.52302 3.3135,-8.864 1.5622,-1.81184 3.9421,-2.35769 6.1046,-3.01657 1.8734,-1.1116 0.8344,-3.52278 1.3457,-5.22851 0.2807,-2.79332 0.9919,-6.17765 -0.9824,-8.52734 -1.778,-1.96844 -5.3352,-2.92702 -5.3144,-6.05469 -0.3,-7.67454 3.855,-14.49466 6.8652,-21.26367 0.8922,-2.00536 1.5241,-4.57796 -0.1543,-6.375 -2.2699,-2.89501 -5.4728,-4.83519 -8.2587,-7.18235 -3.0209,-2.2865 -6.3886,-4.31367 -8.6319,-7.40945 -0.9223,-3.02672 1.6032,-5.59529 2.6068,-8.2623 3.9566,-8.52826 5.9211,-17.94167 11.2898,-25.77425 3.6192,-6.26188 7.5078,-12.39413 11.6034,-18.33454 0.5544,-2.36487 -2.0925,-3.68748 -3.5098,-5.05079 -2.6466,-2.10306 -4.5116,-5.25814 -4.8387,-8.66737 -1.6831,-5.89915 -5.2486,-11.26094 -5.591,-17.52208 -0.4378,-3.61947 -1.8205,-7.62161 -5.3415,-9.30081 -2.514,-1.47075 -5.3706,-2.16594 -8.0765,-3.18747 z"
       id="YT"
       inkscape:connector-curvature="0" />
  </g>
  <g
     inkscape:groupmode="layer"
     id="text"
     inkscape:label="text">
    <text
       xml:space="preserve"
       x="71.791939"
       y="554.52161"
       id="YT-text"
       inkscape:label="yttext"><tspan
         sodipodi:role="line"
         x="71.791939"
         y="554.52161"
         id="tspan8988-2-6"
         style="stroke-width:2">YT 1</tspan></text>
    <text
       xml:space="preserve"
       x="260.31464"
       y="621.02631"
       id="NT-text"
       inkscape:label="nttext"><tspan
         sodipodi:role="line"
         x="260.31464"
         y="621.02631"
         id="tspan8988-2-6-1"
         style="stroke-width:2">NT 1</tspan></text>
    <text
       xml:space="preserve"
       x="103.39375"
       y="810.04462"
       id="BC-text"
       inkscape:label="bctext"><tspan
         sodipodi:role="line"
         x="103.39375"
         y="810.04462"
         id="tspan8988-2-6-5"
         style="stroke-width:2">BC 1</tspan></text>
    <text
       xml:space="preserve"
       x="246.04912"
       y="867.82007"
       id="AB-text"
       inkscape:label="abtext"><tspan
         sodipodi:role="line"
         x="246.04912"
         y="867.82007"
         id="tspan8988-2-6-6"
         style="stroke-width:2">AB 1</tspan></text>
    <text
       xml:space="preserve"
       x="516.94037"
       y="903.48395"
       id="MB-text"
       inkscape:label="mbtext"><tspan
         sodipodi:role="line"
         x="516.94037"
         y="903.48395"
         id="tspan8988-2-6-17"
         style="stroke-width:2">MB 1</tspan></text>
    <text
       xml:space="preserve"
       x="375.15222"
       y="897.90338"
       id="SK-text"
       inkscape:label="sktext"><tspan
         sodipodi:role="line"
         x="375.15222"
         y="897.90338"
         id="tspan8988-2-6-57"
         style="stroke-width:2">SK 1</tspan></text>
    <text
       xml:space="preserve"
       x="545.7511"
       y="645.58563"
       id="NU-text"
       inkscape:label="nutext"><tspan
         sodipodi:role="line"
         x="545.7511"
         y="645.58563"
         id="tspan8988-2-6-18"
         style="stroke-width:2">NU 1</tspan></text>
    <text
       xml:space="preserve"
       x="651.87537"
       y="1021.3286"
       id="ON-text"
       inkscape:label="ontext"><tspan
         sodipodi:role="line"
         x="651.87537"
         y="1021.3286"
         id="tspan8988-2-6-9"
         style="stroke-width:2">ON 1</tspan></text>
    <text
       xml:space="preserve"
       x="895.13098"
       y="986.93732"
       id="QC-text"
       inkscape:label="qctext"><tspan
         sodipodi:role="line"
         x="895.13098"
         y="986.93732"
         id="tspan8988-2-6-3"
         style="stroke-width:2">QC 1</tspan></text>
    <text
       xml:space="preserve"
       x="1074.6172"
       y="879.85309"
       id="NL-text"
       inkscape:label="nltext"><tspan
         sodipodi:role="line"
         x="1074.6172"
         y="879.85309"
         id="tspan8988-2-6-0"
         style="stroke-width:2">NL 1</tspan></text>
    <text
       xml:space="preserve"
       x="1193.6445"
       y="1147.1448"
       id="PE-text"
       inkscape:label="petext"><tspan
         sodipodi:role="line"
         x="1193.6445"
         y="1147.1448"
         id="tspan8988-2-6-31"
         style="stroke-width:2">PE 1</tspan></text>
    <text
       xml:space="preserve"
       x="1193.6445"
       y="1197.9659"
       id="NS-text"
       inkscape:label="nstext"><tspan
         sodipodi:role="line"
         x="1193.6445"
         y="1197.9659"
         id="tspan8988-2-6-38"
         style="stroke-width:2">NS 1</tspan></text>
    <text
       xml:space="preserve"
       x="1193.6445"
       y="1248.2521"
       id="NB-text"
       inkscape:label="nbtext"><tspan
         sodipodi:role="line"
         x="1193.6445"
         y="1248.2521"
         id="tspan8988-2-6-64"
         style="stroke-width:2">NB 1</tspan></text>
  </g>
</svg>
